<?xml version="1.0" encoding="UTF-8" standalone="no"?>
<svg
   version="1.1"
   width="1269"
   height="457"
   id="svg16"
   sodipodi:docname="koomiteh-logo-uncutted.svg"
   inkscape:version="1.4.2 (ebf0e940d0, 2025-05-08)"
   inkscape:export-filename="../apps/web/src/assets/koomiteh-logo.svg"
   inkscape:export-xdpi="96"
   inkscape:export-ydpi="96"
   xmlns:inkscape="http://www.inkscape.org/namespaces/inkscape"
   xmlns:sodipodi="http://sodipodi.sourceforge.net/DTD/sodipodi-0.dtd"
   xmlns="http://www.w3.org/2000/svg"
   xmlns:svg="http://www.w3.org/2000/svg">
  <defs
     id="defs16" />
  <sodipodi:namedview
     id="namedview16"
     pagecolor="#ffffff"
     bordercolor="#000000"
     borderopacity="0.25"
     inkscape:showpageshadow="2"
     inkscape:pageopacity="0.0"
     inkscape:pagecheckerboard="0"
     inkscape:deskcolor="#d1d1d1"
     inkscape:zoom="0.99921198"
     inkscape:cx="963.25907"
     inkscape:cy="307.24211"
     inkscape:window-width="2168"
     inkscape:window-height="1055"
     inkscape:window-x="1672"
     inkscape:window-y="0"
     inkscape:window-maximized="1"
     inkscape:current-layer="svg16" />
  <path
     d="m 0,0 c 14.153067,0.53614575 28.290821,0.65059517 42.453125,0.625 l 3.129417,-0.004639 c 7.475114,-0.012155 14.950186,-0.0339 22.42527,-0.0578613 48.328218,-0.15472893 48.328218,-0.15472893 66.554688,0.25 l 3.55667,0.0427246 C 148.7864,1.16851 160.04118,3.2751199 168.88281,9.5625 c 2.48149,2.641583 3,3.331738 3,7 l 1.875,0.6875 c 2.88206,1.780092 3.10836,3.076242 4.125,6.3125 0.51417,2.966498 0.81039,5.940385 1.08594,8.9375 l 0.25327,2.667969 c 0.89937,10.121012 1.12903,20.239356 1.28579,30.394531 l 0.0556,3.107971 c 0.35276,19.817503 0.42313,39.637019 0.44188,59.457219 0.003,2.30786 0.006,4.61572 0.0106,6.92358 0.006,3.65082 0.006,7.3016 0.001,10.95243 -0.002,2.00502 0.001,4.01005 0.004,6.01507 l -0.009,3.6409 -0.002,3.17673 c -0.11221,2.4089 -0.43352,4.42672 -1.12699,6.7261 h 2 c -0.52268,2.76276 -1.10869,5.32609 -2,8 h 2 c 1.04057,6.24339 0.79357,11.73689 0,18 0,1.31861 0.009,2.63722 0.0159,3.95581 0.0171,3.48731 0.0296,6.97458 0.0391,10.46191 0.005,1.50424 0.0118,3.00848 0.0205,4.5127 0.0122,2.17294 0.0178,4.34583 0.0222,6.5188 l 0.0159,3.948 c -0.10429,3.30973 -0.52517,6.35151 -1.11353,9.60278 -0.0928,2.76114 -0.13991,5.49029 -0.125,8.25 l -0.0117,2.12109 c 0.007,3.79803 0.21326,7.48717 0.67237,11.25806 0.54577,5.32754 0.34386,10.45317 0.0268,15.78882 -0.57672,11.73688 -0.64887,23.44696 -0.625,35.19531 l 0.005,2.77264 c 0.0122,6.64222 0.034,13.28439 0.0579,19.92658 0.0238,6.69565 0.0441,13.39128 0.0559,20.08697 0.006,2.64091 0.0189,5.28174 0.0317,7.92263 0.0974,31.08655 0.0974,31.08655 -8.22437,39.98649 -3.66795,3.32961 -7.67515,6.06074 -11.86328,8.69141 l -2,1.25781 c -8.11739,4.56604 -17.24177,4.88022 -26.34637,4.67739 -3.36222,0.0596 -6.56044,0.36598 -9.89128,0.76812 -15.85243,1.84837 -31.761471,1.53789 -47.692316,1.46654 -4.231766,-0.0165 -8.463544,-0.0204 -12.695337,-0.0255 -7.989076,-0.0113 -15.978093,-0.0319 -23.967137,-0.0569 -14.327897,-0.0446 -28.6558148,-0.0776 -42.983763,-0.10025 -5.0161081,-0.008 -10.032159,-0.0223 -15.048239,-0.041 -3.118638,-0.0107 -6.237275,-0.0172 -9.355925,-0.0228 -1.437869,-0.003 -2.875735,-0.009 -4.313591,-0.0158 -6.635886,-0.0322 -13.138083,0.004 -19.72204,0.86589 -3.365494,0.38405 -6.719154,0.34936 -10.102408,0.32406 l -2.289901,-0.004 c -1.622101,-0.004 -3.244198,-0.01 -4.866282,-0.0181 -2.568405,-0.0129 -5.136758,-0.0193 -7.705191,-0.0241 -5.444263,-0.0114 -10.888482,-0.0306 -16.332717,-0.051 -6.329413,-0.0236 -12.658793,-0.044 -18.988243,-0.0559 -2.52823,-0.006 -5.05638,-0.019 -7.58459,-0.0317 -1.54774,-0.004 -3.09549,-0.007 -4.64323,-0.01 l -2.12375,-0.0156 c -3.29014,-3.6e-4 -6.18717,0.20876 -9.34769,1.11331 -4.61963,0.0963 -9.23367,-0.0522 -13.85156,-0.18701 -2.24471,-0.0622 -4.48919,-0.10403 -6.73437,-0.14502 -10.25195,-0.24873 -20.2539,-0.89031 -28.53125,-7.60938 -3.99035,-4.36288 -6.52071,-9.68255 -8.88282,-15.05859 l -0.86035,-1.93115 c -2.73155,-6.94121 -2.44205,-13.70283 -2.26465,-21.06885 0.13743,-7.52603 0.18002,-14.97494 -0.33203,-22.48828 -0.87002,-12.8463 -0.89405,-25.73058 -1.07519,-38.60108 -0.0401,-2.78153 -0.0843,-5.56299 -0.12845,-8.34446 -0.4328,-27.38104 -0.4328,-27.38104 -0.27379,-39.95734 0.0356,-5.00757 -0.20853,-9.95231 -0.5616,-14.9481 -0.53864,-8.16469 -0.65252,-16.3072 -0.6492,-24.48911 -0.003,-1.50869 -0.006,-3.01738 -0.0102,-4.52608 -0.009,-4.05059 -0.0112,-8.10117 -0.0118,-12.15177 -7.2e-4,-2.54983 -0.003,-5.09965 -0.006,-7.64948 -0.009,-8.95111 -0.0133,-17.90221 -0.0126,-26.85333 6e-4,-8.25106 -0.01,-16.50204 -0.0257,-24.75308 -0.0132,-7.15489 -0.0184,-14.30976 -0.0178,-21.46467 2.5e-4,-4.24125 -0.002,-8.48244 -0.0132,-12.72368 -0.152,-64.028716 -0.152,-64.028716 5.24202,-77.04954 0.13874,-1.934322 0.21951,-3.873449 0.25,-5.8125 0.44018,-6.278273 2.26831,-9.832055 6.75,-14.1875 7.42995,-6.2741743 16.5437,-6.24797 25.79615,-6.6589355 l 2.11792,-0.094971 1.87353,-0.07251 c 1.83846,-0.1442444 3.6683,-0.393616 5.4917,-0.6691895 3.80437,-0.5157363 7.50096,-0.7128886 11.33789,-0.8208007 l 2.18562,-0.062973 c 2.3573,-0.065868 4.7147,-0.1249293 7.07219,-0.1831207 l 2.47476,-0.065185 c 12.12127,-0.3167997 24.22995,-0.4223258 36.354649,-0.3623352 12.131903,0.055883 24.234694,-0.2482227 36.35907,-0.65451055 8.747501,-0.2889599 17.481488,-0.455972 26.234375,-0.31835937 C -27.899879,0.64424621 -24.11613,0.47580872 -20.219971,0.03125 -13.445992,-0.60118117 -6.7869889,-0.29389371 0,0 Z m -156.11719,47.5625 c -0.77645,2.620151 -1.29132,4.946562 -1.6875,7.625 l -0.35351,2.082031 c -0.34775,2.094344 -0.65751,4.191509 -0.95899,6.292969 l -0.57422,3.804687 c -0.62968,5.220326 -0.57452,10.444237 -0.55078,15.695313 l 0.008,3.225586 c 0.0506,8.462314 0.4927,16.834714 1.11694,25.274414 0.94579,13.22953 0.88642,26.14104 0.10205,39.37939 -0.10849,2.78605 -0.0659,5.54813 -0.0122,8.33545 0.0327,3.37969 -0.17108,5.55885 -1.14844,8.85157 -1.2832,4.68021 -0.61936,8.60954 -0.004,13.37109 1.04567,9.32698 1.05037,18.31806 0.4314,27.67749 -0.35896,5.73198 -0.25653,11.16593 0.39868,16.87598 0.23833,2.57281 0.22982,5.05194 0.16992,7.63403 -0.0518,3.90999 0.24375,7.65865 0.77131,11.53268 1.32058,9.73158 1.53783,19.27468 1.45135,29.0806 -0.006,1.6574 -0.0115,3.31481 -0.0158,4.97221 -0.0131,4.3276 -0.0375,8.65504 -0.0654,12.98256 -0.0843,13.34532 -0.1303,26.69024 -0.085,40.03578 0.006,2.22206 0.005,4.44406 0.004,6.66613 0.002,3.94597 0.058,7.89005 0.12287,11.83551 l -0.007,3.48274 c 0.0925,6.03168 0.0925,6.03168 3.22337,10.976 5.10909,1.82835 9.75,1.98669 15.14722,2.05298 l 3.64251,0.0864 c 4.29114,0.0874 8.5813,0.13583 12.87311,0.17142 l 2.50199,0.0221 c 13.55651,0.11449 27.112504,0.11993 40.669399,0.10484 4.108259,-0.003 8.216497,0.002 12.324753,0.007 18.603459,0.0176 37.169367,0.0303 55.752884,-0.91556 6.3943015,-0.31989 12.7733054,-0.2965 19.1742553,-0.2363 C 25.4598,366.69344 42.607151,366.4282 59.757812,366.125 l 3.569092,-0.0598 c 12.081913,-0.20484 24.157937,-0.47281 36.23169,-0.97144 l 2.796726,-0.11082 c 6.52644,-0.29116 12.88038,-1.0304 19.33999,-2.01809 3.8169,-0.48179 7.49603,-0.48296 11.33203,-0.27734 2.10665,0.0625 2.10665,0.0625 3.85547,-2.125 1.07022,-3.83905 1.11597,-7.51016 1.09766,-11.47876 l -0.01,-3.93666 -0.0125,-2.10247 c -0.013,-2.22622 -0.0193,-4.45238 -0.0241,-6.67863 -0.0133,-5.56577 -0.0366,-11.13149 -0.0614,-16.69722 -0.0238,-5.41171 -0.0423,-10.82341 -0.0521,-16.23517 l -0.004,-2.42831 c -0.0132,-11.5368 0.17392,-23.05674 0.4884,-34.58888 0.84653,-31.24205 0.73,-62.49062 0.70715,-93.74148 -0.004,-6.62302 -0.001,-13.24602 0.004,-19.86904 0.005,-6.52277 0.005,-13.04552 0.003,-19.56829 -0.002,-3.83951 -0.002,-7.67901 0.002,-11.51853 0.0111,-14.63329 -0.05,-29.262244 -0.46364,-43.890575 -0.0536,-1.908573 -0.10089,-3.817319 -0.14791,-5.726065 0.0725,-14.411095 0.0725,-14.411095 -4.52475,-27.53992 -7.87021,-2.34635 -16.47029,-2.389201 -24.625,-2.625 l -3.07812,-0.117188 C 98.296327,41.556907 90.422065,41.553016 82.535156,41.570312 70.786578,41.594693 59.05241,41.403088 47.307373,41.134705 -60.874003,35.861581 -60.874003,35.861581 -156.11719,47.5625 Z m 336,127 1,2 z"
     fill="#c71d31"
     transform="translate(1065.1172,23.4375)"
     id="path1"
     sodipodi:nodetypes="cccscccccccccccccccccccccccccccccccccscccccccccscccccccscscccccccccccccccccccsscsccccccccccccccccccccccccccccccccccccccccccccccccccccccccccscsscccsscccccccccccc" />
  <path
     d="m 0,0 c 2.2613022,0.00387456 4.5226001,0.00587072 6.783905,0.00746536 20.829814,0.01726183 41.653833,0.17577092 62.480469,0.55880738 l 3.363251,0.0592651 c 3.097812,0.0566441 6.195389,0.12008124 9.292999,0.18682862 l 2.694839,0.0506744 c 5.120938,0.12285434 10.07183,0.59481954 15.148911,1.26573174 2.625326,-0.00522 5.250826,-0.047054 7.874996,-0.125 9.09538,-0.1224823 16.9458,1.1715102 24.125,7.125 3.27107,4.0343114 3.08589,6.9329604 3,12.0000004 l 0.98609,3.316162 c 1.64919,6.327352 1.23883,12.823849 1.17407,19.312744 -0.006,1.435619 -0.0115,2.871243 -0.0158,4.306869 -0.0132,3.777268 -0.0376,7.554372 -0.0654,11.331559 -0.0483,6.703794 -0.0816,13.407652 -0.10638,20.111572 l -0.009,2.185131 c -0.0386,10.938161 0.21031,21.83729 0.8032,32.76091 0.52104,9.63431 0.48389,19.20211 -0.54028,28.80005 -1.1416,10.20589 -1.1416,10.20589 0.77343,19.875 0.004,1.90305 -0.0591,3.80646 -0.15625,5.70703 l -0.16015,3.4668 c -0.12181,2.41409 -0.2442,4.82816 -0.36719,7.24219 l -0.16016,3.47851 -0.16211,3.18287 c -0.0975,2.83316 -0.0975,2.83316 0.50136,5.1875 0.58962,3.19656 0.60681,6.16834 0.58238,9.41943 l -0.009,1.97302 c -0.007,1.40975 -0.0152,2.81949 -0.0257,4.22921 -0.0274,3.83384 -0.0359,7.66771 -0.0437,11.50163 l -0.005,2.40896 c -0.01,8.31543 0.11324,16.6272 0.25966,24.94113 0.0249,1.46451 0.0497,2.92902 0.0745,4.39353 0.10126,5.90091 0.20759,11.80171 0.31974,17.70242 0.0701,3.70256 0.13406,7.40518 0.1945,11.1079 0.0349,2.0299 0.0764,4.05968 0.11813,6.08944 0.11236,6.99233 -0.12058,13.82548 -0.72952,20.79032 -0.39414,5.41534 -0.33401,10.82174 -0.29381,16.24843 l 0.0115,3.64157 c 0.0161,5.07199 0.0442,10.1439 0.0715,15.21585 0.1226,24.94549 0.1226,24.94549 -0.33301,35.93945 l -0.0681,2.23221 c -0.36633,7.06319 -2.69038,12.75234 -7.61939,17.9006 -2.88281,1.94922 -2.88281,1.94922 -6.125,3.6875 l -3.19531,1.76172 c -9.43523,3.97642 -18.7038,3.66555 -28.74546,3.27568 -4.670632,-0.17675 -9.342576,-0.30411 -14.014823,-0.42976 l -3.096444,-0.0834 c -13.157664,-0.3288 -26.316043,-0.30842 -39.477012,-0.29349 -1.340149,0.001 -2.680297,0.002 -4.020446,0.004 -7.720696,0.008 -15.44137,0.0219 -23.1620518,0.0381 -7.46745203,0.0153 -14.9349067,0.0227 -22.4023712,0.0293 -13.321161,0.0118 -26.642317,0.0267 -39.963471,0.0452 l -2.393337,0.003 c -8.84822,0.0123 -17.696436,0.0259 -26.544651,0.0413 l -2.426919,0.004 -4.849993,0.008 -2.421819,0.004 -2.418775,0.004 c -13.323097,0.0231 -26.646187,0.0383 -39.969297,0.0473 -8.17457,0.006 -16.34909,0.0181 -24.52364,0.039 -6.24191,0.0154 -12.48379,0.0203 -18.72572,0.0214 -2.55132,0.002 -5.10265,0.008 -7.65396,0.017 -3.48846,0.0122 -6.97671,0.012 -10.46518,0.009 l -3.03497,0.0197 c -10.88759,-0.0387 -19.34326,-0.8072 -27.2756,-8.71443 -3.25308,-3.94498 -4.80694,-7.6221 -6.09375,-12.53907 l -0.92968,-3.33593 c -1.87785,-7.79389 -2.29379,-14.67851 -1.49146,-22.61915 0.45233,-4.8173 0.3026,-9.41995 -0.0564,-14.24755 -0.60372,-8.84732 -0.66834,-17.66319 -0.65527,-26.52784 -6.8e-4,-1.64992 -0.002,-3.29985 -0.003,-4.94978 -0.001,-3.4278 6.2e-4,-6.85557 0.005,-10.28337 0.006,-4.35674 0.002,-8.71342 -0.004,-13.07016 -0.004,-3.39667 -0.002,-6.79332 1.3e-4,-10.19 6.6e-4,-1.60529 -1.2e-4,-3.21059 -0.002,-4.81588 -0.01,-8.43211 0.14218,-16.78904 0.91001,-25.19491 0.42361,-5.17697 0.66709,-10.37073 -0.27591,-15.49365 -0.51316,-3.3727 -0.61103,-6.52643 -0.59546,-9.93657 l 0.01,-3.99446 0.0125,-2.1266 c 0.0131,-2.24442 0.0201,-4.48879 0.0255,-6.73324 0.008,-3.21848 0.0191,-6.43694 0.0318,-9.65541 0.0318,-8.39623 0.0414,-16.79249 0.0454,-25.18878 l 0.001,-2.53891 c 0.004,-15.66126 -0.15433,-31.31433 -0.46614,-46.97281 l -0.0598,-3.24887 c -0.0562,-2.9771 -0.11948,-5.95394 -0.18628,-8.93081 l -0.0506,-2.60613 c -0.0709,-4.2024 -0.0709,-4.2024 -0.77427,-8.32919 -0.52162,-2.13319 -0.59496,-3.938684 -0.56083,-6.131335 l 0.0319,-2.451187 0.053,-2.650132 0.0465,-2.792343 c 0.0545,-3.016055 0.11978,-6.031721 0.18782,-9.0475 l 0.0667,-3.105225 c 0.31419,-13.979464 0.91565,-27.900294 2.12082,-41.832275 l 0.18592,-2.213166 c 1.46479,-17.068585 1.46479,-17.068585 6.06408,-22.474334 l 1.38672,-1.6992191 c 5.13908,-4.3051497 10.97654,-5.1592116 17.42578,-5.7382813 l 2.125,-0.2226562 c 2.45647,-0.2465119 4.91451,-0.4496296 7.375,-0.6523438 l 2.94942,-0.2585144 c 10.82871,-0.8452502 21.62083,-0.8585045 32.47802,-0.8166504 3.42839,0.013022 6.85675,0.019347 10.28516,0.024139 8.53743,0.013225 17.07483,0.037047 25.61223,0.061401 8.35396,0.023446 16.70791,0.041953 25.06189,0.052124 l 3.56675,0.00448 C -83.686268,1.2096704 -66.111877,0.95450587 -48.522552,0.49574661 -32.346724,0.0766079 -16.180704,-0.03042279 0,0 Z m -3.3020325,37.640491 c -9.6352115,0.561058 -19.2285545,0.528764 -28.8765565,0.448914 -29.065781,-0.211298 -58.124069,0.31864 -87.183831,0.850361 -3.54064,0.06365 -7.08133,0.123982 -10.62205,0.183361 -5.67963,0.09575 -11.35904,0.200368 -17.0384,0.311464 -2.10915,0.04014 -4.21835,0.0777 -6.3276,0.112347 -10.43214,0.174091 -20.80528,0.520792 -31.19692,1.496386 l -2.57224,0.230497 c -4.52607,0.330513 -4.52607,0.330513 -8.116,2.854952 -0.98005,2.912579 -1.12522,5.59727 -1.12584,8.6553 l -0.008,2.838123 0.007,3.108078 -0.005,3.309592 c -0.004,3.672553 -8.2e-4,7.345064 0.002,11.017618 -0.001,2.62797 -0.003,5.255941 -0.005,7.883911 -0.004,6.405696 -0.003,12.811381 -5.9e-4,19.217075 0.002,5.2077 0.003,10.41539 0.001,15.62308 l -4.7e-4,2.24529 c -3.2e-4,1.50522 -6.4e-4,3.01045 -9.7e-4,4.51567 -0.003,14.12202 4.3e-4,28.24403 0.006,42.36605 0.004,12.11149 0.004,24.22298 -9.2e-4,36.33447 -0.005,14.06496 -0.007,28.12992 -0.004,42.19488 3.2e-4,1.50094 6.4e-4,3.00188 9.5e-4,4.50282 l 4.7e-4,2.23781 c 8.6e-4,5.19805 -6e-4,10.3961 -0.003,15.59415 -0.003,6.33988 -0.002,12.67975 0.003,19.01963 0.003,3.23335 0.003,6.46668 3.5e-4,9.70003 -0.003,3.50902 7e-4,7.01797 0.006,10.52699 l -0.007,3.08104 c 0.015,5.44071 0.3528,10.64384 1.13374,16.02839 0.088,1.45341 0.15232,2.90884 0.17359,4.36475 l 0.0409,2.28403 0.0316,2.37466 c 0.0329,1.69662 0.0661,3.39324 0.0996,5.08984 0.0477,2.64661 0.0923,5.29319 0.1311,7.93995 0.0395,2.57364 0.0911,5.14682 0.14429,7.72021 l 0.0255,2.41147 c -0.0655,4.37471 -0.0655,4.37471 2.35341,7.81509 2.84874,0.93736 5.58564,1.17724 8.57032,1.31641 l 2.68676,0.12671 2.86792,0.11938 2.99097,0.13306 c 5.90732,0.24334 11.7859,0.32351 17.69653,0.24194 8.42078,-0.10671 16.72799,0.60663 25.11109,1.34912 7.16325,0.61683 14.19632,0.87425 21.3811,0.68604 2.69531,0.0273 2.69531,0.0273 5.69531,1.02734 3.68383,0.13157 6.49054,0.16982 10.000004,-1 2.960325,-0.15571 5.900801,-0.25828 8.863281,-0.3164 l 2.70285,-0.063 c 2.91537,-0.0661 5.830834,-0.12482 8.746369,-0.18312 2.002361,-0.0435 4.004721,-0.0872 6.00708,-0.13086 12.819358,-0.26806 25.631287,-0.40161 38.453125,-0.26977 l 3.332764,0.0256 2.817138,0.0352 c 2.464607,-0.0782 4.781415,-0.29019 7.220703,-0.59766 5.491778,-0.64454 10.9352817,-0.60699 16.45825228,-0.5625 2.27278602,0.009 4.54557252,0.0174 6.81835932,0.0259 l 3.5681153,0.0189 c 25.2873151,0.12349 50.5361381,0.14804 75.7619631,-1.85724 l 2.748047,-0.20068 2.486328,-0.229 2.147461,-0.18702 c 2.385704,-0.64911 3.337354,-1.58937 4.868164,-3.5083 1.196483,-3.58945 1.105778,-6.83047 1.0625,-10.5625 l -0.01148,-2.2622 c -0.01626,-3.18562 -0.0441,-6.37111 -0.07153,-9.55664 -0.01835,-2.33122 -0.03029,-4.6624 -0.04199,-6.99366 l -0.02515,-2.11938 c -0.01849,-3.86412 0.178573,-7.63014 0.587647,-11.47347 0.589795,-6.32954 0.626174,-12.6077 0.597656,-18.96061 l -0.0044,-3.76931 c -0.0038,-2.68392 -0.0094,-5.36777 -0.01807,-8.05168 -0.01367,-4.2605 -0.01945,-8.52099 -0.02414,-12.78151 -0.01198,-9.81806 -0.03399,-19.6361 -0.05623,-29.45415 -0.02028,-8.99419 -0.03833,-17.98836 -0.04821,-26.98256 -0.0041,-3.53381 -0.01036,-7.0676 -0.02175,-10.60139 -0.08497,-26.60623 -0.08497,-26.60623 0.845643,-38.38685 0.37492,-4.97245 0.37718,-9.93502 0.35452,-14.91909 l -0.006,-3.38623 c -0.0553,-11.51652 -0.3805,-23.02598 -0.69134,-34.53787 C 99.777045,99.788599 99.685274,84.262136 99.801483,68.716175 100.79788,53.781266 100.79788,53.781266 97.524872,39.802113 95.888221,37.947421 95.888221,37.947421 93.544891,37.69054 l -2.635986,0.08276 -3.023926,0.05469 -3.308105,0.113282 c -2.376219,0.04268 -4.752535,0.08021 -7.128906,0.113281 l -3.805176,0.05713 c -6.507501,0.02867 -13.001506,-0.236825 -19.503418,-0.48291 -11.063757,-0.393683 -22.116649,-0.610297 -33.1875,-0.625 l -3.766113,-0.01367 c -6.850417,0.01087 -13.6524907,0.241481 -20.4877935,0.65039 z"
     fill="#c71d31"
     transform="translate(685.23563,25.871227)"
     id="path3"
     sodipodi:nodetypes="ccccccccccccccccccccccccccsccccccccccscccccccsccccsssscccscccccccccccccccccccccsccccccccccccccccccccccccccccccccccccccccccccsssccssssssccccccccccccccccccccccccccccccccccccccsccccccscsccccccccccccccccccsc" />
  <path
     d="M0 0 C1.175625 0.4021875 1.175625 0.4021875 2.375 0.8125 C4.96220725 2.70315145 5.18707399 4.94631641 6 8 C6.18830526 10.75257985 6.28007839 13.37784049 6.25 16.125 C6.25773437 16.80820313 6.26546875 17.49140625 6.2734375 18.1953125 C6.25861528 22.2269564 5.83266927 25.91993755 5 29.86303711 C3.31746612 39.77515606 3.71280039 49.8495986 3.734375 59.87109375 C3.73302577 62.08398989 3.73108309 64.29688575 3.72857666 66.50978088 C3.72564187 71.12495778 3.72987275 75.74005681 3.73925781 80.35522461 C3.75069835 86.26886089 3.74405342 92.18231652 3.73211288 98.09594631 C3.72488974 102.65553655 3.72718351 107.21508384 3.73236847 111.77467537 C3.73370127 113.95596399 3.73207019 116.13725652 3.72740936 118.31854057 C3.72233158 121.360171 3.73007004 124.40150677 3.74121094 127.44311523 C3.73513824 128.79048264 3.73513824 128.79048264 3.72894287 130.16506958 C3.7590178 134.59631494 4.00830972 137.94803372 6 142 C7.94107451 150.88535051 8.33806464 159.74728013 8.3125 168.8125 C8.33666992 170.55563477 8.33666992 170.55563477 8.36132812 172.33398438 C8.36528607 179.29601293 8.36539914 186.08597643 3.58325195 191.64770508 C-0.81330178 195.40291111 -7.59004229 194.39410288 -13 194 C-17.76297755 192.38398976 -20.30464153 190.23556331 -23 186 C-24.642618 181.10212077 -25.39608971 176.44774081 -25.625 171.3125 C-25.66294678 170.55195313 -25.70089355 169.79140625 -25.73999023 169.0078125 C-26.25888591 157.01555682 -26.06686023 144.99981916 -26 133 C-25.97345736 128.1250026 -25.95350943 123.25004198 -25.9375 118.375 C-25.92920166 117.26060547 -25.92090332 116.14621094 -25.91235352 114.99804688 C-25.90739868 113.46374023 -25.90739868 113.46374023 -25.90234375 111.8984375 C-25.89710693 110.99786621 -25.89187012 110.09729492 -25.88647461 109.16943359 C-25.85755413 106.95167378 -25.85755413 106.95167378 -27 105 C-31.66384053 103.91861382 -36.41202233 103.71637296 -41.1796875 103.46484375 C-41.95128204 103.42186661 -42.72287659 103.37888947 -43.51785278 103.33460999 C-45.14316211 103.24483289 -46.76856194 103.15668111 -48.39404297 103.07006836 C-50.86060066 102.93826942 -53.32677846 102.80059582 -55.79296875 102.66210938 C-57.38018918 102.57517037 -58.96742824 102.48857078 -60.5546875 102.40234375 C-61.64570267 102.34142799 -61.64570267 102.34142799 -62.75875854 102.27928162 C-71.95640758 101.67158127 -71.95640758 101.67158127 -81 103 C-83.17503257 103.12511716 -85.35308552 103.20114414 -87.53125 103.24609375 C-89.46097656 103.29540039 -89.46097656 103.29540039 -91.4296875 103.34570312 C-94.11191584 103.40795301 -96.79414016 103.46356078 -99.4765625 103.51757812 C-106.47290434 103.7018754 -113.1322681 104.21764322 -120.00976562 105.50805664 C-125.30361761 106.37898346 -130.6491927 106.67204729 -136 107 C-135.98428955 108.39400024 -135.98428955 108.39400024 -135.96826172 109.81616211 C-135.79117722 128.00094726 -135.89784583 145.9743408 -137.71777344 164.09033203 C-138.01360325 167.14024529 -138.26534649 170.19149744 -138.5078125 173.24609375 C-138.67167435 175.24741227 -138.83572903 177.24871502 -139 179.25 C-139.0707373 180.16177002 -139.14147461 181.07354004 -139.21435547 182.01293945 C-139.86139261 189.45103492 -141.34022031 194.70933638 -147 200 C-151.69859897 200.74580936 -153.8385897 200.53424874 -158.125 198.5625 C-165.35634621 192.11716968 -170.05301015 183.03326167 -171.34765625 173.41796875 C-171.55815979 167.313366 -170.42565652 161.56959323 -169.21533203 155.60668945 C-166.65459238 142.64162537 -165.78301811 129.45692974 -166 116.26171875 C-166.06059203 110.01316556 -165.64097957 103.77051053 -165.26733398 97.53540039 C-165.01078754 92.79978422 -165.16770048 88.68323762 -166 84 C-166.07962651 80.83213583 -165.9955757 77.66792649 -165.9375 74.5 C-165.79766636 57.45232504 -167.16737358 40.36583102 -171.57421875 23.84765625 C-172.59014105 19.43911268 -172.72795301 15.54960294 -170.81640625 11.48046875 C-168.72058176 8.61842885 -166.68911578 7.12652882 -163.6875 5.25 C-162.30111328 4.36054688 -162.30111328 4.36054688 -160.88671875 3.453125 C-156.84431839 1.41824958 -153.76980156 0.44857815 -149.3671875 1.8203125 C-140.38909829 6.52044071 -140.38909829 6.52044071 -138 11 C-136.00186197 18.1101078 -135.75184633 25.03295096 -135.875 32.37109375 C-135.88257324 33.41523941 -135.89014648 34.45938507 -135.89794922 35.53517151 C-135.92217742 38.83612425 -135.95946694 42.13670979 -136 45.4375 C-136.05311019 49.81118761 -136.09307118 54.18470623 -136.125 58.55859375 C-136.14159668 59.56168076 -136.15819336 60.56476776 -136.17529297 61.59825134 C-136.18189941 62.52674393 -136.18850586 63.45523651 -136.1953125 64.41186523 C-136.20578613 65.2277562 -136.21625977 66.04364716 -136.22705078 66.88426208 C-136.13260291 69.30240982 -136.13260291 69.30240982 -134 72 C-130.94726131 72.52633426 -128.08340519 72.80396894 -125 73 C-123.76894531 73.103125 -122.53789063 73.20625 -121.26953125 73.3125 C-114.0740176 73.8702516 -107.36516536 73.93275055 -100.17456055 73.26708984 C-94.89475827 72.82287669 -89.60691827 72.67459808 -84.3125 72.5 C-76.70133348 72.2315046 -69.10035256 71.92649327 -61.5 71.4375 C-57.26569856 71.16535208 -53.05741568 70.95215071 -48.8125 71 C-44.71949524 71.03528452 -40.65046618 70.9002411 -36.5625 70.6875 C-35.38816406 70.62949219 -34.21382812 70.57148438 -33.00390625 70.51171875 C-30.04558226 70.22806352 -30.04558226 70.22806352 -28.15234375 68.70703125 C-25.92164605 65.40257398 -25.87840537 61.99450268 -25.90234375 58.09887695 C-25.90564697 57.1271907 -25.9089502 56.15550446 -25.91235352 55.15437317 C-25.92480103 53.58715767 -25.92480103 53.58715767 -25.9375 51.98828125 C-25.94128662 50.90548386 -25.94507324 49.82268646 -25.94897461 48.70707703 C-25.9652956 44.0785152 -25.99331747 39.45004195 -26.02050781 34.8215332 C-26.03868371 31.4396201 -26.05072513 28.05772176 -26.0625 24.67578125 C-26.07494751 23.12374748 -26.07494751 23.12374748 -26.08764648 21.5403595 C-26.14002002 5.88410495 -26.14002002 5.88410495 -23.6953125 1.84375 C-23.17710937 1.4003125 -22.65890625 0.956875 -22.125 0.5 C-21.61195313 0.0359375 -21.09890625 -0.428125 -20.5703125 -0.90625 C-14.1179511 -5.40043207 -6.48341906 -2.86711198 0 0 Z "
     fill="#C71D31"
     transform="translate(1131,133)"
     id="path4" />
  <path
     d="M0 0 C1.25641296 -0.00499512 2.51282593 -0.00999023 3.80731201 -0.01513672 C7.3690509 -0.02688136 10.93044514 -0.0239835 14.4921875 -0.015625 C15.53967163 -0.0195929 16.58715576 -0.02356079 17.66638184 -0.02764893 C32.55868632 0.06642889 32.55868632 0.06642889 36.81784058 3.69036865 C38.72573841 5.96676832 38.99474664 7.25417279 39.125 10.25 C37.89050667 16.11384333 35.52541019 22.04749186 31.125 26.25 C22.50497826 30.56718227 11.84812135 28.05733369 2.61499023 27.03442383 C-6.20081056 26.11290872 -15.02177181 25.83334115 -23.87890625 25.59204102 C-29.02154189 25.44701692 -34.11171966 25.25441684 -39.23046875 24.73046875 C-48.27894114 23.9233945 -57.37551758 24.10177687 -66.4519043 24.11962891 C-69.64181414 24.12492416 -72.83157918 24.11969411 -76.02148438 24.11328125 C-86.58995756 24.10940265 -97.13913591 24.25769585 -107.69921875 24.6953125 C-109.14842461 24.75342606 -109.14842461 24.75342606 -110.62690735 24.81271362 C-111.52177353 24.85405426 -112.41663971 24.8953949 -113.33862305 24.93798828 C-114.12093796 24.9738504 -114.90325287 25.00971252 -115.70927429 25.04666138 C-117.85236157 25.24787449 -119.80501106 25.67054074 -121.875 26.25 C-121.71902344 26.81847656 -121.56304688 27.38695312 -121.40234375 27.97265625 C-120.10533204 33.11775569 -119.77909501 36.96973048 -120.875 42.25 C-122.24719985 49.50902722 -122.28979516 56.82489506 -122.5 64.1875 C-122.53418533 65.33587341 -122.53418533 65.33587341 -122.56906128 66.50744629 C-122.82878412 75.52731846 -122.95176752 84.48534386 -122.4375 93.5 C-121.89427245 103.21671945 -121.66246684 112.92408144 -121.58688354 122.65466309 C-121.57077079 124.36967351 -121.54740388 126.08463283 -121.51638794 127.79943848 C-121.47417674 130.22073195 -121.45855188 132.64088373 -121.44921875 135.0625 C-121.43174591 135.78451599 -121.41427307 136.50653198 -121.39627075 137.25042725 C-121.42227667 143.43113606 -123.43363148 147.34208723 -127.3671875 152.02734375 C-129.84643306 154.10738875 -131.68673155 155.21469967 -134.875 155.8125 C-139.97953809 154.85539911 -142.89068299 152.42053915 -146.1875 148.5 C-150.1639452 140.8416611 -148.70480801 132.33319152 -148.09484863 124.0072937 C-145.82421444 92.33511749 -147.08100145 60.90978019 -148.875 29.25 C-152.10414752 29.22082772 -155.33326083 29.20314337 -158.5625 29.1875 C-159.47451172 29.17912109 -160.38652344 29.17074219 -161.32617188 29.16210938 C-162.65551758 29.15727539 -162.65551758 29.15727539 -164.01171875 29.15234375 C-164.82342529 29.14710693 -165.63513184 29.14187012 -166.47143555 29.13647461 C-169.02628886 29.25714569 -171.37593508 29.72114719 -173.875 30.25 C-178.37255183 30.49427125 -182.87146086 30.48101775 -187.375 30.5 C-189.20998047 30.5309375 -189.20998047 30.5309375 -191.08203125 30.5625 C-192.85126953 30.57023437 -192.85126953 30.57023437 -194.65625 30.578125 C-195.72939453 30.5874707 -196.80253906 30.59681641 -197.90820312 30.60644531 C-201.31254457 30.19743128 -203.13994976 29.28874706 -205.875 27.25 C-208.99667804 22.56748294 -208.5778082 17.72755666 -207.875 12.25 C-205.70071483 7.43484486 -201.58372699 5.24624252 -196.875 3.25 C-193.83325195 2.94116211 -193.83325195 2.94116211 -190.61328125 3.02734375 C-188.82386108 3.0571936 -188.82386108 3.0571936 -186.99829102 3.08764648 C-185.74072998 3.12059814 -184.48316895 3.1535498 -183.1875 3.1875 C-173.57087533 3.33219667 -164.21871599 3.20555916 -154.68676758 1.87280273 C-151.77237067 1.47806322 -149.23188756 1.18449662 -146.32373047 1.71826172 C-141.53244397 2.45700036 -136.81388056 2.41230012 -131.97265625 2.41796875 C-130.88864029 2.42202225 -129.80462433 2.42607574 -128.6877594 2.43025208 C-125.10431035 2.43980101 -121.52096022 2.43962707 -117.9375 2.4375 C-116.07517731 2.43858765 -116.07517731 2.43858765 -114.17523193 2.43969727 C-95.9273772 2.43853229 -77.73044411 2.018385 -59.5 1.25 C-39.65957005 0.41887488 -19.85553349 0.02747868 0 0 Z "
     fill="#C71D31"
     transform="translate(719.875,226.75)"
     id="path5" />
  <path
     d="M0 0 C3.02696333 4.68691097 3.4178225 9.26879279 2.45825195 14.72509766 C1.50035364 20.74912388 1.4501138 26.84869814 1.25 32.9375 C1.22626312 33.64742096 1.20252625 34.35734192 1.17807007 35.08877563 C0.77827267 47.85554346 1.35298091 60.31570763 2.9375 73 C3.13859375 74.83111328 3.13859375 74.83111328 3.34375 76.69921875 C4.14310327 82.94800922 5.71192391 88.75068752 7.5625 94.75 C11.38813143 107.37611231 11.38813143 107.37611231 9.9375 112 C6.84996325 117.21860832 2.83988817 122.56472801 -3.02734375 124.72265625 C-4.00380859 124.89087891 -4.00380859 124.89087891 -5 125.0625 C-5.64839844 125.19785156 -6.29679688 125.33320313 -6.96484375 125.47265625 C-9.88993359 124.81355779 -11.21881214 123.07762436 -12.98950195 120.75073242 C-14.7016647 117.95712172 -15.17625491 115.34925236 -15.6875 112.125 C-15.85451416 111.073125 -15.85451416 111.073125 -16.02490234 110 C-19.58101515 85.95532097 -21.35669628 61.28753758 -21.0625 37 C-21.68382812 37.77988281 -22.30515625 38.55976562 -22.9453125 39.36328125 C-24.25216443 40.99081824 -25.57911605 42.60271873 -26.9375 44.1875 C-28.78727814 46.63573577 -30.32093677 49.04930248 -31.875 51.6875 C-35.56897698 57.9532331 -39.60872336 63.96886416 -44.1875 69.625 C-45.79775113 71.66465143 -47.09973036 73.65667313 -48.4375 75.875 C-54.45784884 85.69767442 -54.45784884 85.69767442 -59.0625 88 C-63.17748317 88.39567146 -65.53704089 88.26788111 -69.25 86.375 C-72.32831016 83.77553809 -73.96210466 81.43701055 -76.0625 78 C-77.15913169 76.43220243 -78.26410412 74.87022289 -79.375 73.3125 C-81.88381245 69.74987934 -84.2578919 66.13523075 -86.5625 62.4375 C-89.30286928 58.07754168 -92.27524298 54.02929296 -95.4921875 50.01171875 C-96.8898762 48.22114741 -98.14970144 46.41055812 -99.375 44.5 C-100.82136988 41.91592301 -100.82136988 41.91592301 -103.0625 41 C-102.88976562 41.97710937 -102.71703125 42.95421875 -102.5390625 43.9609375 C-101.93029585 48.23521076 -102.13408699 52.33170595 -102.4375 56.625 C-102.48132813 57.36234375 -102.52515625 58.0996875 -102.5703125 58.859375 C-102.75098771 61.65984076 -102.93258317 64.40535212 -103.5324707 67.15112305 C-104.29650575 71.25776746 -104.56581061 75.38179097 -104.89453125 79.54296875 C-105.05456091 81.44082094 -105.21539395 83.33860553 -105.37695312 85.23632812 C-105.62780023 88.20660254 -105.87417161 91.17691243 -106.10668945 94.14868164 C-106.33406006 97.03151049 -106.58145562 99.91207556 -106.83203125 102.79296875 C-106.89574417 103.66624313 -106.95945709 104.53951752 -107.02510071 105.43925476 C-107.59142145 111.68293815 -108.99388437 117.47787404 -112.0625 123 C-115.81706567 125.50304378 -117.60995934 125.45280074 -122.0625 125 C-127.59266607 122.12431364 -131.9140857 118.40870244 -133.921875 112.44921875 C-135.1456592 107.05412132 -135.31995545 103.44545215 -132.98828125 98.2890625 C-125.58308415 79.97916588 -125.78644232 56.97173976 -125.6875 37.5 C-125.67973541 36.79812561 -125.67197083 36.09625122 -125.66397095 35.37310791 C-125.59874847 27.9281319 -125.80615855 21.08099803 -128.42553711 14.02099609 C-129.46103477 10.7355037 -129.03606836 8.24522786 -128.0625 5 C-125.55310648 1.68401571 -123.05800412 0.08968294 -119.0625 -1 C-112.39047499 -1.43045323 -106.77003289 -0.80502193 -101.0625 3 C-100.1299366 4.89843264 -99.200833 6.79871866 -98.296875 8.7109375 C-95.5411769 13.82118778 -91.5781332 18.18124016 -87.875 22.625 C-86.0625 25 -86.0625 25 -84.3125 28.1875 C-81.509113 33.24673748 -77.71814186 37.54303084 -74.0625 42 C-72.01240188 44.58862028 -69.96608348 47.18016476 -67.921875 49.7734375 C-66.06762036 51.99386848 -64.20812155 54.05830116 -62.0625 56 C-61.4025 56 -60.7425 56 -60.0625 56 C-58.90051333 54.48386608 -58.90051333 54.48386608 -57.8125 52.484375 C-57.37389648 51.73357666 -56.93529297 50.98277832 -56.48339844 50.20922852 C-56.01450195 49.39768311 -55.54560547 48.5861377 -55.0625 47.75 C-50.96412066 40.82737348 -46.63736589 34.79346826 -41.33984375 28.734375 C-38.42065729 25.22934837 -36.09277565 21.48734976 -33.71875 17.6015625 C-31.56748528 14.2224533 -29.1311347 11.13139969 -26.62890625 8.0078125 C-25.24895165 6.23899289 -24.01430904 4.45432107 -22.8125 2.5625 C-20.89376077 -0.24708244 -19.24503639 -1.6058212 -16 -2.6875 C-10.17429218 -3.30725615 -4.99160506 -3.25982371 0 0 Z "
     fill="#C71D31"
     transform="translate(673.0625,84)"
     id="path6" />
  <path
     d="M 4.7537461,-1.2509858 C 10.107557,-0.80483492 9.2299909,2.2588725 12.75,6.3125 c 3.08588,5.730919 4.808998,10.539293 3,17 -1.0625,2.4375 -1.0625,2.4375 -2,4 h -2 l -0.792969,1.820312 C 9.675772,31.446543 8.5019292,32.567083 6.4375,34.1875 c -2.3854317,1.950384 -4.0654592,3.60511 -6,6.0625 -6.1789408,7.800656 -16.506953,12.629928 -25.375,16.75 l -2.048828,0.970703 C -32.004464,60.3125 -32.004464,60.3125 -34.25,60.3125 l -1,3 c -1.96875,1.175781 -1.96875,1.175781 -4.5,2.3125 -5.104269,2.430954 -10.138083,5.050913 -14.5,8.6875 l -1,3 2.125,0.8125 c 7.619736,3.147282 16.071276,6.954335 22.375,12.3125 3.324858,2.493643 6.838735,3.509658 10.78125,4.75 3.079804,1.274402 5.129376,3.043111 7.71875,5.125 1.968657,0.92412 3.9714628,1.77851 6,2.5625 5.60167857,2.17922 5.60167857,2.17922 8.2109375,3.87109 5.0713585,2.8482 10.7669325,4.24723 16.3046875,5.96094 l 2.773437,0.88672 2.521973,0.7832 c 2.343009,1.00139 3.577956,1.98018 5.188965,3.93555 1.124393,3.04282 1.450769,5.78415 1,9 -3.331902,4.8116 -8.671871,7.00195 -14,9 L 12.375,138 c -5.4306451,1.96627 -9.8168823,2.39032 -15.28125,0.29297 -4.1048496,-1.9981 -7.697781,-4.24599 -11.34375,-6.98047 l -2.9375,-1.375 c -3.386068,-1.79669 -5.393729,-3.89114 -8.0625,-6.625 -1.255751,-0.91686 -2.527192,-1.81256 -3.8125,-2.6875 l -3.1875,-2.3125 v -2 l -2.195312,-0.32422 C -37.477445,115.2577 -39.495239,114.15935 -42.125,112.5 L -44.734375,110.87891 -47.25,109.3125 c -2.322014,-1.35451 -4.659693,-2.67722 -7,-4 v -2 l -2.207031,-0.79297 C -59.302361,101.28987 -61.457758,99.848535 -63.9375,98 -70.914059,93.010829 -78.428129,89.549783 -86.339844,86.304687 -88.485936,85.189948 -89.759646,84.221043 -91.25,82.3125 c -1.525911,-4.881181 -1.693773,-9.655647 0.6875,-14.25 3.141547,-4.389317 7.525902,-6.2252 12.375,-8.328125 3.056618,-1.479533 5.351782,-3.23701 7.9375,-5.421875 4.607143,-3 8,-6 8,-6 1.91069,-0.703939 3.823828,-1.402098 5.75,-2.0625 5.851761,-2.438234 10.529658,-7.158763 15.25,-11.289063 3.416312,-2.815788 7.039005,-5.347922 10.644531,-7.914062 2.390343,-1.669155 2.390343,-1.669155 4.355469,-3.734375 4.759051,-0.786605 6.152232,-4.343941 9.375,-7.375 2.313718,-2.227134 4.232093,-4.340284 5.9375,-7.0625 L -9.25,6.3125 h 2 l 0.875,-1.875 C -4.5929974,1.0714951 0.87970907,-0.87848226 4.7537461,-1.2509858 Z"
     fill="#c71d31"
     transform="translate(267.25,77.6875)"
     id="path7"
     sodipodi:nodetypes="ccccccccccccccccccccccccccccccccccccccccccccccccccccccccccc" />
  <path
     d="M0 0 C3.90089083 -0.00559149 7.80145115 -0.02993888 11.70223618 -0.05797195 C14.75293981 -0.07659717 17.80356103 -0.08180274 20.85431671 -0.08333588 C22.2943335 -0.08633735 23.73434974 -0.09427974 25.17430878 -0.10752106 C41.13407622 -0.24445854 41.13407622 -0.24445854 46.74267578 4.99023438 C48.33653619 8.17795519 48.74671931 10.67201852 48.86767578 14.24023438 C47.12327493 19.47343692 44.73893089 25.77862261 39.6015625 28.39379883 C36.58689155 29.32716766 34.15291102 29.48353422 31.00048828 29.47070312 C29.29892578 29.46780273 29.29892578 29.46780273 27.56298828 29.46484375 C26.38478516 29.45259766 25.20658203 29.44035156 23.99267578 29.42773438 C22.85314453 29.42708984 21.71361328 29.42644531 20.53955078 29.42578125 C14.71708043 29.39634179 8.95149446 29.1981069 3.14697266 28.73803711 C-6.16922796 28.10028546 -15.46183593 28.09526604 -24.79638672 28.10742188 C-26.64627088 28.10674643 -28.49615496 28.1057744 -30.34603882 28.10452271 C-34.19001119 28.10306075 -38.03396008 28.1051539 -41.87792969 28.10986328 C-46.79934842 28.11560016 -51.72071308 28.11224724 -56.6421299 28.10629082 C-60.44766651 28.10267869 -64.25319027 28.10382611 -68.05872726 28.10641861 C-69.87438336 28.10708399 -71.69004063 28.10627308 -73.50569534 28.10393906 C-76.0344275 28.10139743 -78.5630713 28.10527264 -81.09179688 28.11083984 C-82.20767685 28.1078035 -82.20767685 28.1078035 -83.34609985 28.10470581 C-87.07810735 28.11991367 -90.49768557 28.4049253 -94.13232422 29.24023438 C-96.3969905 29.38641477 -98.66479404 29.48703236 -100.93310547 29.55664062 C-101.92494843 29.58828812 -101.92494843 29.58828812 -102.93682861 29.62057495 C-109.75673177 29.83058416 -116.57838073 29.98539092 -123.39990234 30.13183594 C-126.50597787 30.19963676 -129.61102529 30.28241577 -132.71630859 30.37988281 C-136.35330111 30.49342999 -139.98976539 30.57605958 -143.62802124 30.63619995 C-145.64794786 30.67679235 -147.66720191 30.74734487 -149.6862793 30.81860352 C-157.74417939 30.9101052 -163.19907722 29.94886854 -169.13232422 24.24023438 C-171.83319577 20.92513864 -173.19862329 18.54302209 -173.07373047 14.20507812 C-172.66059669 11.99459945 -172.13717509 10.2565939 -171.13232422 8.24023438 C-164.85908506 5.07502698 -159.35965807 4.8469142 -152.42919922 4.98242188 C-150.92888153 4.99234665 -150.92888153 4.99234665 -149.39825439 5.00247192 C-146.22595411 5.02573525 -143.0543722 5.06943733 -139.88232422 5.11523438 C-136.69608266 5.15034845 -133.5098807 5.18112095 -130.32354736 5.20657349 C-128.34687886 5.22349558 -126.37025124 5.24659219 -124.39373779 5.27658081 C-123.05149139 5.29121872 -123.05149139 5.29121872 -121.68212891 5.30615234 C-120.50586945 5.32305618 -120.50586945 5.32305618 -119.30584717 5.34030151 C-117.11354615 5.23936985 -115.24201892 4.82172293 -113.13232422 4.24023438 C-111.6966374 4.09853591 -110.25680359 3.99540831 -108.81591797 3.92382812 C-107.56029053 3.86110718 -107.56029053 3.86110718 -106.27929688 3.79711914 C-105.3851709 3.75772217 -104.49104492 3.7183252 -103.56982422 3.67773438 C-102.63960449 3.63382568 -101.70938477 3.58991699 -100.75097656 3.54467773 C-94.57829982 3.27732413 -88.43411613 3.227818 -82.25732422 3.30273438 C-76.77251023 3.35972236 -71.5697402 3.14497649 -66.13232422 2.30273438 C-59.54283146 1.29881937 -53.02561543 0.92141113 -46.36669922 0.68945312 C-45.20265564 0.64810242 -44.03861206 0.60675171 -42.83929443 0.56414795 C-28.56222501 0.10117222 -14.28356378 0.01746374 0 0 Z "
     fill="#C71D31"
     transform="translate(277.13232421875,226.759765625)"
     id="path8" />
  <path
     d="M0 0 C5.51699128 2.89314421 9.68940379 7.45896776 13.87060547 11.98095703 C14.82580078 12.91294922 14.82580078 12.91294922 15.80029297 13.86376953 C25.10882004 23.45016308 24.94814686 37.0540042 24.83935547 49.57861328 C24.4277016 58.37771464 22.32141528 65.04356272 16.87060547 71.98095703 C16.60248047 72.76470703 16.33435547 73.54845703 16.05810547 74.35595703 C11.8275117 83.70779589 1.08736878 87.43692132 -7.84033203 91.09033203 C-18.25714238 94.66373623 -32.2437042 94.31617195 -42.41064453 90.01611328 C-44.4663984 88.80468689 -46.27169404 87.47786445 -48.12939453 85.98095703 C-48.85642578 85.43697266 -49.58345703 84.89298828 -50.33251953 84.33251953 C-57.03613396 78.92858545 -60.94516603 72.37435626 -65.12939453 64.98095703 C-65.69142578 64.22943359 -66.25345703 63.47791016 -66.83251953 62.70361328 C-68.80370739 58.56530623 -68.57404172 54.63180934 -68.50439453 50.10595703 C-68.49134277 48.71171509 -68.49134277 48.71171509 -68.47802734 47.28930664 C-68.25691334 36.76373656 -67.51698003 26.70223667 -61.12939453 17.98095703 C-60.64599609 17.30291016 -60.16259766 16.62486328 -59.66455078 15.92626953 C-54.54201729 9.59443768 -48.16583275 5.92525804 -41.12939453 1.98095703 C-40.14583984 1.37509766 -39.16228516 0.76923828 -38.14892578 0.14501953 C-26.14208131 -6.75770077 -12.41291534 -5.35109553 0 0 Z M-32.12939453 17.98095703 C-32.97501953 18.49658203 -33.82064453 19.01220703 -34.69189453 19.54345703 C-41.59218039 26.44374289 -45.00548624 37.34708716 -45.12939453 46.98095703 C-44.32375283 54.29886919 -42.75818143 61.35217013 -37.44189453 66.66845703 C-31.80588999 70.88502339 -25.35835905 74.50765754 -18.12939453 73.98095703 C-13.03675183 72.79553331 -8.53600182 71.12785413 -5.31689453 66.85595703 C-4.55894037 65.58096986 -3.83156504 64.28749573 -3.12939453 62.98095703 C-2.66533203 62.23716797 -2.20126953 61.49337891 -1.72314453 60.72705078 C2.72569214 53.02809176 3.01066964 46.21433672 1.13623047 37.60986328 C-1.30861915 28.94267098 -4.36275649 21.09058732 -12.12939453 15.98095703 C-18.84095655 13.74376969 -26.18380478 14.01723053 -32.12939453 17.98095703 Z "
     fill="#C71D31"
     transform="translate(200.12939453125,276.01904296875)"
     id="path9" />
  <path
     d="M0 0 C0.85142578 -0.01546875 1.70285156 -0.0309375 2.58007812 -0.046875 C10.48188114 0.00127003 17.44568492 2.27261841 23.25 7.8125 C23.89582031 8.41578125 24.54164063 9.0190625 25.20703125 9.640625 C25.86058594 10.25421875 26.51414062 10.8678125 27.1875 11.5 C28.60227359 12.68975476 30.01891778 13.87728898 31.4375 15.0625 C38.17258956 21.01995691 41.62964311 28.05476058 42.40625 37.02734375 C42.4403863 39.8649237 42.33629063 42.66589269 42.1875 45.5 C42.10628906 47.4490625 42.10628906 47.4490625 42.0234375 49.4375 C41.463213 61.40720899 40.36782522 69.68503348 33.1875 79.5 C32.506875 80.5725 31.82625 81.645 31.125 82.75 C25.62536158 90.55593841 19.66610419 93.49926425 10.40234375 95.19140625 C-4.59625255 97.38296542 -18.05785859 98.17560192 -30.85546875 89.03125 C-33.41890241 87.02552945 -35.62747551 84.91502707 -37.8125 82.5 C-38.39 81.8915625 -38.9675 81.283125 -39.5625 80.65625 C-48.02201024 71.49178057 -48.99263754 62.88333357 -49 50.75 C-49.01224609 49.70328125 -49.02449219 48.6565625 -49.03710938 47.578125 C-49.0629976 33.77107107 -45.58072082 24.35722511 -35.8125 14.5 C-30.45149345 9.43274723 -25.76009437 6.71205165 -18.48828125 5.30078125 C-15.6403822 4.61759902 -15.6403822 4.61759902 -13.09375 2.44921875 C-8.63548274 -0.1992043 -5.08700607 -0.0911786 0 0 Z M-20.8125 26.5 C-22.92040966 29.13201483 -22.92040966 29.13201483 -23.8125 32.5 C-24.08578125 33.29277344 -24.3590625 34.08554687 -24.640625 34.90234375 C-28.14940548 46.01879827 -27.99420259 56.30903616 -22.67578125 66.7265625 C-19.42315214 72.36992531 -16.22533741 74.90655183 -9.9375 76.6875 C-5.0466369 77.7723155 -0.77359946 78.13948895 4.0625 76.5625 C9.62948316 72.88829111 14.48657873 68.0513819 18.1875 62.5 C20.03029337 52.91747448 21.35251767 41.10836278 16.1875 32.5 C15.54941406 31.37658203 15.54941406 31.37658203 14.8984375 30.23046875 C11.66374451 24.87679239 9.01396729 21.87008839 3.1875 19.5 C-6.33830791 17.30299783 -13.08011736 20.89975777 -20.8125 26.5 Z "
     fill="#C71D31"
     transform="translate(279.8125,271.5)"
     id="path10" />
  <path
     d="M0 0 C4.39046647 6.19654666 4.51941513 12.87425575 4.3125 20.1875 C4.28820923 21.91444092 4.28820923 21.91444092 4.26342773 23.67626953 C4.22090995 26.43011366 4.16959953 29.18266152 4.10742188 31.93603516 C3.99920902 36.82303149 3.92336772 41.71029266 3.8495636 46.59791565 C3.75974931 52.52370812 3.66205614 58.449364 3.5625 64.375 C3.54321442 65.5238266 3.52392883 66.6726532 3.50405884 67.85629272 C3.29943877 79.64142185 3.03797409 91.41947458 2.515625 103.1953125 C2.47695816 104.07923676 2.43829132 104.96316101 2.39845276 105.87387085 C1.45118198 125.72288135 1.45118198 125.72288135 -4 132 C-4.43957031 132.55300781 -4.87914062 133.10601562 -5.33203125 133.67578125 C-7 135 -7 135 -9.234375 135.06640625 C-15.44505705 133.82234106 -20.04502067 132.12723082 -24 127 C-27.31344182 120.90051541 -27.15247062 115.64804811 -26 109 C-24.87370215 101.56299512 -24.66986247 94.13678356 -24.4375 86.625 C-24.39431641 85.36171875 -24.35113281 84.0984375 -24.30664062 82.796875 C-23.9905911 73.14482295 -23.8201862 63.5770924 -24.4375 53.9375 C-24.53012185 52.46745887 -24.62256431 50.99740642 -24.71484375 49.52734375 C-24.76237793 48.78339355 -24.80991211 48.03944336 -24.85888672 47.27294922 C-25.00023511 44.99621308 -25.12918766 42.71911003 -25.25390625 40.44140625 C-25.70812511 31.7356747 -25.70812511 31.7356747 -26.5625 23.0625 C-27.42662773 15.8567897 -27.77877522 8.80799929 -25 2 C-19.12109591 -4.55723917 -7.12081587 -4.30571019 0 0 Z "
     fill="#C71D31"
     transform="translate(165,86)"
     id="path11" />
  <path
     d="M0 0 C1.30056084 -0.0024321 1.30056084 -0.0024321 2.62739563 -0.00491333 C24.72509247 0.11962372 24.72509247 0.11962372 31.7421875 7.13671875 C32.33924507 14.30140959 30.68807731 18.61928604 26.4921875 24.44921875 C23.07600505 27.78776069 21.4462074 27.83481761 16.7421875 28.13671875 C14.26981692 27.75068405 11.81159093 27.26766612 9.37109375 26.71484375 C-1.05832008 24.61931378 -11.43689742 24.75376166 -22.03588867 24.85546875 C-25.34630532 24.88696606 -28.65624424 24.89648998 -31.96679688 24.90234375 C-34.09635994 24.91150398 -36.22591822 24.9218766 -38.35546875 24.93359375 C-39.33266373 24.93784363 -40.3098587 24.94209351 -41.31666565 24.94647217 C-46.71925941 25.00255354 -51.90966665 25.37127023 -57.2578125 26.13671875 C-60.47508848 26.40733075 -63.6932121 26.63224149 -66.9140625 26.85546875 C-69.2398753 27.05109786 -71.56012816 27.32115481 -73.87109375 27.6484375 C-79.5457082 28.37525549 -85.23157798 28.39912756 -90.9453125 28.44921875 C-92.6169043 28.49272461 -92.6169043 28.49272461 -94.32226562 28.53710938 C-102.47249956 28.60059232 -102.47249956 28.60059232 -106.4453125 26.25390625 C-110.22581895 21.83788363 -110.49646403 17.84058064 -110.62109375 12.22265625 C-110.16250219 9.58945311 -109.35088394 8.75431494 -107.2578125 7.13671875 C-104.23389085 6.12874487 -102.05008875 5.96943541 -98.8828125 5.890625 C-97.81417969 5.85775391 -96.74554687 5.82488281 -95.64453125 5.79101562 C-93.41804951 5.73066693 -91.19148494 5.67328789 -88.96484375 5.61914062 C-87.88589844 5.58498047 -86.80695312 5.55082031 -85.6953125 5.515625 C-84.72464844 5.49056885 -83.75398437 5.4655127 -82.75390625 5.43969727 C-79.79314884 5.18311207 -77.04907871 4.73630466 -74.13989258 4.16625977 C-68.0070176 3.00914477 -61.93303461 2.59839168 -55.70703125 2.28515625 C-54.53179398 2.22139801 -53.3565567 2.15763977 -52.14570618 2.09194946 C-49.66754928 1.95924802 -47.18920413 1.83002082 -44.71069336 1.70410156 C-40.99339628 1.51417547 -37.27702709 1.31069285 -33.56054688 1.10546875 C-22.37417625 0.50656452 -11.20406861 0.01547548 0 0 Z "
     fill="#C71D31"
     transform="translate(727.2578125,349.86328125)"
     id="path12" />
  <path
     d="M0 0 C1.05622559 -0.02151123 2.11245117 -0.04302246 3.20068359 -0.06518555 C12.65062894 -0.10533683 12.65062894 -0.10533683 16.5625 3.25 C19.03228187 6.21373825 19.55317242 7.74631069 19.625 11.625 C18.30310778 16.13498521 16.1875712 19.24467165 12.5625 22.25 C8.92700872 23.70419651 5.03930278 23.31728432 1.1875 23.25 C-5.80083248 23.19619038 -12.7673934 23.33720581 -19.75 23.625 C-20.63155762 23.6559375 -21.51311523 23.686875 -22.42138672 23.71875 C-27.09506145 23.92704748 -31.56026122 24.41105343 -36.16015625 25.2734375 C-43.29784339 26.53319823 -50.33125427 26.54351803 -57.5625 26.5 C-58.85542969 26.50773437 -60.14835938 26.51546875 -61.48046875 26.5234375 C-80.08425109 26.48558647 -80.08425109 26.48558647 -84.9375 21.875 C-85.68 20.575625 -85.68 20.575625 -86.4375 19.25 C-86.85 18.610625 -87.2625 17.97125 -87.6875 17.3125 C-88.7379612 14.42373171 -88.81872792 12.29982336 -88.4375 9.25 C-86.9375 6.9375 -86.9375 6.9375 -84.4375 5.25 C-77.09407246 3.87420272 -69.75418161 4.2590611 -62.3125 4.375 C-50.19296602 4.5037499 -38.54568461 3.54303131 -26.57617188 1.59179688 C-17.76890507 0.18424282 -8.89994686 0.10725206 0 0 Z "
     fill="#C71D31"
     transform="translate(716.4375,270.75)"
     id="path13" />
  <path
     d="M0 0 C2.78534836 2.78534836 3.18986421 4.47206354 3.3125 8.3125 C3.25992816 11.58772538 3.04321434 12.92048562 1.4375 15.875 C-5.75400833 22.14452008 -13.21039632 21.30552846 -22.3125 21.0625 C-32.11473877 20.66925274 -32.11473877 20.66925274 -41.77734375 21.98046875 C-48.68529601 23.59661788 -55.75085702 23.29770813 -62.80566406 23.26074219 C-65.25871142 23.24996172 -67.71103649 23.26071738 -70.1640625 23.2734375 C-71.73958493 23.27211679 -73.31510692 23.26955624 -74.890625 23.265625 C-75.6157428 23.26967346 -76.3408606 23.27372192 -77.08795166 23.27789307 C-81.42796434 23.23812539 -85.00910956 22.73356609 -89 21 C-91.95314386 17.73599889 -93.253401 15.15883731 -93.4375 10.8125 C-93 7 -93 7 -91.8359375 5.3359375 C-86.3333682 1.33194026 -77.34457473 1.90509225 -70.8125 2.125 C-57.99029512 2.35655223 -44.64938465 -0.13251502 -32.20703125 -3.1171875 C-22.2410221 -5.41085268 -8.73679288 -5.82452859 0 0 Z "
     fill="#C71D31"
     transform="translate(728,312)"
     id="path14" />
  <path
     d="M0 0 C2.55147732 2.47174365 3.38771997 4.55373809 4 8 C3.90947485 10.33613292 3.75276274 12.6698687 3.5625 15 C2.98875164 23.10442329 2.8830459 31.18936175 2.875 39.3125 C2.87056885 40.47974609 2.8661377 41.64699219 2.86157227 42.84960938 C2.872217 49.39195359 3.16377918 55.83127148 3.76416016 62.34545898 C4.06213093 65.69932675 4.20290772 69.00790167 4.25 72.375 C4.27578125 73.49648437 4.3015625 74.61796875 4.328125 75.7734375 C3.95132121 79.47867477 2.94418414 81.83954901 1 85 C-3.48099137 87.5605665 -7.14567837 87.01778709 -11.9453125 85.7734375 C-15.4926604 84.43812403 -17.34007513 82.31984974 -19 79 C-19.01650369 76.95539731 -18.96370138 74.91009776 -18.87890625 72.8671875 C-18.83040527 71.59762207 -18.7819043 70.32805664 -18.73193359 69.02001953 C-18.70411804 68.34408752 -18.67630249 67.66815552 -18.64764404 66.97174072 C-18.50401696 63.43480796 -18.38188993 59.89717238 -18.26171875 56.359375 C-18.23752869 55.64770172 -18.21333862 54.93602844 -18.18841553 54.20278931 C-17.98018935 47.84369303 -17.88022173 41.48767752 -17.875 35.125 C-17.87419434 34.15812256 -17.87338867 33.19124512 -17.87255859 32.19506836 C-17.90872008 24.94344404 -18.35493044 17.77327343 -19.07421875 10.55859375 C-18.98223966 6.1484385 -18.09276312 3.86612959 -16 0 C-10.2273878 -3.92537629 -5.88086153 -3.08157144 0 0 Z "
     fill="#C71D31"
     transform="translate(721,122)"
     id="path15" />
  <path
     d="M0 0 C3.87459453 2.65903546 5.86270353 5.45081412 7 10 C7.58765009 14.87297536 7.51168201 18.06191631 5.125 22.4375 C1.38726547 26.94476811 1.38726547 26.94476811 -1.35546875 27.3359375 C-7.82403818 27.42515915 -11.86099379 27.06837991 -17 23 C-20.11352638 18.58080127 -20.75485405 14.29417911 -20 9 C-19.12173926 5.74788956 -18.18224808 2.80890658 -15.29296875 0.83203125 C-10.40209456 -0.94268119 -5.10170996 -0.63447662 0 0 Z "
     fill="#C71D31"
     transform="translate(720,85)"
     id="path16" />
  <path
     d="m 0,0 c 5.1285045,0.36176614 10.199272,0.47642028 15.335938,0.41796875 l 2.092681,-0.0236054 c 2.808569,-0.0364353 5.616755,-0.0785003 8.424897,-0.13996887 12.039901,-0.24735715 25.767476,-0.30800631 35.255859,8.17138682 7.333847,7.6710357 12.069385,14.0381237 12.25,24.7499997 -0.0914,4.057022 -0.430084,8.031129 -0.875,12.0625 -0.431053,4.570347 -0.143722,8.591353 0.5625,13.125 0.982513,6.412886 1.259559,12.638673 1.25,19.125 l 0.0017,2.704834 c -0.02907,3.53151 -0.08989,6.765309 -0.825928,10.22876 -0.356214,2.945474 -0.113271,4.29924 0.604004,7.100342 1.605237,7.714673 1.258577,15.526513 1.192871,23.364503 -0.0066,1.72722 -0.01215,3.45445 -0.01672,5.18169 -0.01121,3.66971 -0.02799,7.33934 -0.04941,11.00901 -0.05561,9.66422 -0.07526,19.32854 -0.09403,28.99289 l -0.0066,2.92376 c -0.03539,17.17256 0.194294,34.32565 0.569059,51.49421 0.507703,23.8445 0.208415,47.61807 -0.374222,71.45813 -0.210772,8.8477 -0.30515,17.6918 -0.313278,26.54187 l -0.01343,3.59888 c 0.01018,6.0045 0.271862,11.90238 0.905762,17.87451 1.460784,15.47082 1.623668,36.853 -6.767334,50.46411 -6.48461,7.77211 -18.958418,10.93422 -28.611328,11.92578 -2.305123,0.15367 -4.612082,0.28145 -6.919922,0.38672 l -3.872437,0.21631 c -15.034177,0.78113 -30.09195853,0.62595 -45.140228,0.50781 -8.486544,-0.0658 -16.973215,-0.0888 -25.459991,-0.0991 l -2.526476,-0.003 c -13.989621,-0.0101 -27.935251,0.3283 -41.907118,1.06583 -13.14309,0.69157 -26.212229,1.14709 -39.375009,1.0625 -14.84032,-0.0953 -29.66232,0.0635 -44.49999,0.375 l -3.19968,0.0661 c -12.71451,0.26753 -25.42742,0.55336 -38.12576,1.27933 -4.20053,0.21666 -8.19708,0.18719 -12.3816,-0.26343 -4.83337,-0.5017 -9.58517,-0.58505 -14.4375,-0.54687 l -2.29321,0.0168 c -3.13913,0.0274 -6.27806,0.0619 -9.41699,0.10651 -16.04771,0.21241 -32.72183,0.39814 -45.83276,-10.09595 -10.11392,-15.17087 -7.12282,-39.01341 -6.96387,-56.43799 l 0.0264,-3.95263 0.0351,-3.56348 c -0.0834,-2.60038 -0.44707,-4.56301 -1.09765,-7.0459 -0.0686,-1.71229 -0.0848,-3.4271 -0.0625,-5.14062 l 0.0234,-2.9961 c 0.0258,-2.0599 0.0519,-4.11979 0.0781,-6.17969 l 0.0234,-3.01171 0.0351,-2.71582 c -0.0531,-3.09387 -0.0531,-3.09387 -0.59567,-6.68345 -0.49591,-3.87837 -0.62884,-7.67675 -0.63138,-11.59048 l -0.005,-2.09211 c -0.004,-2.28784 -10e-4,-4.57561 0.002,-6.86346 -10e-4,-1.64887 -0.002,-3.29775 -0.004,-4.94662 -0.003,-4.45719 0.002,-8.91435 0.008,-13.37154 0.004,-2.78575 0.006,-5.5715 0.007,-8.35725 0.0192,-28.03411 0.19903,-56.06568 0.52747,-84.09785 0.0313,-2.69802 0.0611,-5.39606 0.0906,-8.09411 0.0471,-4.24331 0.0994,-8.48653 0.15605,-12.72972 0.0202,-1.55158 0.039,-3.10317 0.0563,-4.65478 0.0822,-7.22851 0.2749,-14.31017 1.2909,-21.47469 0.14078,-2.73159 0.25188,-5.44689 0.3164,-8.17969 l 0.0627,-2.30934 c 0.0652,-2.4619 0.12431,-4.92391 0.1834,-7.38597 0.045,-1.70972 0.0901,-3.419435 0.13525,-5.129149 0.24769,-9.819724 0.29932,-19.611 0.17725,-29.43335 -0.0899,-9.282437 0.69784,-17.591561 3.125,-26.5625 0.37535,-1.583248 0.75042,-3.166566 1.125,-4.75 0.56545,-2.100276 1.18718,-4.186553 1.875,-6.25 0.10188,-2.436795 0.18247,-4.87451 0.25,-7.3125 0.39359,-8.224554 0.39359,-8.224554 3.0625,-11.375 l 2.6875,-2.3124998 1.75,-2.1875001 c 7.96785,-6.41855118 19.2542,-5.9175735 28.91796,-5.8125 12.36408,0.065178 24.71026,-0.134998 37.07032,-0.4374999 l 2.76162,-0.066864 c 6.60432,-0.1605561 13.20846,-0.32760197 19.8126,-0.49563599 7.53767,-0.19113516 15.0754,-0.37939694 22.61328,-0.5625 l 2.72146,-0.0665417 c 11.22574,-0.27134192 22.44408,-0.47982241 33.674,-0.38353157 6.10105,0.0512553 12.10697,-0.26354913 18.19438,-0.69836424 C -81.090234,-4.0343952 -40.244719,-3.0367384 0,0 Z m -164.06348,38.961913 c -3.97348,0.651953 -7.79676,0.393733 -11.80761,0.202148 -1.80967,-0.07145 -3.61941,-0.141212 -5.4292,-0.209472 l -2.85981,-0.10968 c -15.80778,-0.577636 -30.49341,-0.404949 -46.07037,2.600402 -6.72116,1.281385 -13.42734,1.510048 -20.25732,1.563965 -4.29024,-0.063 -4.29024,-0.063 -8.08863,1.627198 -3.01121,4.099799 -2.52475,9.44957 -2.66577,14.351806 l -0.0713,2.228302 c -0.0735,2.402933 -0.13872,4.80598 -0.20217,7.209198 l -0.0701,2.502381 c -0.32364,11.927679 -0.32789,23.770498 0.37622,35.689029 0.3317,6.38311 0.27545,12.65219 -0.0164,19.034 -0.84762,18.72756 -0.81245,37.44847 -0.79909,56.19119 0.003,4.76979 1.7e-4,9.53958 -10e-4,14.30937 -0.002,7.99345 5.4e-4,15.98688 0.005,23.98033 0.005,9.18477 0.004,18.36951 -0.002,27.55428 -0.005,7.95833 -0.005,15.91665 -0.003,23.87498 0.002,4.72194 0.002,9.44388 -0.002,14.16582 -0.0924,25.07812 -0.0924,25.07812 0.91268,50.12948 0.28892,4.61144 0.34212,9.20082 0.28612,13.81914 l -0.0137,2.32813 c -0.0113,1.80733 -2.54741,9.99995 3.82157,12.12295 9.65167,2.05552 17.20051,-1.64099 24.57884,-1.76358 3.68348,-0.006 7.31323,0.2613 10.98415,0.55832 7.07253,0.51623 14.09463,0.64578 21.18358,0.63358 l 3.88434,0.005 c 3.47375,0.005 6.94748,0.003 10.42123,-3.8e-4 3.67407,-0.003 7.34813,-1.8e-4 11.0222,10e-4 6.17542,0.002 12.35082,-5.5e-4 18.52623,-0.005 7.07532,-0.005 14.15061,-0.004 21.22592,0.002 6.12968,0.005 12.25935,0.005 18.38904,0.003 3.63626,-0.002 7.27251,-0.002 10.90877,0.002 15.044629,0.0121 30.042817,-0.15347 45.070617,-0.90272 6.535936,-0.32425 13.066898,-0.41944 19.610489,-0.47967 2.586592,-0.0329 5.173181,-0.0661 7.759766,-0.0996 3.934791,-0.0471 7.869567,-0.0917 11.804443,-0.13111 13.8145382,-0.14389 27.5835121,-0.4218 41.365479,-1.43335 l 3.272293,-0.2313 3.025314,-0.2455 2.629563,-0.21132 c 2.732797,-0.44494 4.974952,-1.20038 7.467361,-2.40172 1.250337,-2.83584 1.128642,-5.74492 1.132812,-8.81641 l 0.0056,-2.80004 -0.01343,-2.94605 -0.0037,-3.0105 c -0.03034,-5.68536 -0.180653,-11.27932 -1.000244,-16.91528 -0.121094,-2.51172 -0.121094,-2.51172 0.34375,-6.27344 0.876791,-7.21255 0.683539,-14.48465 0.660156,-21.73828 l -0.0017,-2.31042 c -0.007,-8.16099 -0.0404,-16.29922 -0.685822,-24.43958 -0.550069,-7.24132 -0.255461,-14.33113 0.243896,-21.56543 0.301367,-4.83092 0.268552,-9.46189 -0.150146,-14.28613 -0.894262,-11.00648 -0.598574,-22.05197 -0.53125,-33.08594 0.02657,-4.43099 0.04652,-8.86193 0.0625,-13.29297 l 0.02515,-3.06791 0.01001,-2.83516 0.01587,-2.48967 c -0.02937,-2.31633 -0.02937,-2.31633 -1.113525,-5.12679 -0.144267,-2.89666 -0.234457,-5.77288 -0.28125,-8.67139 l -0.05469,-2.68678 c -0.03863,-1.92826 -0.07507,-3.85656 -0.109619,-5.78489 -0.0549,-3.06196 -0.115464,-6.12376 -0.17749,-9.18558 -0.130881,-6.51536 -0.25413,-13.03085 -0.376953,-19.54636 C 33.966803,119.0322 33.821057,111.5137 33.669678,103.9953 33.610629,100.99725 33.556149,97.999145 33.501953,95.001007 33.334695,86.298249 33.108262,77.646345 32.334579,68.973068 32.120786,66.554853 31.975297,64.143573 31.863281,61.71875 l -0.09961,-2.087891 C 31.701595,58.266485 31.644436,56.90188 31.591797,55.537109 31.345142,50.608668 30.425541,46.184227 29.109375,41.425781 18.662836,38.046019 7.8110047,39.178893 -2.9882813,40.304687 c -2.9023437,0.121094 -2.9023437,0.121094 -5.66333,-0.367431 -3.3881447,-0.535024 -6.5373047,-0.608589 -9.9655757,-0.573975 l -3.878907,0.02344 c -1.339849,0.0124 -2.679693,0.02542 -4.019531,0.03906 -14.625743,0.144666 -14.625743,0.144666 -21.214844,-0.5 -8.797677,-0.838999 -17.630678,-0.556194 -26.457763,-0.479492 -8.488372,0.06705 -16.827807,-0.03835 -25.290528,-0.789062 -7.29175,-0.494639 -14.60664,-0.379599 -21.91187,-0.356446 l -2.53048,0.0037 c -20.2374,-0.712057 -20.2374,-0.712057 -40.14237,1.65744 z"
     fill="#c71d31"
     transform="translate(326.89062,26.574219)"
     id="path2"
     sodipodi:nodetypes="ccccccccccccccccccccccccccccccscccccccccccccccccccccccccccccccccccccccccccccccccccccccccccccccccscccccccccccscscccccccccccccccccccccccccccccsccccccccccccccccccccccc" />
  <path
     style="baseline-shift:baseline;display:inline;overflow:visible;opacity:1;vector-effect:none;fill:#ffffff;stroke-linejoin:round;enable-background:accumulate;stop-color:#000000;stop-opacity:1"
     d="m 373.60547,46.248047 c 0,0 -6.67225,-0.750752 -15.87189,0.133829 L 277.93069,47.054759 132.247,48.179974 115.43662,49.489359 78.905268,48.732905 54.712586,48.514741 c -6.276018,-1.125905 -6.803914,0.477421 -7.341492,5.426665 l -0.03624,13.374242 -0.03907,14.420474 -0.284945,105.161088 -0.164742,60.7995 -0.148467,54.79277 -0.135583,50.03771 -0.122712,45.28807 -0.01941,7.16326 c -0.0073,2.78589 2.265041,5.03973 5.050781,5.00976 L 71.81144,409.7655 c 13.760843,-1.00079 25.019455,-0.27402 25.019455,-0.27402 21.516955,2.00158 63.048025,-2.1525 82.313205,-0.90152 14.01105,0.2502 42.03083,-0.46033 42.03083,-0.46033 14.51755,-0.20713 30.29705,1.32093 40.28239,-0.44119 3.30565,0.48973 12.53029,0.36703 24.43752,0.0444 12.55397,-0.34018 26.3207,-2.31796 42.81479,-1.20398 11.09149,0.74911 18.40148,-1.18677 27.24546,-1.19351 13.74737,-0.0105 26.49608,1.02795 26.49608,1.02795 2.78634,-0.0312 5.0088,-2.33544 4.93945,-5.12109 -0.17692,-17.33778 -1.83689,-27.78468 -2.72147,-37.51506 -1.05264,-16.01678 -0.47555,-21.92792 -0.47555,-21.92792 l -2.04065,-106.85827 -1.20713,-34.64883 -1.51119,-43.37669 -0.192,-25.64583 -0.18942,-25.30023 c 0,0 -2.75857,-16.874201 -1.20524,-32.189166 0.91329,-9.004471 -0.0175,-18.53091 0.79461,-22.6591 2.05539,-3.965308 -1.24797,-6.134173 -5.03711,-4.873047 z m -4.83008,10.035156 c 2.12299,2.830658 -0.0658,16.612305 -0.0658,16.612305 l 0.71155,19.27742 0.4839,26.895272 0.32782,18.22068 c 0,0 1.12594,23.53606 1.47977,32.91261 -0.17692,6.5459 0.026,19.6297 0.026,19.6297 l 0.6706,23.51953 0.82279,28.85738 1.75967,73.41163 -0.339,38.56798 -0.18904,22.99913 c 0,0 0.86569,8.44706 0.68878,13.57762 -0.19086,5.53507 -10.9004,5.80384 -17.78347,5.73732 -9.06311,-0.0877 -19.56662,-0.52674 -33.09772,0.32266 -6.00612,0.37703 -17.08037,0.38114 -28.53795,0.50832 -13.25096,0.14708 -27.79567,1.456 -37.60564,1.1836 -5.86673,-0.16291 -10.71137,-0.2585 -16.45466,0.41464 -13.14583,1.54078 -19.63073,0.88808 -29.89223,-0.14052 -10.32292,-1.03475 -20.60768,-0.25531 -31.64651,-0.17961 -20.50992,0.14065 -39.8321,0.43715 -56.29301,0.6159 -29.559441,0.32099 -40.51329,0.18227 -48.633603,1.77451 -12.33491,-1.48897 -17.161188,1.70906 -19.780662,-2.44678 0.04293,-4.61455 1.543721,-6.82813 1.539192,-12.49794 -0.0058,-7.32066 -0.457011,-18.8272 -0.425811,-29.77579 0.0474,-16.63253 0.109177,-36.59664 0.184237,-57.2954 0.09596,-26.46318 0.213629,-54.12717 0.350685,-77.56507 0.180682,-30.8982 0.193242,-56.26818 0.575321,-58.7899 0.750592,-11.00868 -1.596472,-20.26822 -0.09529,-26.77335 0.500394,-13.01025 -2.110235,-29.52583 -1.860037,-39.533714 0,-12.259661 -0.597408,-30.908034 -0.597408,-30.908034 0.750591,-6.505126 4.950145,-7.791536 4.950145,-7.791536 8.601986,-2.26341 17.456807,0.594947 24.557857,0.405853 19.327554,-0.514675 34.680214,-2.364132 51.501794,-1.786752 19.93021,0.684079 49.23782,-0.577265 64.29987,-0.615701 106.49948,-0.271767 74.88574,-0.03102 144.93243,-0.204176 13.70811,0.347533 17.77414,-1.970445 23.43546,0.860213 z"
     id="path17"
     sodipodi:nodetypes="ccccccccccccccccccccccssscccccccccscccccccccccccccssssssssccsssscccccssssccc" />
  <path
     style="baseline-shift:baseline;display:inline;overflow:visible;vector-effect:none;fill:#ffffff;stroke-linejoin:round;enable-background:accumulate;stop-color:#000000"
     d="m 478.02492,47.142116 95.67478,0.80671 225.60647,1.90227 c 2.7377,0.0241 4.9463,2.24658 4.95313,4.98438 l 0.36025,132.955804 0.16475,60.7995 0.14846,54.79277 0.13559,50.03771 0.12271,45.28807 0.0194,7.16326 c 0.007,2.78589 -2.26504,5.03973 -5.05078,5.00976 l -20.34074,-0.22278 c -13.76084,-1.00079 -25.01945,-0.27402 -25.01945,-0.27402 -21.51696,2.00158 -63.04803,-2.1525 -82.31321,-0.90152 -14.01105,0.2502 -42.03083,-0.46033 -42.03083,-0.46033 -14.51755,-0.20713 -30.29705,1.32093 -40.28239,-0.44119 -3.30565,0.48973 -12.53029,0.36703 -24.43752,0.0444 -12.55397,-0.34018 -26.3207,-2.31796 -42.81479,-1.20398 -11.09149,0.74911 -18.40148,-1.18677 -27.24546,-1.19351 -13.74737,-0.0105 -26.49608,1.02795 -26.49608,1.02795 -2.78634,-0.0312 -5.0088,-2.33544 -4.93945,-5.12109 0.17692,-17.33778 1.83689,-27.78468 2.72147,-37.51506 1.05264,-16.01678 0.47555,-21.92792 0.47555,-21.92792 l 2.04065,-106.85827 1.20713,-34.64883 1.51119,-43.37669 0.192,-25.64583 0.18942,-25.30023 0.41063,-54.848274 c 0.0676,-2.72689 2.30947,-4.89576 5.03711,-4.87304 z m 4.83008,10.03515 c -2.12299,2.83066 0.0658,16.61231 0.0658,16.61231 l -0.71155,19.277418 -0.4839,26.895276 -0.32782,18.22068 c 0,0 -1.12594,23.53606 -1.47977,32.91261 0.17692,6.5459 -0.026,19.6297 -0.026,19.6297 l -0.6706,23.51953 -0.82279,28.85738 -1.75967,73.41163 0.339,38.56798 0.18904,22.99913 c 0,0 -0.86569,8.44706 -0.68878,13.57762 0.19086,5.53507 10.9004,5.80384 17.78347,5.73732 9.06311,-0.0877 19.56662,-0.52674 33.09772,0.32266 6.00612,0.37703 17.08037,0.38114 28.53795,0.50832 13.25096,0.14708 27.79567,1.456 37.60564,1.1836 5.86673,-0.16291 10.71137,-0.2585 16.45466,0.41464 13.14583,1.54078 19.63073,0.88808 29.89223,-0.14052 10.32292,-1.03475 20.60768,-0.25531 31.64651,-0.17961 20.50992,0.14065 39.8321,0.43715 56.29301,0.6159 29.55944,0.32099 40.51329,0.18227 48.6336,1.77451 12.33491,-1.48897 17.16119,1.70906 19.78067,-2.44678 -0.0429,-4.61455 -1.54373,-6.82813 -1.5392,-12.49794 0.006,-7.32066 0.45701,-18.8272 0.42581,-29.77579 -0.0474,-16.63253 -0.10917,-36.59664 -0.18423,-57.2954 -0.096,-26.46318 -0.21363,-54.12717 -0.35069,-77.56507 -0.18068,-30.8982 -0.19324,-56.26818 -0.57532,-58.7899 -0.75059,-11.00868 1.59647,-20.26822 0.0953,-26.77335 -0.50039,-13.01025 2.11024,-29.52583 1.86004,-39.533718 0,-12.259661 0.59741,-30.908036 0.59741,-30.908036 -0.75059,-6.50512 -4.95015,-7.79153 -4.95015,-7.79153 -8.60198,-2.26341 -17.45681,0.59494 -24.55786,0.40585 -19.32755,-0.51468 -34.68021,-2.36413 -51.50179,-1.78675 -19.93021,0.68408 -49.23782,-0.57727 -64.29987,-0.6157 -106.49948,-0.27177 -74.88574,-0.031 -144.93243,-0.20418 -13.70811,0.34753 -17.77414,-1.97044 -23.43546,0.86021 z"
     id="path17-3"
     sodipodi:nodetypes="ccccccccccccccccsssccccccccccccccccccccccccssssssssccsssscccccssssccc" />
  <path
     style="baseline-shift:baseline;display:inline;overflow:visible;vector-effect:none;fill:#ffffff;stroke-width:1.01229;stroke-linejoin:round;enable-background:accumulate;stop-color:#000000"
     d="m 1218.9893,407.29898 -95.6605,1.19015 -230.28875,-1.90967 c -2.79452,-0.0242 -5.04895,-2.25532 -5.0559,-5.00377 l -0.36777,-133.47307 -0.16812,-61.03603 -0.15158,-55.00594 -0.13842,-50.23238 1.87476,-39.464257 -0.0194,-7.191128 c -0.0102,-2.796729 2.31201,-5.059337 5.15563,-5.029251 l 18.63986,-3.668507 c 14.0465,1.004684 26.12344,-0.540424 26.12344,-0.540424 26.91711,-2.009367 63.89485,0.868538 83.55985,-0.387308 14.3018,-0.251174 42.9031,0.46212 42.9031,0.46212 14.8189,0.207936 30.9259,-1.326069 41.1185,0.442907 3.3743,-0.491635 12.7903,-0.368458 24.9447,-0.04457 12.8145,0.341504 26.867,2.326978 43.7034,1.208664 11.3217,-0.752024 12.7833,1.191387 21.8109,1.198153 14.0327,0.01054 27.046,-1.031949 27.046,-1.031949 2.8441,0.03132 5.1127,2.344526 5.042,5.141013 -0.1807,17.405232 -1.875,27.892774 -2.778,37.66101 -1.0745,16.079087 -0.4854,22.013227 -0.4854,22.013227 l 1.917,107.27399 -1.2321,34.78363 0.4574,43.54545 -0.196,25.7456 -0.1934,25.39866 -2.4191,53.06166 c -0.07,2.7375 -2.3575,4.91481 -5.1417,4.892 z m -4.9303,-10.07419 c 2.167,-2.84168 -0.067,-16.67694 -0.067,-16.67694 l 2.7264,-17.35242 0.4939,-26.99991 0.3346,-18.29157 c 0,0 1.1493,-23.62762 1.5105,-33.04065 -0.1807,-6.57137 0.027,-19.70607 0.027,-19.70607 l -1.3155,-23.61103 0.8397,-28.96965 -2.2037,-73.69723 -0.3461,-38.71803 -0.1929,-23.088604 c 0,0 0.8837,-8.479923 0.7031,-13.630443 -0.1949,-5.556604 -11.1266,-5.826419 -18.1526,-5.75964 -9.2512,0.08804 -13.9727,0.528789 -27.7846,-0.323916 -6.1309,-0.378496 -17.4349,-0.382622 -29.1303,-0.510297 -13.5259,-0.147652 -28.3726,-1.461665 -38.3862,-1.188205 -5.9884,0.163544 -10.9336,0.259506 -16.7961,-0.416253 -13.4187,-1.546774 -20.0382,-0.891535 -30.5127,0.141067 -10.5371,1.038775 -21.0353,0.256303 -32.3033,0.180308 -20.9355,-0.141197 -41.96621,-3.038669 -56.99959,0.67404 -26.28073,0.739257 -39.8158,4.524685 -48.10463,2.926251 -12.59091,1.494762 -17.51737,-1.715709 -20.19124,2.456299 0.0439,4.632502 1.57584,6.854694 1.57115,12.546562 -0.0102,7.34914 -2.46649,12.900446 -2.43464,23.891631 0.048,16.69724 0.11147,36.73902 0.18813,57.5183 0.098,26.56614 0.21803,54.33775 0.35797,77.86683 0.18435,31.01841 0.19721,56.48709 0.58724,59.01862 0.76618,11.05151 -1.62963,20.34707 -0.097,26.87751 0.51079,13.06087 -2.1541,29.6407 -1.8987,39.68753 0,12.30736 -0.6098,31.02828 -0.6098,31.02828 0.76618,6.53043 5.05294,7.82184 5.05294,7.82184 8.78052,2.27222 17.8191,-0.59725 25.06748,-0.40743 19.72873,0.51669 35.39996,2.37333 52.57068,1.7937 20.34384,-0.68674 50.25971,0.57952 65.63441,0.6181 108.7098,0.27283 74.44,-1.9689 145.9405,-1.79503 13.9926,-0.34888 18.143,1.97811 23.9218,-0.86355 z"
     id="path17-3-6"
     sodipodi:nodetypes="ccccccccccccccccsssccccccccccccccccccccccccssssssssccsssscccccssssccc" />
</svg>
