<?xml version="1.0" encoding="UTF-8" standalone="no"?>
<svg
   version="1.1"
   width="1269"
   height="457"
   id="svg16"
   sodipodi:docname="koomiteh-logo-cutted.svg"
   inkscape:version="1.4.2 (ebf0e940d0, 2025-05-08)"
   inkscape:export-filename="../apps/web/src/assets/koomiteh-logo.svg"
   inkscape:export-xdpi="96"
   inkscape:export-ydpi="96"
   xmlns:inkscape="http://www.inkscape.org/namespaces/inkscape"
   xmlns:sodipodi="http://sodipodi.sourceforge.net/DTD/sodipodi-0.dtd"
   xmlns="http://www.w3.org/2000/svg"
   xmlns:svg="http://www.w3.org/2000/svg">
  <defs
     id="defs16" />
  <sodipodi:namedview
     id="namedview16"
     pagecolor="#ffffff"
     bordercolor="#000000"
     borderopacity="0.25"
     inkscape:showpageshadow="2"
     inkscape:pageopacity="0.0"
     inkscape:pagecheckerboard="0"
     inkscape:deskcolor="#d1d1d1"
     inkscape:zoom="0.99921198"
     inkscape:cx="963.25907"
     inkscape:cy="307.24211"
     inkscape:window-width="2168"
     inkscape:window-height="1055"
     inkscape:window-x="1672"
     inkscape:window-y="0"
     inkscape:window-maximized="1"
     inkscape:current-layer="svg16" />
  <path
     id="path1"
     d="M -10.115247 -0.33203125 C -13.475119 -0.36653593 -16.833726 -0.28496559 -20.220716 0.03125 C -24.116875 0.47580872 -27.900808 0.6437761 -31.820325 0.59960938 C -40.573212 0.46199674 -49.307199 0.62900885 -58.0547 0.91796875 C -70.179076 1.3242566 -82.280219 1.6281486 -94.412122 1.5722656 C -106.53682 1.512275 -118.64632 1.6187472 -130.76759 1.9355469 L -133.2422 2 C -135.59969 2.0581914 -137.95717 2.1177258 -140.31447 2.1835938 L -142.50001 2.2460938 C -146.33694 2.3540059 -150.03353 2.5506699 -153.8379 3.0664062 C -155.6613 3.3419797 -157.49163 3.5920837 -159.33009 3.7363281 L -161.20314 3.8085938 L -163.32032 3.9042969 C -172.57277 4.3152624 -181.68725 4.2883257 -189.1172 10.5625 C -193.59889 14.917945 -195.42702 18.471727 -195.8672 24.75 C -195.89769 26.689051 -195.97846 28.628178 -196.1172 30.5625 C -201.51122 43.583324 -201.51139 43.584565 -201.35939 107.61328 C -201.34819 111.85452 -201.34547 116.09469 -201.34572 120.33594 C -201.34632 127.49085 -201.34134 134.64589 -201.32814 141.80078 C -201.31244 150.05182 -201.30215 158.30363 -201.30275 166.55469 C -201.30345 175.50581 -201.29807 184.45709 -201.28907 193.4082 C -201.28608 195.95803 -201.28394 198.50681 -201.28322 201.05664 C -201.28262 205.10724 -201.2805 209.15839 -201.2715 213.20898 C -201.2673 214.71768 -201.26473 216.22568 -201.26173 217.73438 C -201.26505 225.91629 -201.15193 234.05992 -200.61329 242.22461 C -200.26022 247.2204 -200.01519 252.16431 -200.05079 257.17188 C -200.2098 269.74818 -200.21016 269.74787 -199.77736 297.12891 C -199.73321 299.91038 -199.68855 302.69113 -199.64845 305.47266 C -199.46731 318.34316 -199.44425 331.22792 -198.57423 344.07422 C -198.06218 351.58756 -198.10477 359.03647 -198.2422 366.5625 C -198.4196 373.92852 -198.70812 380.68965 -195.97657 387.63086 L -195.1172 389.5625 C -192.75509 394.93854 -190.22474 400.25821 -186.23439 404.62109 C -177.95704 411.34016 -167.95509 411.98174 -157.70314 412.23047 C -155.45796 412.27146 -153.21347 412.3128 -150.96876 412.375 C -146.35087 412.50981 -141.73683 412.6588 -137.1172 412.5625 C -133.95668 411.65795 -131.05968 411.44886 -127.76954 411.44922 L -125.64454 411.46484 C -124.0968 411.46784 -122.54971 411.47061 -121.00197 411.47461 C -118.47376 411.48731 -115.94621 411.50181 -113.41798 411.50781 C -107.08853 411.51971 -100.75911 411.5389 -94.4297 411.5625 C -88.985465 411.5829 -83.539979 411.60188 -78.095716 411.61328 C -75.527283 411.61808 -72.959042 411.62577 -70.390637 411.63867 C -68.768553 411.64677 -67.147504 411.65225 -65.525403 411.65625 L -63.234387 411.66016 C -59.851133 411.68546 -56.498319 411.71999 -53.132825 411.33594 C -46.548868 410.47405 -40.046055 410.4385 -33.410169 410.4707 C -31.972313 410.4775 -30.535538 410.48333 -29.097669 410.48633 C -25.979019 410.49193 -22.858885 410.49711 -19.740247 410.50781 C -14.724167 410.52651 -9.70948 410.54083 -4.6933719 410.54883 C 9.6345763 410.57148 23.963106 410.60579 38.291003 410.65039 C 46.280047 410.67539 54.268724 410.69573 62.2578 410.70703 C 66.489593 410.71213 70.721347 410.71592 74.953113 410.73242 C 90.883958 410.80377 106.79404 411.11399 122.64647 409.26562 C 125.97731 408.86348 129.17488 408.55765 132.5371 408.49805 C 141.6417 408.70088 150.76541 408.38635 158.8828 403.82031 L 160.8828 402.5625 C 165.07093 399.93183 169.07813 397.2007 172.74608 393.87109 C 181.06785 384.97115 181.06809 384.97132 180.97069 353.88477 C 180.95789 351.24388 180.94544 348.6038 180.93944 345.96289 C 180.92764 339.2672 180.9066 332.57065 180.8828 325.875 C 180.8589 319.23281 180.83836 312.59144 180.82616 305.94922 L 180.8203 303.17578 C 180.79643 291.42743 180.86858 279.71735 181.4453 267.98047 C 181.76236 262.64482 181.96373 257.51895 181.41796 252.19141 C 180.95885 248.42052 180.75308 244.73162 180.74608 240.93359 L 180.7578 238.8125 C 180.74289 236.05279 180.79 233.32364 180.8828 230.5625 C 181.47116 227.31123 181.89179 224.26871 181.99608 220.95898 L 181.98046 217.01172 C 181.97606 214.83875 181.97117 212.66513 181.95897 210.49219 C 181.95027 208.98797 181.94249 207.48471 181.93749 205.98047 C 181.92799 202.49314 181.91553 199.00489 181.89843 195.51758 C 181.89152 194.19899 181.8828 192.88111 181.8828 191.5625 C 182.67637 185.29939 182.92337 179.80589 181.8828 173.5625 L 179.8828 173.5625 C 180.77411 170.88859 181.36012 168.32526 181.8828 165.5625 L 179.8828 165.5625 C 180.57627 163.26312 180.89754 161.24484 181.00975 158.83594 L 181.01171 155.66016 L 181.02147 152.01953 C 181.01847 150.01451 181.01557 148.00893 181.01757 146.00391 C 181.02257 142.35308 181.02161 138.7016 181.01561 135.05078 C 181.01101 132.74292 181.00885 130.43481 181.00585 128.12695 C 180.9871 108.30675 180.91525 88.487425 180.56249 68.669922 L 180.5078 65.5625 C 180.35104 55.407325 180.12201 45.288981 179.22264 35.167969 L 178.96874 32.5 C 178.69319 29.502885 178.39697 26.528998 177.8828 23.5625 C 176.86616 20.326242 176.63986 19.030092 173.7578 17.25 L 171.8828 16.5625 C 171.8828 12.894238 171.36429 12.204083 168.8828 9.5625 C 160.04117 3.2751199 148.78636 1.1687545 138.11913 0.85546875 L 134.56249 0.8125 C 116.33602 0.40777107 116.33602 0.40777107 68.0078 0.5625 C 60.532716 0.5864613 53.057133 0.60893875 45.582019 0.62109375 L 42.453113 0.625 C 28.290809 0.65059517 14.153055 0.53614575 -1.25e-05 0 C -3.393507 -0.14694685 -6.7553751 -0.29752657 -10.115247 -0.33203125 z M -42.625012 22.109375 C -28.323212 21.858201 0.27733125 22.572266 0.27733125 22.572266 C 15.096231 22.780202 31.203872 21.246649 41.396472 23.015625 C 44.770772 22.52399 54.187384 22.646815 66.341784 22.970703 C 79.156284 23.312207 93.208509 25.298001 110.04491 24.179688 C 121.36661 23.427664 122.82786 25.370187 131.85546 25.376953 C 145.88816 25.387493 158.90233 24.345703 158.90233 24.345703 C 161.74643 24.377023 164.01405 26.689841 163.94335 29.486328 C 163.76265 46.89156 162.069 57.378248 161.166 67.146484 C 160.0915 83.225571 160.67967 89.160156 160.67968 89.160156 L 162.59764 196.43359 L 161.36522 231.21875 L 161.82225 274.76367 L 161.62694 300.50977 L 161.43358 325.9082 L 159.01366 378.96875 C 158.94366 381.70625 156.65723 383.88414 153.87303 383.86133 L 58.210925 385.05078 L -172.07618 383.14258 C -174.8707 383.11838 -177.12587 380.88712 -177.13282 378.13867 L -177.50001 244.66602 L -177.66798 183.62891 L -177.82032 128.62305 L -177.959 78.390625 L -176.084 38.925781 L -176.10353 31.736328 C -176.11373 28.939599 -173.7909 26.676945 -170.94728 26.707031 L -152.30861 23.037109 C -138.26211 24.041793 -126.18556 22.498047 -126.18556 22.498047 C -99.268449 20.48868 -62.290012 23.365221 -42.625012 22.109375 z M 4.8417844 30.910156 C 0.20025938 31.009695 -4.0733094 31.430965 -9.3105594 31.947266 C -19.847659 32.986041 -30.345294 32.202948 -41.613294 32.126953 C -62.548794 31.985756 -83.579914 29.090025 -98.613294 32.802734 C -124.89402 33.541991 -138.42993 37.32695 -146.71876 35.728516 C -159.30967 37.223278 -164.2363 34.011586 -166.91017 38.183594 C -166.86627 42.816096 -165.33321 45.038601 -165.3379 50.730469 C -165.3481 58.079609 -167.8053 63.631862 -167.77345 74.623047 C -167.72545 91.320287 -167.66066 111.36134 -167.584 132.14062 C -167.486 158.70676 -167.36651 186.47873 -167.22657 210.00781 C -167.04222 241.02622 -167.02871 266.49386 -166.63868 269.02539 C -165.8725 280.0769 -168.26897 289.37386 -166.73634 295.9043 C -166.22555 308.96517 -168.89018 325.54497 -168.63478 335.5918 C -168.63478 347.89916 -169.24415 366.61914 -169.24415 366.61914 C -168.47797 373.14957 -164.19142 374.44141 -164.19142 374.44141 C -155.4109 376.71363 -146.37339 373.84338 -139.12501 374.0332 C -119.39628 374.54989 -103.72542 376.40775 -86.5547 375.82812 C -66.21086 375.14139 -36.294634 376.40673 -20.919934 376.44531 C 87.789866 376.71814 53.520972 374.47652 125.02147 374.65039 C 139.01274 374.30154 143.16346 376.62751 148.94139 373.78711 C 151.10839 370.94543 148.87499 357.10937 148.87499 357.10938 L 151.60155 339.75781 L 152.09569 312.75781 L 152.42968 294.4668 C 152.42968 294.4668 153.57824 270.83881 153.93944 261.42578 C 153.75874 254.85441 153.96678 241.7207 153.96678 241.7207 L 152.65233 218.10938 L 153.49218 189.13867 L 151.2871 115.44141 L 150.94139 76.724609 L 150.74803 53.634766 C 150.74803 53.634766 151.63176 45.154426 151.45116 40.003906 C 151.25626 34.447302 140.32482 34.177362 133.29882 34.244141 C 124.04762 34.332181 119.32556 34.77458 105.51366 33.921875 C 99.382759 33.543379 88.080153 33.537831 76.384753 33.410156 C 62.858853 33.262504 48.011634 31.949196 37.998034 32.222656 C 32.009634 32.3862 27.063659 32.4824 21.201159 31.806641 C 14.491809 31.033254 9.4833094 30.810618 4.8417844 30.910156 z M -59.255872 37.982422 C -33.827801 37.178947 -6.7840599 38.498204 47.306628 41.134766 C 59.051665 41.403149 70.786566 41.594694 82.535144 41.570312 C 90.422053 41.553016 98.296455 41.556897 106.18163 41.820312 L 109.25975 41.9375 C 117.41446 42.173299 126.01454 42.21615 133.88475 44.5625 C 138.482 57.691325 138.48264 57.690467 138.41014 72.101562 C 138.45716 74.010308 138.50303 75.919552 138.55663 77.828125 C 138.97027 92.456456 139.03257 107.08546 139.02147 121.71875 C 139.01747 125.55827 139.01752 129.39877 139.01952 133.23828 C 139.02152 139.76105 139.02061 146.28387 139.01561 152.80664 C 139.01061 159.42966 139.00771 166.05276 139.01171 172.67578 C 139.03456 203.92664 139.15121 235.17397 138.30468 266.41602 C 137.99019 277.94816 137.80319 289.46906 137.81639 301.00586 L 137.8203 303.43359 C 137.8301 308.84535 137.84923 314.25626 137.87303 319.66797 C 137.89783 325.2337 137.92028 330.79946 137.93358 336.36523 C 137.93838 338.59148 137.94402 340.8187 137.95702 343.04492 L 137.97069 345.14648 L 137.98046 349.08398 C 137.99877 353.05258 137.95302 356.72345 136.8828 360.5625 C 135.13398 362.75 135.13398 362.75 133.02733 362.6875 C 129.19133 362.48188 125.5122 362.48305 121.6953 362.96484 C 115.23569 363.95253 108.8819 364.69126 102.35546 364.98242 L 99.558581 365.09375 C 87.484828 365.59238 75.408072 365.85961 63.326159 366.06445 L 59.7578 366.125 C 42.607139 366.4282 25.460447 366.69377 8.3066281 366.54492 C 1.9056782 366.48472 -4.4748516 366.46136 -10.869153 366.78125 C -29.45267 367.72711 -48.017647 367.71487 -66.621106 367.69727 C -70.729362 367.69227 -74.837066 367.68645 -78.945325 367.68945 C -92.50222 367.70454 -106.05874 367.69847 -119.61525 367.58398 L -122.1172 367.5625 C -126.40901 367.52691 -130.69911 367.47803 -134.99025 367.39062 L -138.63282 367.30469 C -144.03004 367.2384 -148.67022 367.0803 -153.77931 365.25195 C -156.91018 360.30763 -156.91142 360.30707 -157.00392 354.27539 L -156.99611 350.79297 C -157.06098 346.84751 -157.11715 342.903 -157.11915 338.95703 C -157.11815 336.73496 -157.11706 334.51308 -157.12306 332.29102 C -157.16836 318.94548 -157.12338 305.60118 -157.03907 292.25586 C -157.01118 287.92834 -156.98577 283.60104 -156.97267 279.27344 C -156.96837 277.61604 -156.96304 275.95818 -156.95704 274.30078 C -156.87056 264.49486 -157.08764 254.95228 -158.40822 245.2207 C -158.93578 241.34667 -159.2315 237.59749 -159.1797 233.6875 C -159.1198 231.10541 -159.11129 228.62554 -159.34962 226.05273 C -160.00483 220.34268 -160.10702 214.90971 -159.74806 209.17773 C -159.12909 199.8183 -159.13403 190.82698 -160.1797 181.5 C -160.79506 176.73845 -161.45899 172.80912 -160.17579 168.12891 C -159.19843 164.83619 -158.99466 162.65703 -159.02736 159.27734 C -159.08106 156.49002 -159.12413 153.72746 -159.01564 150.94141 C -158.23127 137.70306 -158.17141 124.79203 -159.1172 111.5625 C -159.74144 103.1228 -160.18379 94.751376 -160.23439 86.289062 L -160.2422 83.0625 C -160.26594 77.811424 -160.3211 72.587514 -159.69142 67.367188 L -159.1172 63.5625 C -158.81572 61.46104 -158.50597 59.363875 -158.15822 57.269531 L -157.8047 55.1875 C -157.40852 52.509062 -156.89365 50.182651 -156.1172 47.5625 C -108.49561 41.712041 -84.683942 38.785896 -59.255872 37.982422 z M 179.8828 174.5625 L 180.8828 176.5625 L 179.8828 174.5625 z "
     transform="translate(1065.1172,23.4375)"
     style="fill:#c71d31;fill-opacity:1" />
  <path
     id="path3"
     d="M 0.000698125 -0.00013325 C -16.180006 -0.03055604 -32.346911 0.07682179 -48.522739 0.4959605 C -66.112064 0.95471976 -83.686203 1.2100478 -101.28251 1.1951792 L -104.84891 1.191273 C -113.20289 1.181102 -121.55745 1.1619846 -129.91141 1.1385386 C -138.44881 1.1141846 -146.98531 1.0892636 -155.52274 1.0760386 C -158.95115 1.0712466 -162.37951 1.0656231 -165.8079 1.0526011 C -176.66509 1.010747 -187.4577 1.0237572 -198.28641 1.8690074 L -201.23563 2.128773 C -203.69612 2.3314872 -206.15416 2.5346049 -208.61063 2.7811167 L -210.73563 3.003773 C -217.18487 3.5828427 -223.02233 4.4369045 -228.16141 8.7420542 L -229.54813 10.441273 C -234.14742 15.847022 -234.14779 15.845344 -235.61258 32.913929 L -235.79813 35.128773 C -237.0033 49.060754 -237.60503 62.98134 -237.91922 76.960804 L -237.98563 80.066273 C -238.05367 83.082052 -238.11863 86.097093 -238.17313 89.113148 L -238.22001 91.906117 L -238.27274 94.554554 L -238.30594 97.005726 C -238.34007 99.198377 -238.26702 101.00535 -237.7454 103.13854 C -237.04203 107.26533 -237.04091 107.26426 -236.97001 111.46666 L -236.91922 114.07409 C -236.85242 117.05096 -236.78988 120.02667 -236.73368 123.00377 L -236.67313 126.25377 C -236.36132 141.91225 -236.20429 157.56517 -236.20829 173.22643 L -236.20829 175.76549 C -236.21229 184.16178 -236.22141 192.55676 -236.25321 200.95299 C -236.26591 204.17146 -236.27841 207.39076 -236.28641 210.60924 C -236.29181 212.85369 -236.2987 215.09724 -236.3118 217.34166 L -236.32352 219.46862 L -236.33329 223.46276 C -236.34886 226.8729 -236.25074 230.02756 -235.73758 233.40026 C -234.79458 238.52318 -235.03858 243.71547 -235.46219 248.89244 C -236.23002 257.29831 -236.38235 265.65565 -236.37235 274.08776 C -236.37047 275.69305 -236.36974 277.29887 -236.3704 278.90416 C -236.37253 282.30084 -236.3744 285.69695 -236.3704 289.09362 C -236.3644 293.45036 -236.36049 297.80719 -236.36649 302.16393 C -236.37087 305.59173 -236.3714 309.01933 -236.3704 312.44713 C -236.3694 314.09706 -236.36912 315.74838 -236.36844 317.3983 C -236.38151 326.26295 -236.31591 335.07833 -235.71219 343.92565 C -235.35319 348.75325 -235.20518 353.35639 -235.65751 358.17369 C -236.45984 366.11433 -236.04317 372.99895 -234.16532 380.79284 L -233.23563 384.12877 C -231.94882 389.04574 -230.39496 392.72286 -227.14188 396.66784 C -219.20954 404.57507 -210.75408 405.34203 -199.86649 405.38073 L -196.83133 405.36119 C -193.34286 405.36419 -189.85495 405.36558 -186.36649 405.35338 C -183.81518 405.34438 -181.26351 405.3378 -178.71219 405.3358 C -172.47026 405.3347 -166.22754 405.32972 -159.98563 405.31432 C -151.81108 405.29342 -143.63676 405.28126 -135.46219 405.27526 C -122.13908 405.26626 -108.81654 405.25148 -95.493443 405.22838 L -93.075474 405.22448 L -90.653599 405.22057 L -85.802036 405.21276 L -83.376255 405.20885 C -74.52804 405.19345 -65.679553 405.17818 -56.831333 405.16588 L -54.438755 405.16393 C -41.117601 405.14543 -27.795072 405.13081 -14.473911 405.11901 C -7.0064467 405.11241 0.46098047 405.10501 7.9284325 405.08971 C 15.649114 405.07351 23.369846 405.05865 31.090542 405.05065 C 32.430691 405.04865 33.769924 405.04774 35.110073 405.04674 C 48.271042 405.03181 61.428972 405.01091 74.586636 405.33971 L 77.684292 405.42369 C 82.356539 405.54934 87.027332 405.67663 91.697964 405.85338 C 101.73962 406.24325 111.00883 406.55441 120.44406 402.57799 L 123.63937 400.81627 C 126.88156 399.07799 126.88156 399.07799 129.76437 397.12877 C 134.69338 391.98051 137.01718 386.29157 137.38351 379.22838 L 137.45187 376.99596 C 137.90748 366.002 137.90845 366.002 137.78585 341.05651 C 137.75855 335.98456 137.72969 330.9117 137.71359 325.83971 L 137.70187 322.19909 C 137.66167 316.7724 137.6007 311.36638 137.99484 305.95104 C 138.60378 298.9862 138.83767 292.15235 138.72531 285.16002 C 138.68358 283.13026 138.64302 281.10008 138.60812 279.07018 C 138.54768 275.36746 138.48291 271.66532 138.41281 267.96276 C 138.30066 262.06205 138.19376 256.16054 138.09249 250.25963 C 138.06769 248.79512 138.04318 247.33156 138.01828 245.86705 C 137.87186 237.55312 137.74851 229.24108 137.75851 220.92565 L 137.76437 218.51744 C 137.77217 214.68352 137.77994 210.84933 137.80734 207.01549 C 137.81784 205.60577 137.82573 204.19673 137.83273 202.78698 L 137.84249 200.81237 C 137.86692 197.56128 137.85008 194.59096 137.26046 191.3944 C 136.6616 189.04006 136.66101 189.04006 136.75851 186.2069 L 136.92062 183.0233 L 137.08078 179.54479 C 137.20377 177.13076 137.32615 174.71669 137.44796 172.3026 L 137.60812 168.8358 C 137.70527 166.93523 137.76837 165.03182 137.76437 163.12877 C 135.84934 153.45966 135.84933 153.45966 136.99093 143.25377 C 138.0151 133.65583 138.05299 124.0873 137.53195 114.45299 C 136.93906 103.52937 136.68866 92.631387 136.72726 81.693226 L 136.73703 79.507679 C 136.76181 72.803759 136.79419 66.100145 136.84249 59.396351 C 136.87029 55.619164 136.8957 51.841588 136.9089 48.06432 C 136.9132 46.628694 136.91853 45.193298 136.92453 43.757679 C 136.98929 37.268784 137.39989 30.772531 135.7507 24.445179 L 134.76437 21.128773 C 134.85026 16.061733 135.03544 13.163084 131.76437 9.128773 C 124.58517 3.1752832 116.73475 1.8812907 107.63937 2.003773 C 105.0152 2.081719 102.3897 2.123553 99.76437 2.128773 C 94.687289 1.4578608 89.736871 0.98600234 84.615932 0.863148 L 81.92062 0.81236675 C 78.82301 0.74561937 75.725463 0.68151085 72.627651 0.62486675 L 69.26437 0.566273 C 48.437734 0.18323654 27.613715 0.02494108 6.7839012 0.00767925 C 4.5225963 0.00608461 2.2620003 0.00374131 0.000698125 -0.00013325 z M -207.21024 21.271351 L -111.53641 22.077992 L 114.07101 23.980335 C 116.80871 24.004435 119.01731 26.226911 119.02414 28.96471 L 119.38351 161.91979 L 119.54953 222.71862 L 119.69796 277.51159 L 119.83273 327.55065 L 119.95578 372.83776 L 119.97531 380.00182 C 119.98231 382.78771 117.71027 385.04156 114.92453 385.01159 L 94.582729 384.78893 C 80.821889 383.78814 69.563198 384.51354 69.563198 384.51354 C 48.046238 386.51512 6.5158781 382.36217 -12.749302 383.61315 C -26.760352 383.86335 -54.780552 383.15221 -54.780552 383.15221 C -69.298102 382.94508 -85.076462 384.47292 -95.061802 382.7108 C -98.367452 383.20053 -107.59207 383.07836 -119.4993 382.75573 C -132.05327 382.41555 -145.82162 380.43862 -162.31571 381.5526 C -173.4072 382.30171 -180.71587 380.36403 -189.55985 380.35729 C -203.30722 380.34679 -216.05594 381.38659 -216.05594 381.38659 C -218.84228 381.35539 -221.06475 379.05114 -220.9954 376.26549 C -220.81848 358.92771 -219.15927 348.48025 -218.27469 338.74987 C -217.22205 322.73309 -217.79813 316.82213 -217.79813 316.82213 L -215.75907 209.96471 L -214.55204 175.31432 L -213.04032 131.93737 L -212.84696 106.29284 L -212.65751 80.992054 L -212.24735 26.144398 C -212.17975 23.417508 -209.93788 21.248631 -207.21024 21.271351 z M -196.09305 29.880726 C -198.35997 29.906243 -200.25717 30.245014 -202.38016 31.306507 C -204.50315 34.137167 -202.31571 47.917836 -202.31571 47.917835 L -203.02665 67.195179 L -203.51102 94.091664 L -203.83719 112.31237 C -203.83719 112.31237 -204.96383 135.84793 -205.31766 145.22448 C -205.14074 151.77038 -205.34305 164.85338 -205.34305 164.85338 L -206.01493 188.37291 L -206.83719 217.23034 L -208.59696 290.64244 L -208.25711 329.2108 L -208.06961 352.20885 C -208.06961 352.20885 -208.93402 360.65642 -208.75711 365.78698 C -208.56625 371.32205 -197.85698 371.59178 -190.97391 371.52526 C -181.9108 371.43756 -171.40736 370.99812 -157.87626 371.84752 C -151.87014 372.22455 -140.79673 372.22816 -129.33915 372.35534 C -116.08819 372.50242 -101.54365 373.81133 -91.733677 373.53893 C -85.866947 373.37602 -81.021889 373.27985 -75.278599 373.95299 C -62.132769 375.49377 -55.647521 374.84097 -45.386021 373.81237 C -35.063101 372.77762 -24.778366 373.55893 -13.739536 373.63463 C 6.7703837 373.77528 26.092523 374.07112 42.553432 374.24987 C 72.112872 374.57086 83.065935 374.43106 91.186245 376.0233 C 103.52116 374.53433 108.34802 377.73383 110.96749 373.57799 C 110.92459 368.96344 109.4239 366.74975 109.42843 361.07994 C 109.43443 353.75928 109.88541 342.25314 109.85421 331.30455 C 109.80681 314.67202 109.74568 294.70644 109.67062 274.00768 C 109.57462 247.5445 109.45612 219.88113 109.31906 196.44323 C 109.13838 165.54503 109.12692 140.17588 108.74484 137.65416 C 107.99425 126.64548 110.33976 117.38586 108.83859 110.88073 C 108.3382 97.870476 110.95012 81.353458 110.69992 71.34557 C 110.69992 59.085909 111.29757 40.437367 111.29757 40.437367 C 110.54698 33.932247 106.3464 32.646351 106.3464 32.646351 C 97.744421 30.382941 88.890811 33.241691 81.789761 33.052601 C 62.462211 32.537921 47.109387 30.688112 30.287807 31.265492 C 10.357597 31.949572 -18.950924 30.688687 -34.012974 30.650257 C -140.51245 30.378487 -108.89792 30.618359 -178.94461 30.445179 C -187.51218 30.662385 -192.31486 29.838198 -196.09305 29.880726 z M 17.186245 36.990101 L 20.95187 37.003773 C 32.022721 37.018476 43.075613 37.23509 54.13937 37.628773 C 60.641282 37.874858 67.135775 38.139865 73.643276 38.111195 L 77.447964 38.054554 C 79.824335 38.021483 82.200651 37.983953 84.57687 37.941273 L 87.885464 37.827992 L 90.908901 37.773304 L 93.54562 37.691273 C 95.88895 37.948154 95.887485 37.947909 97.524136 39.802601 C 100.79714 53.781754 100.79788 53.781755 99.801479 68.716664 C 99.68527 84.262625 99.777389 99.788824 100.1921 115.32994 C 100.50294 126.84183 100.82821 138.35053 100.88351 149.86705 L 100.88937 153.25377 C 100.91203 158.23784 100.90882 163.20124 100.5339 168.17369 C 99.603288 179.95431 99.603228 179.95418 99.688198 206.56041 C 99.699588 210.0942 99.707536 213.62817 99.711636 217.16198 C 99.721516 226.15618 99.738231 235.15021 99.758511 244.1444 C 99.780751 253.96245 99.803171 263.77946 99.815151 273.59752 C 99.819841 277.85804 99.824919 282.11827 99.838589 286.37877 C 99.847259 289.06268 99.85432 291.74759 99.85812 294.43151 L 99.862026 298.20104 C 99.890544 304.55395 99.854165 310.83048 99.26437 317.16002 C 98.855296 321.00335 98.657989 324.77051 98.676479 328.63463 L 98.70187 330.75377 C 98.71357 333.08503 98.724536 335.41669 98.742886 337.74791 C 98.770316 340.93344 98.798891 344.11893 98.815151 347.30455 L 98.82687 349.56627 C 98.870148 353.2983 98.960853 356.53932 97.76437 360.12877 C 96.23356 362.0477 95.280933 362.98748 92.895229 363.63659 L 90.748745 363.82409 L 88.262417 364.0526 L 85.51437 364.25377 C 60.288545 366.25905 35.039966 366.23468 9.7526512 366.11119 L 6.1842919 366.09166 C 3.9115051 366.08316 1.6387185 366.07527 -0.6340675 366.06627 C -6.1570381 366.02178 -11.601274 365.98423 -17.093052 366.62877 C -19.53234 366.93624 -21.849148 367.14823 -24.313755 367.22643 L -27.130161 367.19127 L -30.464146 367.16588 C -43.285984 367.03404 -56.097913 367.16735 -68.917271 367.43541 C -70.91963 367.47907 -72.920769 367.52277 -74.92313 367.56627 C -77.838665 367.62457 -80.753854 367.68377 -83.669224 367.74987 L -86.372349 367.81237 C -89.334829 367.87049 -92.275305 367.97306 -95.23563 368.12877 C -98.745094 369.29859 -101.5518 369.26034 -105.23563 369.12877 C -108.23563 368.12873 -108.23563 368.12873 -110.93094 368.10143 C -118.11572 368.28964 -125.14855 368.03271 -132.3118 367.41588 C -140.6949 366.67339 -149.00235 365.95956 -157.42313 366.06627 C -163.33376 366.14784 -169.21308 366.06743 -175.1204 365.82409 L -178.11063 365.69127 L -180.97977 365.57213 L -183.66532 365.44518 C -186.65 365.30601 -189.38689 365.06613 -192.23563 364.12877 C -194.65454 360.68839 -194.65465 360.68903 -194.58915 356.31432 L -194.61454 353.90221 C -194.66773 351.32882 -194.71957 348.75515 -194.75907 346.18151 C -194.79787 343.53475 -194.84223 340.88866 -194.88993 338.24205 C -194.92343 336.54545 -194.95664 334.84883 -194.98954 333.15221 L -195.02079 330.77721 L -195.0618 328.49401 C -195.08307 327.0381 -195.14763 325.58218 -195.23563 324.12877 C -196.01657 318.74422 -196.3554 313.54019 -196.3704 308.09948 L -196.36258 305.0194 C -196.36788 301.51038 -196.37144 298.00107 -196.36844 294.49205 C -196.36579 291.2587 -196.36544 288.02619 -196.36844 284.79284 C -196.37344 278.45296 -196.37535 272.11318 -196.37235 265.7733 C -196.36995 260.57525 -196.36758 255.37565 -196.36844 250.1776 L -196.3704 247.94127 C -196.37071 246.44033 -196.37008 244.93831 -196.3704 243.43737 C -196.3734 229.37241 -196.37149 215.30701 -196.36649 201.24205 C -196.36157 189.13056 -196.36054 177.01956 -196.36454 164.90807 C -196.37011 150.78605 -196.37535 136.66486 -196.37235 122.54284 C -196.37202 121.03762 -196.37072 119.53243 -196.3704 118.02721 L -196.3704 115.78112 C -196.3684 110.57343 -196.3684 105.36577 -196.3704 100.15807 C -196.37281 93.752376 -196.3744 87.346969 -196.3704 80.941273 C -196.3684 78.313303 -196.36554 75.686431 -196.36454 73.05846 C -196.36736 69.385907 -196.37244 65.711482 -196.36844 62.038929 L -196.36258 58.730335 L -196.3704 55.622914 L -196.36063 52.785023 C -196.36001 49.726993 -196.21568 47.041352 -195.23563 44.128773 C -191.6457 41.604334 -191.64647 41.603817 -187.1204 41.273304 L -184.54813 41.042835 C -174.15649 40.067242 -163.783 39.720833 -153.35086 39.546742 C -151.24161 39.512095 -149.13189 39.475554 -147.02274 39.435414 C -141.34338 39.324318 -135.66331 39.218664 -129.98368 39.122914 C -126.44296 39.063535 -122.90322 39.00297 -119.36258 38.93932 C -90.302821 38.407599 -61.24477 37.878412 -32.178989 38.08971 C -22.530987 38.16956 -12.937248 38.20155 -3.3020363 37.640492 C 3.5332666 37.231583 10.335828 37.000971 17.186245 36.990101 z "
     transform="translate(685.23563,25.871227)"
     style="fill:#c71d31;fill-opacity:1" />
  <path
     d="M0 0 C1.175625 0.4021875 1.175625 0.4021875 2.375 0.8125 C4.96220725 2.70315145 5.18707399 4.94631641 6 8 C6.18830526 10.75257985 6.28007839 13.37784049 6.25 16.125 C6.25773437 16.80820313 6.26546875 17.49140625 6.2734375 18.1953125 C6.25861528 22.2269564 5.83266927 25.91993755 5 29.86303711 C3.31746612 39.77515606 3.71280039 49.8495986 3.734375 59.87109375 C3.73302577 62.08398989 3.73108309 64.29688575 3.72857666 66.50978088 C3.72564187 71.12495778 3.72987275 75.74005681 3.73925781 80.35522461 C3.75069835 86.26886089 3.74405342 92.18231652 3.73211288 98.09594631 C3.72488974 102.65553655 3.72718351 107.21508384 3.73236847 111.77467537 C3.73370127 113.95596399 3.73207019 116.13725652 3.72740936 118.31854057 C3.72233158 121.360171 3.73007004 124.40150677 3.74121094 127.44311523 C3.73513824 128.79048264 3.73513824 128.79048264 3.72894287 130.16506958 C3.7590178 134.59631494 4.00830972 137.94803372 6 142 C7.94107451 150.88535051 8.33806464 159.74728013 8.3125 168.8125 C8.33666992 170.55563477 8.33666992 170.55563477 8.36132812 172.33398438 C8.36528607 179.29601293 8.36539914 186.08597643 3.58325195 191.64770508 C-0.81330178 195.40291111 -7.59004229 194.39410288 -13 194 C-17.76297755 192.38398976 -20.30464153 190.23556331 -23 186 C-24.642618 181.10212077 -25.39608971 176.44774081 -25.625 171.3125 C-25.66294678 170.55195313 -25.70089355 169.79140625 -25.73999023 169.0078125 C-26.25888591 157.01555682 -26.06686023 144.99981916 -26 133 C-25.97345736 128.1250026 -25.95350943 123.25004198 -25.9375 118.375 C-25.92920166 117.26060547 -25.92090332 116.14621094 -25.91235352 114.99804688 C-25.90739868 113.46374023 -25.90739868 113.46374023 -25.90234375 111.8984375 C-25.89710693 110.99786621 -25.89187012 110.09729492 -25.88647461 109.16943359 C-25.85755413 106.95167378 -25.85755413 106.95167378 -27 105 C-31.66384053 103.91861382 -36.41202233 103.71637296 -41.1796875 103.46484375 C-41.95128204 103.42186661 -42.72287659 103.37888947 -43.51785278 103.33460999 C-45.14316211 103.24483289 -46.76856194 103.15668111 -48.39404297 103.07006836 C-50.86060066 102.93826942 -53.32677846 102.80059582 -55.79296875 102.66210938 C-57.38018918 102.57517037 -58.96742824 102.48857078 -60.5546875 102.40234375 C-61.64570267 102.34142799 -61.64570267 102.34142799 -62.75875854 102.27928162 C-71.95640758 101.67158127 -71.95640758 101.67158127 -81 103 C-83.17503257 103.12511716 -85.35308552 103.20114414 -87.53125 103.24609375 C-89.46097656 103.29540039 -89.46097656 103.29540039 -91.4296875 103.34570312 C-94.11191584 103.40795301 -96.79414016 103.46356078 -99.4765625 103.51757812 C-106.47290434 103.7018754 -113.1322681 104.21764322 -120.00976562 105.50805664 C-125.30361761 106.37898346 -130.6491927 106.67204729 -136 107 C-135.98428955 108.39400024 -135.98428955 108.39400024 -135.96826172 109.81616211 C-135.79117722 128.00094726 -135.89784583 145.9743408 -137.71777344 164.09033203 C-138.01360325 167.14024529 -138.26534649 170.19149744 -138.5078125 173.24609375 C-138.67167435 175.24741227 -138.83572903 177.24871502 -139 179.25 C-139.0707373 180.16177002 -139.14147461 181.07354004 -139.21435547 182.01293945 C-139.86139261 189.45103492 -141.34022031 194.70933638 -147 200 C-151.69859897 200.74580936 -153.8385897 200.53424874 -158.125 198.5625 C-165.35634621 192.11716968 -170.05301015 183.03326167 -171.34765625 173.41796875 C-171.55815979 167.313366 -170.42565652 161.56959323 -169.21533203 155.60668945 C-166.65459238 142.64162537 -165.78301811 129.45692974 -166 116.26171875 C-166.06059203 110.01316556 -165.64097957 103.77051053 -165.26733398 97.53540039 C-165.01078754 92.79978422 -165.16770048 88.68323762 -166 84 C-166.07962651 80.83213583 -165.9955757 77.66792649 -165.9375 74.5 C-165.79766636 57.45232504 -167.16737358 40.36583102 -171.57421875 23.84765625 C-172.59014105 19.43911268 -172.72795301 15.54960294 -170.81640625 11.48046875 C-168.72058176 8.61842885 -166.68911578 7.12652882 -163.6875 5.25 C-162.30111328 4.36054688 -162.30111328 4.36054688 -160.88671875 3.453125 C-156.84431839 1.41824958 -153.76980156 0.44857815 -149.3671875 1.8203125 C-140.38909829 6.52044071 -140.38909829 6.52044071 -138 11 C-136.00186197 18.1101078 -135.75184633 25.03295096 -135.875 32.37109375 C-135.88257324 33.41523941 -135.89014648 34.45938507 -135.89794922 35.53517151 C-135.92217742 38.83612425 -135.95946694 42.13670979 -136 45.4375 C-136.05311019 49.81118761 -136.09307118 54.18470623 -136.125 58.55859375 C-136.14159668 59.56168076 -136.15819336 60.56476776 -136.17529297 61.59825134 C-136.18189941 62.52674393 -136.18850586 63.45523651 -136.1953125 64.41186523 C-136.20578613 65.2277562 -136.21625977 66.04364716 -136.22705078 66.88426208 C-136.13260291 69.30240982 -136.13260291 69.30240982 -134 72 C-130.94726131 72.52633426 -128.08340519 72.80396894 -125 73 C-123.76894531 73.103125 -122.53789063 73.20625 -121.26953125 73.3125 C-114.0740176 73.8702516 -107.36516536 73.93275055 -100.17456055 73.26708984 C-94.89475827 72.82287669 -89.60691827 72.67459808 -84.3125 72.5 C-76.70133348 72.2315046 -69.10035256 71.92649327 -61.5 71.4375 C-57.26569856 71.16535208 -53.05741568 70.95215071 -48.8125 71 C-44.71949524 71.03528452 -40.65046618 70.9002411 -36.5625 70.6875 C-35.38816406 70.62949219 -34.21382812 70.57148438 -33.00390625 70.51171875 C-30.04558226 70.22806352 -30.04558226 70.22806352 -28.15234375 68.70703125 C-25.92164605 65.40257398 -25.87840537 61.99450268 -25.90234375 58.09887695 C-25.90564697 57.1271907 -25.9089502 56.15550446 -25.91235352 55.15437317 C-25.92480103 53.58715767 -25.92480103 53.58715767 -25.9375 51.98828125 C-25.94128662 50.90548386 -25.94507324 49.82268646 -25.94897461 48.70707703 C-25.9652956 44.0785152 -25.99331747 39.45004195 -26.02050781 34.8215332 C-26.03868371 31.4396201 -26.05072513 28.05772176 -26.0625 24.67578125 C-26.07494751 23.12374748 -26.07494751 23.12374748 -26.08764648 21.5403595 C-26.14002002 5.88410495 -26.14002002 5.88410495 -23.6953125 1.84375 C-23.17710937 1.4003125 -22.65890625 0.956875 -22.125 0.5 C-21.61195313 0.0359375 -21.09890625 -0.428125 -20.5703125 -0.90625 C-14.1179511 -5.40043207 -6.48341906 -2.86711198 0 0 Z "
     fill="#C71D31"
     transform="translate(1131,133)"
     id="path4" />
  <path
     d="M0 0 C1.25641296 -0.00499512 2.51282593 -0.00999023 3.80731201 -0.01513672 C7.3690509 -0.02688136 10.93044514 -0.0239835 14.4921875 -0.015625 C15.53967163 -0.0195929 16.58715576 -0.02356079 17.66638184 -0.02764893 C32.55868632 0.06642889 32.55868632 0.06642889 36.81784058 3.69036865 C38.72573841 5.96676832 38.99474664 7.25417279 39.125 10.25 C37.89050667 16.11384333 35.52541019 22.04749186 31.125 26.25 C22.50497826 30.56718227 11.84812135 28.05733369 2.61499023 27.03442383 C-6.20081056 26.11290872 -15.02177181 25.83334115 -23.87890625 25.59204102 C-29.02154189 25.44701692 -34.11171966 25.25441684 -39.23046875 24.73046875 C-48.27894114 23.9233945 -57.37551758 24.10177687 -66.4519043 24.11962891 C-69.64181414 24.12492416 -72.83157918 24.11969411 -76.02148438 24.11328125 C-86.58995756 24.10940265 -97.13913591 24.25769585 -107.69921875 24.6953125 C-109.14842461 24.75342606 -109.14842461 24.75342606 -110.62690735 24.81271362 C-111.52177353 24.85405426 -112.41663971 24.8953949 -113.33862305 24.93798828 C-114.12093796 24.9738504 -114.90325287 25.00971252 -115.70927429 25.04666138 C-117.85236157 25.24787449 -119.80501106 25.67054074 -121.875 26.25 C-121.71902344 26.81847656 -121.56304688 27.38695312 -121.40234375 27.97265625 C-120.10533204 33.11775569 -119.77909501 36.96973048 -120.875 42.25 C-122.24719985 49.50902722 -122.28979516 56.82489506 -122.5 64.1875 C-122.53418533 65.33587341 -122.53418533 65.33587341 -122.56906128 66.50744629 C-122.82878412 75.52731846 -122.95176752 84.48534386 -122.4375 93.5 C-121.89427245 103.21671945 -121.66246684 112.92408144 -121.58688354 122.65466309 C-121.57077079 124.36967351 -121.54740388 126.08463283 -121.51638794 127.79943848 C-121.47417674 130.22073195 -121.45855188 132.64088373 -121.44921875 135.0625 C-121.43174591 135.78451599 -121.41427307 136.50653198 -121.39627075 137.25042725 C-121.42227667 143.43113606 -123.43363148 147.34208723 -127.3671875 152.02734375 C-129.84643306 154.10738875 -131.68673155 155.21469967 -134.875 155.8125 C-139.97953809 154.85539911 -142.89068299 152.42053915 -146.1875 148.5 C-150.1639452 140.8416611 -148.70480801 132.33319152 -148.09484863 124.0072937 C-145.82421444 92.33511749 -147.08100145 60.90978019 -148.875 29.25 C-152.10414752 29.22082772 -155.33326083 29.20314337 -158.5625 29.1875 C-159.47451172 29.17912109 -160.38652344 29.17074219 -161.32617188 29.16210938 C-162.65551758 29.15727539 -162.65551758 29.15727539 -164.01171875 29.15234375 C-164.82342529 29.14710693 -165.63513184 29.14187012 -166.47143555 29.13647461 C-169.02628886 29.25714569 -171.37593508 29.72114719 -173.875 30.25 C-178.37255183 30.49427125 -182.87146086 30.48101775 -187.375 30.5 C-189.20998047 30.5309375 -189.20998047 30.5309375 -191.08203125 30.5625 C-192.85126953 30.57023437 -192.85126953 30.57023437 -194.65625 30.578125 C-195.72939453 30.5874707 -196.80253906 30.59681641 -197.90820312 30.60644531 C-201.31254457 30.19743128 -203.13994976 29.28874706 -205.875 27.25 C-208.99667804 22.56748294 -208.5778082 17.72755666 -207.875 12.25 C-205.70071483 7.43484486 -201.58372699 5.24624252 -196.875 3.25 C-193.83325195 2.94116211 -193.83325195 2.94116211 -190.61328125 3.02734375 C-188.82386108 3.0571936 -188.82386108 3.0571936 -186.99829102 3.08764648 C-185.74072998 3.12059814 -184.48316895 3.1535498 -183.1875 3.1875 C-173.57087533 3.33219667 -164.21871599 3.20555916 -154.68676758 1.87280273 C-151.77237067 1.47806322 -149.23188756 1.18449662 -146.32373047 1.71826172 C-141.53244397 2.45700036 -136.81388056 2.41230012 -131.97265625 2.41796875 C-130.88864029 2.42202225 -129.80462433 2.42607574 -128.6877594 2.43025208 C-125.10431035 2.43980101 -121.52096022 2.43962707 -117.9375 2.4375 C-116.07517731 2.43858765 -116.07517731 2.43858765 -114.17523193 2.43969727 C-95.9273772 2.43853229 -77.73044411 2.018385 -59.5 1.25 C-39.65957005 0.41887488 -19.85553349 0.02747868 0 0 Z "
     fill="#C71D31"
     transform="translate(719.875,226.75)"
     id="path5" />
  <path
     d="M0 0 C3.02696333 4.68691097 3.4178225 9.26879279 2.45825195 14.72509766 C1.50035364 20.74912388 1.4501138 26.84869814 1.25 32.9375 C1.22626312 33.64742096 1.20252625 34.35734192 1.17807007 35.08877563 C0.77827267 47.85554346 1.35298091 60.31570763 2.9375 73 C3.13859375 74.83111328 3.13859375 74.83111328 3.34375 76.69921875 C4.14310327 82.94800922 5.71192391 88.75068752 7.5625 94.75 C11.38813143 107.37611231 11.38813143 107.37611231 9.9375 112 C6.84996325 117.21860832 2.83988817 122.56472801 -3.02734375 124.72265625 C-4.00380859 124.89087891 -4.00380859 124.89087891 -5 125.0625 C-5.64839844 125.19785156 -6.29679688 125.33320313 -6.96484375 125.47265625 C-9.88993359 124.81355779 -11.21881214 123.07762436 -12.98950195 120.75073242 C-14.7016647 117.95712172 -15.17625491 115.34925236 -15.6875 112.125 C-15.85451416 111.073125 -15.85451416 111.073125 -16.02490234 110 C-19.58101515 85.95532097 -21.35669628 61.28753758 -21.0625 37 C-21.68382812 37.77988281 -22.30515625 38.55976562 -22.9453125 39.36328125 C-24.25216443 40.99081824 -25.57911605 42.60271873 -26.9375 44.1875 C-28.78727814 46.63573577 -30.32093677 49.04930248 -31.875 51.6875 C-35.56897698 57.9532331 -39.60872336 63.96886416 -44.1875 69.625 C-45.79775113 71.66465143 -47.09973036 73.65667313 -48.4375 75.875 C-54.45784884 85.69767442 -54.45784884 85.69767442 -59.0625 88 C-63.17748317 88.39567146 -65.53704089 88.26788111 -69.25 86.375 C-72.32831016 83.77553809 -73.96210466 81.43701055 -76.0625 78 C-77.15913169 76.43220243 -78.26410412 74.87022289 -79.375 73.3125 C-81.88381245 69.74987934 -84.2578919 66.13523075 -86.5625 62.4375 C-89.30286928 58.07754168 -92.27524298 54.02929296 -95.4921875 50.01171875 C-96.8898762 48.22114741 -98.14970144 46.41055812 -99.375 44.5 C-100.82136988 41.91592301 -100.82136988 41.91592301 -103.0625 41 C-102.88976562 41.97710937 -102.71703125 42.95421875 -102.5390625 43.9609375 C-101.93029585 48.23521076 -102.13408699 52.33170595 -102.4375 56.625 C-102.48132813 57.36234375 -102.52515625 58.0996875 -102.5703125 58.859375 C-102.75098771 61.65984076 -102.93258317 64.40535212 -103.5324707 67.15112305 C-104.29650575 71.25776746 -104.56581061 75.38179097 -104.89453125 79.54296875 C-105.05456091 81.44082094 -105.21539395 83.33860553 -105.37695312 85.23632812 C-105.62780023 88.20660254 -105.87417161 91.17691243 -106.10668945 94.14868164 C-106.33406006 97.03151049 -106.58145562 99.91207556 -106.83203125 102.79296875 C-106.89574417 103.66624313 -106.95945709 104.53951752 -107.02510071 105.43925476 C-107.59142145 111.68293815 -108.99388437 117.47787404 -112.0625 123 C-115.81706567 125.50304378 -117.60995934 125.45280074 -122.0625 125 C-127.59266607 122.12431364 -131.9140857 118.40870244 -133.921875 112.44921875 C-135.1456592 107.05412132 -135.31995545 103.44545215 -132.98828125 98.2890625 C-125.58308415 79.97916588 -125.78644232 56.97173976 -125.6875 37.5 C-125.67973541 36.79812561 -125.67197083 36.09625122 -125.66397095 35.37310791 C-125.59874847 27.9281319 -125.80615855 21.08099803 -128.42553711 14.02099609 C-129.46103477 10.7355037 -129.03606836 8.24522786 -128.0625 5 C-125.55310648 1.68401571 -123.05800412 0.08968294 -119.0625 -1 C-112.39047499 -1.43045323 -106.77003289 -0.80502193 -101.0625 3 C-100.1299366 4.89843264 -99.200833 6.79871866 -98.296875 8.7109375 C-95.5411769 13.82118778 -91.5781332 18.18124016 -87.875 22.625 C-86.0625 25 -86.0625 25 -84.3125 28.1875 C-81.509113 33.24673748 -77.71814186 37.54303084 -74.0625 42 C-72.01240188 44.58862028 -69.96608348 47.18016476 -67.921875 49.7734375 C-66.06762036 51.99386848 -64.20812155 54.05830116 -62.0625 56 C-61.4025 56 -60.7425 56 -60.0625 56 C-58.90051333 54.48386608 -58.90051333 54.48386608 -57.8125 52.484375 C-57.37389648 51.73357666 -56.93529297 50.98277832 -56.48339844 50.20922852 C-56.01450195 49.39768311 -55.54560547 48.5861377 -55.0625 47.75 C-50.96412066 40.82737348 -46.63736589 34.79346826 -41.33984375 28.734375 C-38.42065729 25.22934837 -36.09277565 21.48734976 -33.71875 17.6015625 C-31.56748528 14.2224533 -29.1311347 11.13139969 -26.62890625 8.0078125 C-25.24895165 6.23899289 -24.01430904 4.45432107 -22.8125 2.5625 C-20.89376077 -0.24708244 -19.24503639 -1.6058212 -16 -2.6875 C-10.17429218 -3.30725615 -4.99160506 -3.25982371 0 0 Z "
     fill="#C71D31"
     transform="translate(673.0625,84)"
     id="path6" />
  <path
     d="M 4.7537461,-1.2509858 C 10.107557,-0.80483492 9.2299909,2.2588725 12.75,6.3125 c 3.08588,5.730919 4.808998,10.539293 3,17 -1.0625,2.4375 -1.0625,2.4375 -2,4 h -2 l -0.792969,1.820312 C 9.675772,31.446543 8.5019292,32.567083 6.4375,34.1875 c -2.3854317,1.950384 -4.0654592,3.60511 -6,6.0625 -6.1789408,7.800656 -16.506953,12.629928 -25.375,16.75 l -2.048828,0.970703 C -32.004464,60.3125 -32.004464,60.3125 -34.25,60.3125 l -1,3 c -1.96875,1.175781 -1.96875,1.175781 -4.5,2.3125 -5.104269,2.430954 -10.138083,5.050913 -14.5,8.6875 l -1,3 2.125,0.8125 c 7.619736,3.147282 16.071276,6.954335 22.375,12.3125 3.324858,2.493643 6.838735,3.509658 10.78125,4.75 3.079804,1.274402 5.129376,3.043111 7.71875,5.125 1.968657,0.92412 3.9714628,1.77851 6,2.5625 5.60167857,2.17922 5.60167857,2.17922 8.2109375,3.87109 5.0713585,2.8482 10.7669325,4.24723 16.3046875,5.96094 l 2.773437,0.88672 2.521973,0.7832 c 2.343009,1.00139 3.577956,1.98018 5.188965,3.93555 1.124393,3.04282 1.450769,5.78415 1,9 -3.331902,4.8116 -8.671871,7.00195 -14,9 L 12.375,138 c -5.4306451,1.96627 -9.8168823,2.39032 -15.28125,0.29297 -4.1048496,-1.9981 -7.697781,-4.24599 -11.34375,-6.98047 l -2.9375,-1.375 c -3.386068,-1.79669 -5.393729,-3.89114 -8.0625,-6.625 -1.255751,-0.91686 -2.527192,-1.81256 -3.8125,-2.6875 l -3.1875,-2.3125 v -2 l -2.195312,-0.32422 C -37.477445,115.2577 -39.495239,114.15935 -42.125,112.5 L -44.734375,110.87891 -47.25,109.3125 c -2.322014,-1.35451 -4.659693,-2.67722 -7,-4 v -2 l -2.207031,-0.79297 C -59.302361,101.28987 -61.457758,99.848535 -63.9375,98 -70.914059,93.010829 -78.428129,89.549783 -86.339844,86.304687 -88.485936,85.189948 -89.759646,84.221043 -91.25,82.3125 c -1.525911,-4.881181 -1.693773,-9.655647 0.6875,-14.25 3.141547,-4.389317 7.525902,-6.2252 12.375,-8.328125 3.056618,-1.479533 5.351782,-3.23701 7.9375,-5.421875 4.607143,-3 8,-6 8,-6 1.91069,-0.703939 3.823828,-1.402098 5.75,-2.0625 5.851761,-2.438234 10.529658,-7.158763 15.25,-11.289063 3.416312,-2.815788 7.039005,-5.347922 10.644531,-7.914062 2.390343,-1.669155 2.390343,-1.669155 4.355469,-3.734375 4.759051,-0.786605 6.152232,-4.343941 9.375,-7.375 2.313718,-2.227134 4.232093,-4.340284 5.9375,-7.0625 L -9.25,6.3125 h 2 l 0.875,-1.875 C -4.5929974,1.0714951 0.87970907,-0.87848226 4.7537461,-1.2509858 Z"
     fill="#c71d31"
     transform="translate(267.25,77.6875)"
     id="path7"
     sodipodi:nodetypes="ccccccccccccccccccccccccccccccccccccccccccccccccccccccccccc" />
  <path
     d="M0 0 C3.90089083 -0.00559149 7.80145115 -0.02993888 11.70223618 -0.05797195 C14.75293981 -0.07659717 17.80356103 -0.08180274 20.85431671 -0.08333588 C22.2943335 -0.08633735 23.73434974 -0.09427974 25.17430878 -0.10752106 C41.13407622 -0.24445854 41.13407622 -0.24445854 46.74267578 4.99023438 C48.33653619 8.17795519 48.74671931 10.67201852 48.86767578 14.24023438 C47.12327493 19.47343692 44.73893089 25.77862261 39.6015625 28.39379883 C36.58689155 29.32716766 34.15291102 29.48353422 31.00048828 29.47070312 C29.29892578 29.46780273 29.29892578 29.46780273 27.56298828 29.46484375 C26.38478516 29.45259766 25.20658203 29.44035156 23.99267578 29.42773438 C22.85314453 29.42708984 21.71361328 29.42644531 20.53955078 29.42578125 C14.71708043 29.39634179 8.95149446 29.1981069 3.14697266 28.73803711 C-6.16922796 28.10028546 -15.46183593 28.09526604 -24.79638672 28.10742188 C-26.64627088 28.10674643 -28.49615496 28.1057744 -30.34603882 28.10452271 C-34.19001119 28.10306075 -38.03396008 28.1051539 -41.87792969 28.10986328 C-46.79934842 28.11560016 -51.72071308 28.11224724 -56.6421299 28.10629082 C-60.44766651 28.10267869 -64.25319027 28.10382611 -68.05872726 28.10641861 C-69.87438336 28.10708399 -71.69004063 28.10627308 -73.50569534 28.10393906 C-76.0344275 28.10139743 -78.5630713 28.10527264 -81.09179688 28.11083984 C-82.20767685 28.1078035 -82.20767685 28.1078035 -83.34609985 28.10470581 C-87.07810735 28.11991367 -90.49768557 28.4049253 -94.13232422 29.24023438 C-96.3969905 29.38641477 -98.66479404 29.48703236 -100.93310547 29.55664062 C-101.92494843 29.58828812 -101.92494843 29.58828812 -102.93682861 29.62057495 C-109.75673177 29.83058416 -116.57838073 29.98539092 -123.39990234 30.13183594 C-126.50597787 30.19963676 -129.61102529 30.28241577 -132.71630859 30.37988281 C-136.35330111 30.49342999 -139.98976539 30.57605958 -143.62802124 30.63619995 C-145.64794786 30.67679235 -147.66720191 30.74734487 -149.6862793 30.81860352 C-157.74417939 30.9101052 -163.19907722 29.94886854 -169.13232422 24.24023438 C-171.83319577 20.92513864 -173.19862329 18.54302209 -173.07373047 14.20507812 C-172.66059669 11.99459945 -172.13717509 10.2565939 -171.13232422 8.24023438 C-164.85908506 5.07502698 -159.35965807 4.8469142 -152.42919922 4.98242188 C-150.92888153 4.99234665 -150.92888153 4.99234665 -149.39825439 5.00247192 C-146.22595411 5.02573525 -143.0543722 5.06943733 -139.88232422 5.11523438 C-136.69608266 5.15034845 -133.5098807 5.18112095 -130.32354736 5.20657349 C-128.34687886 5.22349558 -126.37025124 5.24659219 -124.39373779 5.27658081 C-123.05149139 5.29121872 -123.05149139 5.29121872 -121.68212891 5.30615234 C-120.50586945 5.32305618 -120.50586945 5.32305618 -119.30584717 5.34030151 C-117.11354615 5.23936985 -115.24201892 4.82172293 -113.13232422 4.24023438 C-111.6966374 4.09853591 -110.25680359 3.99540831 -108.81591797 3.92382812 C-107.56029053 3.86110718 -107.56029053 3.86110718 -106.27929688 3.79711914 C-105.3851709 3.75772217 -104.49104492 3.7183252 -103.56982422 3.67773438 C-102.63960449 3.63382568 -101.70938477 3.58991699 -100.75097656 3.54467773 C-94.57829982 3.27732413 -88.43411613 3.227818 -82.25732422 3.30273438 C-76.77251023 3.35972236 -71.5697402 3.14497649 -66.13232422 2.30273438 C-59.54283146 1.29881937 -53.02561543 0.92141113 -46.36669922 0.68945312 C-45.20265564 0.64810242 -44.03861206 0.60675171 -42.83929443 0.56414795 C-28.56222501 0.10117222 -14.28356378 0.01746374 0 0 Z "
     fill="#C71D31"
     transform="translate(277.13232421875,226.759765625)"
     id="path8" />
  <path
     d="M0 0 C5.51699128 2.89314421 9.68940379 7.45896776 13.87060547 11.98095703 C14.82580078 12.91294922 14.82580078 12.91294922 15.80029297 13.86376953 C25.10882004 23.45016308 24.94814686 37.0540042 24.83935547 49.57861328 C24.4277016 58.37771464 22.32141528 65.04356272 16.87060547 71.98095703 C16.60248047 72.76470703 16.33435547 73.54845703 16.05810547 74.35595703 C11.8275117 83.70779589 1.08736878 87.43692132 -7.84033203 91.09033203 C-18.25714238 94.66373623 -32.2437042 94.31617195 -42.41064453 90.01611328 C-44.4663984 88.80468689 -46.27169404 87.47786445 -48.12939453 85.98095703 C-48.85642578 85.43697266 -49.58345703 84.89298828 -50.33251953 84.33251953 C-57.03613396 78.92858545 -60.94516603 72.37435626 -65.12939453 64.98095703 C-65.69142578 64.22943359 -66.25345703 63.47791016 -66.83251953 62.70361328 C-68.80370739 58.56530623 -68.57404172 54.63180934 -68.50439453 50.10595703 C-68.49134277 48.71171509 -68.49134277 48.71171509 -68.47802734 47.28930664 C-68.25691334 36.76373656 -67.51698003 26.70223667 -61.12939453 17.98095703 C-60.64599609 17.30291016 -60.16259766 16.62486328 -59.66455078 15.92626953 C-54.54201729 9.59443768 -48.16583275 5.92525804 -41.12939453 1.98095703 C-40.14583984 1.37509766 -39.16228516 0.76923828 -38.14892578 0.14501953 C-26.14208131 -6.75770077 -12.41291534 -5.35109553 0 0 Z M-32.12939453 17.98095703 C-32.97501953 18.49658203 -33.82064453 19.01220703 -34.69189453 19.54345703 C-41.59218039 26.44374289 -45.00548624 37.34708716 -45.12939453 46.98095703 C-44.32375283 54.29886919 -42.75818143 61.35217013 -37.44189453 66.66845703 C-31.80588999 70.88502339 -25.35835905 74.50765754 -18.12939453 73.98095703 C-13.03675183 72.79553331 -8.53600182 71.12785413 -5.31689453 66.85595703 C-4.55894037 65.58096986 -3.83156504 64.28749573 -3.12939453 62.98095703 C-2.66533203 62.23716797 -2.20126953 61.49337891 -1.72314453 60.72705078 C2.72569214 53.02809176 3.01066964 46.21433672 1.13623047 37.60986328 C-1.30861915 28.94267098 -4.36275649 21.09058732 -12.12939453 15.98095703 C-18.84095655 13.74376969 -26.18380478 14.01723053 -32.12939453 17.98095703 Z "
     fill="#C71D31"
     transform="translate(200.12939453125,276.01904296875)"
     id="path9" />
  <path
     d="M0 0 C0.85142578 -0.01546875 1.70285156 -0.0309375 2.58007812 -0.046875 C10.48188114 0.00127003 17.44568492 2.27261841 23.25 7.8125 C23.89582031 8.41578125 24.54164063 9.0190625 25.20703125 9.640625 C25.86058594 10.25421875 26.51414062 10.8678125 27.1875 11.5 C28.60227359 12.68975476 30.01891778 13.87728898 31.4375 15.0625 C38.17258956 21.01995691 41.62964311 28.05476058 42.40625 37.02734375 C42.4403863 39.8649237 42.33629063 42.66589269 42.1875 45.5 C42.10628906 47.4490625 42.10628906 47.4490625 42.0234375 49.4375 C41.463213 61.40720899 40.36782522 69.68503348 33.1875 79.5 C32.506875 80.5725 31.82625 81.645 31.125 82.75 C25.62536158 90.55593841 19.66610419 93.49926425 10.40234375 95.19140625 C-4.59625255 97.38296542 -18.05785859 98.17560192 -30.85546875 89.03125 C-33.41890241 87.02552945 -35.62747551 84.91502707 -37.8125 82.5 C-38.39 81.8915625 -38.9675 81.283125 -39.5625 80.65625 C-48.02201024 71.49178057 -48.99263754 62.88333357 -49 50.75 C-49.01224609 49.70328125 -49.02449219 48.6565625 -49.03710938 47.578125 C-49.0629976 33.77107107 -45.58072082 24.35722511 -35.8125 14.5 C-30.45149345 9.43274723 -25.76009437 6.71205165 -18.48828125 5.30078125 C-15.6403822 4.61759902 -15.6403822 4.61759902 -13.09375 2.44921875 C-8.63548274 -0.1992043 -5.08700607 -0.0911786 0 0 Z M-20.8125 26.5 C-22.92040966 29.13201483 -22.92040966 29.13201483 -23.8125 32.5 C-24.08578125 33.29277344 -24.3590625 34.08554687 -24.640625 34.90234375 C-28.14940548 46.01879827 -27.99420259 56.30903616 -22.67578125 66.7265625 C-19.42315214 72.36992531 -16.22533741 74.90655183 -9.9375 76.6875 C-5.0466369 77.7723155 -0.77359946 78.13948895 4.0625 76.5625 C9.62948316 72.88829111 14.48657873 68.0513819 18.1875 62.5 C20.03029337 52.91747448 21.35251767 41.10836278 16.1875 32.5 C15.54941406 31.37658203 15.54941406 31.37658203 14.8984375 30.23046875 C11.66374451 24.87679239 9.01396729 21.87008839 3.1875 19.5 C-6.33830791 17.30299783 -13.08011736 20.89975777 -20.8125 26.5 Z "
     fill="#C71D31"
     transform="translate(279.8125,271.5)"
     id="path10" />
  <path
     d="M0 0 C4.39046647 6.19654666 4.51941513 12.87425575 4.3125 20.1875 C4.28820923 21.91444092 4.28820923 21.91444092 4.26342773 23.67626953 C4.22090995 26.43011366 4.16959953 29.18266152 4.10742188 31.93603516 C3.99920902 36.82303149 3.92336772 41.71029266 3.8495636 46.59791565 C3.75974931 52.52370812 3.66205614 58.449364 3.5625 64.375 C3.54321442 65.5238266 3.52392883 66.6726532 3.50405884 67.85629272 C3.29943877 79.64142185 3.03797409 91.41947458 2.515625 103.1953125 C2.47695816 104.07923676 2.43829132 104.96316101 2.39845276 105.87387085 C1.45118198 125.72288135 1.45118198 125.72288135 -4 132 C-4.43957031 132.55300781 -4.87914062 133.10601562 -5.33203125 133.67578125 C-7 135 -7 135 -9.234375 135.06640625 C-15.44505705 133.82234106 -20.04502067 132.12723082 -24 127 C-27.31344182 120.90051541 -27.15247062 115.64804811 -26 109 C-24.87370215 101.56299512 -24.66986247 94.13678356 -24.4375 86.625 C-24.39431641 85.36171875 -24.35113281 84.0984375 -24.30664062 82.796875 C-23.9905911 73.14482295 -23.8201862 63.5770924 -24.4375 53.9375 C-24.53012185 52.46745887 -24.62256431 50.99740642 -24.71484375 49.52734375 C-24.76237793 48.78339355 -24.80991211 48.03944336 -24.85888672 47.27294922 C-25.00023511 44.99621308 -25.12918766 42.71911003 -25.25390625 40.44140625 C-25.70812511 31.7356747 -25.70812511 31.7356747 -26.5625 23.0625 C-27.42662773 15.8567897 -27.77877522 8.80799929 -25 2 C-19.12109591 -4.55723917 -7.12081587 -4.30571019 0 0 Z "
     fill="#C71D31"
     transform="translate(165,86)"
     id="path11" />
  <path
     d="M0 0 C1.30056084 -0.0024321 1.30056084 -0.0024321 2.62739563 -0.00491333 C24.72509247 0.11962372 24.72509247 0.11962372 31.7421875 7.13671875 C32.33924507 14.30140959 30.68807731 18.61928604 26.4921875 24.44921875 C23.07600505 27.78776069 21.4462074 27.83481761 16.7421875 28.13671875 C14.26981692 27.75068405 11.81159093 27.26766612 9.37109375 26.71484375 C-1.05832008 24.61931378 -11.43689742 24.75376166 -22.03588867 24.85546875 C-25.34630532 24.88696606 -28.65624424 24.89648998 -31.96679688 24.90234375 C-34.09635994 24.91150398 -36.22591822 24.9218766 -38.35546875 24.93359375 C-39.33266373 24.93784363 -40.3098587 24.94209351 -41.31666565 24.94647217 C-46.71925941 25.00255354 -51.90966665 25.37127023 -57.2578125 26.13671875 C-60.47508848 26.40733075 -63.6932121 26.63224149 -66.9140625 26.85546875 C-69.2398753 27.05109786 -71.56012816 27.32115481 -73.87109375 27.6484375 C-79.5457082 28.37525549 -85.23157798 28.39912756 -90.9453125 28.44921875 C-92.6169043 28.49272461 -92.6169043 28.49272461 -94.32226562 28.53710938 C-102.47249956 28.60059232 -102.47249956 28.60059232 -106.4453125 26.25390625 C-110.22581895 21.83788363 -110.49646403 17.84058064 -110.62109375 12.22265625 C-110.16250219 9.58945311 -109.35088394 8.75431494 -107.2578125 7.13671875 C-104.23389085 6.12874487 -102.05008875 5.96943541 -98.8828125 5.890625 C-97.81417969 5.85775391 -96.74554687 5.82488281 -95.64453125 5.79101562 C-93.41804951 5.73066693 -91.19148494 5.67328789 -88.96484375 5.61914062 C-87.88589844 5.58498047 -86.80695312 5.55082031 -85.6953125 5.515625 C-84.72464844 5.49056885 -83.75398437 5.4655127 -82.75390625 5.43969727 C-79.79314884 5.18311207 -77.04907871 4.73630466 -74.13989258 4.16625977 C-68.0070176 3.00914477 -61.93303461 2.59839168 -55.70703125 2.28515625 C-54.53179398 2.22139801 -53.3565567 2.15763977 -52.14570618 2.09194946 C-49.66754928 1.95924802 -47.18920413 1.83002082 -44.71069336 1.70410156 C-40.99339628 1.51417547 -37.27702709 1.31069285 -33.56054688 1.10546875 C-22.37417625 0.50656452 -11.20406861 0.01547548 0 0 Z "
     fill="#C71D31"
     transform="translate(727.2578125,349.86328125)"
     id="path12" />
  <path
     d="M0 0 C1.05622559 -0.02151123 2.11245117 -0.04302246 3.20068359 -0.06518555 C12.65062894 -0.10533683 12.65062894 -0.10533683 16.5625 3.25 C19.03228187 6.21373825 19.55317242 7.74631069 19.625 11.625 C18.30310778 16.13498521 16.1875712 19.24467165 12.5625 22.25 C8.92700872 23.70419651 5.03930278 23.31728432 1.1875 23.25 C-5.80083248 23.19619038 -12.7673934 23.33720581 -19.75 23.625 C-20.63155762 23.6559375 -21.51311523 23.686875 -22.42138672 23.71875 C-27.09506145 23.92704748 -31.56026122 24.41105343 -36.16015625 25.2734375 C-43.29784339 26.53319823 -50.33125427 26.54351803 -57.5625 26.5 C-58.85542969 26.50773437 -60.14835938 26.51546875 -61.48046875 26.5234375 C-80.08425109 26.48558647 -80.08425109 26.48558647 -84.9375 21.875 C-85.68 20.575625 -85.68 20.575625 -86.4375 19.25 C-86.85 18.610625 -87.2625 17.97125 -87.6875 17.3125 C-88.7379612 14.42373171 -88.81872792 12.29982336 -88.4375 9.25 C-86.9375 6.9375 -86.9375 6.9375 -84.4375 5.25 C-77.09407246 3.87420272 -69.75418161 4.2590611 -62.3125 4.375 C-50.19296602 4.5037499 -38.54568461 3.54303131 -26.57617188 1.59179688 C-17.76890507 0.18424282 -8.89994686 0.10725206 0 0 Z "
     fill="#C71D31"
     transform="translate(716.4375,270.75)"
     id="path13" />
  <path
     d="M0 0 C2.78534836 2.78534836 3.18986421 4.47206354 3.3125 8.3125 C3.25992816 11.58772538 3.04321434 12.92048562 1.4375 15.875 C-5.75400833 22.14452008 -13.21039632 21.30552846 -22.3125 21.0625 C-32.11473877 20.66925274 -32.11473877 20.66925274 -41.77734375 21.98046875 C-48.68529601 23.59661788 -55.75085702 23.29770813 -62.80566406 23.26074219 C-65.25871142 23.24996172 -67.71103649 23.26071738 -70.1640625 23.2734375 C-71.73958493 23.27211679 -73.31510692 23.26955624 -74.890625 23.265625 C-75.6157428 23.26967346 -76.3408606 23.27372192 -77.08795166 23.27789307 C-81.42796434 23.23812539 -85.00910956 22.73356609 -89 21 C-91.95314386 17.73599889 -93.253401 15.15883731 -93.4375 10.8125 C-93 7 -93 7 -91.8359375 5.3359375 C-86.3333682 1.33194026 -77.34457473 1.90509225 -70.8125 2.125 C-57.99029512 2.35655223 -44.64938465 -0.13251502 -32.20703125 -3.1171875 C-22.2410221 -5.41085268 -8.73679288 -5.82452859 0 0 Z "
     fill="#C71D31"
     transform="translate(728,312)"
     id="path14" />
  <path
     d="M0 0 C2.55147732 2.47174365 3.38771997 4.55373809 4 8 C3.90947485 10.33613292 3.75276274 12.6698687 3.5625 15 C2.98875164 23.10442329 2.8830459 31.18936175 2.875 39.3125 C2.87056885 40.47974609 2.8661377 41.64699219 2.86157227 42.84960938 C2.872217 49.39195359 3.16377918 55.83127148 3.76416016 62.34545898 C4.06213093 65.69932675 4.20290772 69.00790167 4.25 72.375 C4.27578125 73.49648437 4.3015625 74.61796875 4.328125 75.7734375 C3.95132121 79.47867477 2.94418414 81.83954901 1 85 C-3.48099137 87.5605665 -7.14567837 87.01778709 -11.9453125 85.7734375 C-15.4926604 84.43812403 -17.34007513 82.31984974 -19 79 C-19.01650369 76.95539731 -18.96370138 74.91009776 -18.87890625 72.8671875 C-18.83040527 71.59762207 -18.7819043 70.32805664 -18.73193359 69.02001953 C-18.70411804 68.34408752 -18.67630249 67.66815552 -18.64764404 66.97174072 C-18.50401696 63.43480796 -18.38188993 59.89717238 -18.26171875 56.359375 C-18.23752869 55.64770172 -18.21333862 54.93602844 -18.18841553 54.20278931 C-17.98018935 47.84369303 -17.88022173 41.48767752 -17.875 35.125 C-17.87419434 34.15812256 -17.87338867 33.19124512 -17.87255859 32.19506836 C-17.90872008 24.94344404 -18.35493044 17.77327343 -19.07421875 10.55859375 C-18.98223966 6.1484385 -18.09276312 3.86612959 -16 0 C-10.2273878 -3.92537629 -5.88086153 -3.08157144 0 0 Z "
     fill="#C71D31"
     transform="translate(721,122)"
     id="path15" />
  <path
     d="M0 0 C3.87459453 2.65903546 5.86270353 5.45081412 7 10 C7.58765009 14.87297536 7.51168201 18.06191631 5.125 22.4375 C1.38726547 26.94476811 1.38726547 26.94476811 -1.35546875 27.3359375 C-7.82403818 27.42515915 -11.86099379 27.06837991 -17 23 C-20.11352638 18.58080127 -20.75485405 14.29417911 -20 9 C-19.12173926 5.74788956 -18.18224808 2.80890658 -15.29296875 0.83203125 C-10.40209456 -0.94268119 -5.10170996 -0.63447662 0 0 Z "
     fill="#C71D31"
     transform="translate(720,85)"
     id="path16" />
  <path
     id="path2"
     d="M -121.375 -1.2851565 C -127.46241 -0.85034139 -133.46926 -0.53468245 -139.57031 -0.58593775 C -150.80023 -0.68222859 -162.0184 -0.47446717 -173.24414 -0.20312525 L -175.96484 -0.136719 C -183.50272 0.04638406 -191.04045 0.23464584 -198.57812 0.425781 C -205.18226 0.59381502 -211.7863 0.76131865 -218.39062 0.92187475 L -221.15234 0.988281 C -233.5124 1.2907829 -245.85857 1.490959 -258.22265 1.425781 C -267.88641 1.3207075 -279.17277 0.81972982 -287.14062 7.238281 L -288.89062 9.425781 L -291.57812 11.738281 C -294.24703 14.888727 -294.24703 14.888727 -294.64062 23.113281 C -294.70815 25.551271 -294.78874 27.988986 -294.89062 30.425781 C -295.57844 32.489228 -296.20017 34.575505 -296.76562 36.675781 C -297.1402 38.259215 -297.51527 39.842533 -297.89062 41.425781 C -300.31778 50.39672 -301.10552 58.705844 -301.01562 67.988281 C -300.89355 77.810631 -300.94566 87.602151 -301.19335 97.421875 C -301.2385 99.131589 -301.28312 100.84106 -301.32812 102.55078 C -301.38721 105.01284 -301.44651 107.4756 -301.51171 109.9375 L -301.57421 112.24609 C -301.63873 114.97889 -301.74984 117.69419 -301.89062 120.42578 C -302.90662 127.5903 -303.09944 134.67188 -303.18164 141.90039 C -303.19894 143.452 -303.21808 145.00311 -303.23828 146.55469 C -303.29493 150.79788 -303.34743 155.04185 -303.39453 159.28516 C -303.42403 161.98321 -303.45307 164.68089 -303.48437 167.37891 C -303.81281 195.41108 -303.99251 223.44245 -304.01171 251.47656 C -304.01271 254.26231 -304.01553 257.04823 -304.01953 259.83398 C -304.02553 264.29117 -304.03034 268.74984 -304.02734 273.20703 C -304.02534 274.8559 -304.02443 276.50347 -304.02343 278.15234 C -304.02643 280.44019 -304.02939 282.72778 -304.02539 285.01562 L -304.01953 287.10742 C -304.01699 291.02115 -303.88458 294.82085 -303.38867 298.69922 C -302.8461 302.2888 -302.84606 302.28894 -302.79296 305.38281 L -302.82812 308.09766 L -302.85156 311.10937 C -302.87776 313.16927 -302.90388 315.22916 -302.92968 317.28906 L -302.95312 320.28516 C -302.97542 321.99868 -302.95922 323.71349 -302.89062 325.42578 C -302.24004 327.90867 -301.87636 329.87228 -301.79296 332.47266 L -301.82812 336.03516 L -301.85546 339.98828 C -302.01441 357.41286 -305.00454 381.25491 -294.89062 396.42578 C -281.77969 406.91987 -265.1063 406.73389 -249.05859 406.52148 C -245.91966 406.47687 -242.77975 406.44342 -239.64062 406.41602 L -237.34765 406.39844 C -232.49532 406.36026 -227.74352 406.44361 -222.91015 406.94531 C -218.72563 407.39593 -214.72982 407.42564 -210.52929 407.20898 C -197.83095 406.48301 -185.11685 406.19722 -172.40234 405.92969 L -169.20312 405.86328 C -154.36545 405.55178 -139.54344 405.39298 -124.70312 405.48828 C -111.54034 405.57287 -98.47121 405.11735 -85.32812 404.42578 C -71.356253 403.68825 -57.411491 403.34927 -43.42187 403.35937 L -40.894526 403.36328 C -32.40775 403.37358 -23.922086 403.39709 -15.435542 403.46289 C -0.38727241 403.58103 14.670906 403.73621 29.705083 402.95508 L 33.57813 402.73828 C 35.88597 402.63301 38.192929 402.50523 40.498052 402.35156 C 50.150962 401.36 62.62477 398.19789 69.10938 390.42578 C 77.500382 376.81467 77.337742 355.43176 75.876958 339.96094 C 75.243058 333.98881 74.980888 328.09239 74.970708 322.08789 L 74.98438 318.48828 C 74.992508 309.63821 75.086108 300.79497 75.29688 291.94727 C 75.879517 268.10721 76.179583 244.33278 75.67188 220.48828 C 75.297115 203.31972 75.068131 186.1667 75.103521 168.99414 L 75.10938 166.07031 C 75.12815 156.40596 75.14752 146.74234 75.20313 137.07812 C 75.22455 133.40845 75.240748 129.73807 75.251958 126.06836 C 75.256528 124.34112 75.262936 122.61394 75.269536 120.88672 C 75.335242 113.04873 75.681414 105.23616 74.076177 97.521484 C 73.358902 94.720382 73.116447 93.367349 73.472661 90.421875 C 74.208699 86.958424 74.269763 83.724869 74.298833 80.193359 L 74.29688 77.488281 C 74.306439 71.001954 74.029393 64.776167 73.04688 58.363281 C 72.340658 53.829634 72.053327 49.808628 72.48438 45.238281 C 72.929296 41.20691 73.26798 37.232803 73.35938 33.175781 C 73.178765 22.463905 68.443227 16.096817 61.10938 8.425781 C 51.620997 -0.05361213 37.893422 0.00654885 25.853521 0.253906 C 23.045379 0.31537457 20.236308 0.3580957 17.427739 0.394531 L 15.335942 0.4179685 C 10.199277 0.47642003 5.1285095 0.36176589 5e-06 -2.5e-07 C -40.244714 -3.0367386 -81.089919 -4.0347354 -121.375 -1.2851565 z M 48.763677 19.316406 C 51.555148 19.290155 53.421962 21.325062 51.751958 24.546875 C 50.939848 28.675065 51.870326 38.200607 50.957036 47.205078 C 49.403706 62.520043 52.162114 79.394531 52.162114 79.394531 L 52.351567 104.69531 L 52.544927 130.3418 L 54.054692 173.71875 L 55.261724 208.36719 L 57.302739 315.22461 C 57.302739 315.22461 56.726662 321.13556 57.779302 337.15234 C 58.663882 346.88272 60.323085 357.33019 60.500005 374.66797 C 60.569355 377.45362 58.346892 379.75786 55.560552 379.78906 C 55.560552 379.78906 42.811828 378.75122 29.064458 378.76172 C 20.220478 378.76846 12.909854 380.70419 1.8183644 379.95508 C -14.675726 378.8411 -28.442119 380.81802 -40.996089 381.1582 C -52.903319 381.48083 -62.127939 381.60301 -65.433589 381.11328 C -75.418929 382.8754 -91.197289 381.34756 -105.71484 381.55469 C -105.71484 381.55469 -133.73504 382.26582 -147.74609 382.01562 C -167.01127 380.76464 -208.54359 384.91955 -230.06054 382.91797 C -230.06054 382.91797 -241.31923 382.19062 -255.08007 383.19141 L -275.41992 383.41406 C -278.20566 383.44403 -280.478 381.19019 -280.4707 378.4043 L -280.45117 371.24023 L -280.32812 325.95312 L -280.19335 275.91602 L -280.04492 221.12305 L -279.8789 160.32227 L -279.5957 55.162109 L -279.55664 40.742187 L -279.51953 27.367187 C -278.98195 22.417943 -278.45375 20.815501 -272.17773 21.941406 L -247.98632 22.158203 L -211.45312 22.916015 L -194.64453 21.605469 L -48.958979 20.480469 L 30.843755 19.808594 C 40.043395 18.924013 46.714849 19.673828 46.714849 19.673828 C 47.425312 19.437367 48.119491 19.322464 48.763677 19.316406 z M 35.595708 28.285156 C 31.817516 28.242628 27.016792 29.066817 18.449224 28.849609 C -51.597466 29.022765 -19.982937 28.780967 -126.48242 29.052734 C -141.54447 29.09117 -170.85299 30.352047 -190.7832 29.667969 C -207.60478 29.090588 -222.9576 30.940403 -242.28515 31.455078 C -249.3862 31.644172 -258.23981 28.785418 -266.84179 31.048828 C -266.84179 31.048828 -271.04237 32.336671 -271.79296 38.841797 C -271.79296 38.841797 -271.19531 57.490339 -271.19531 69.75 C -271.44551 79.757884 -268.83554 96.272953 -269.33593 109.2832 C -270.83711 115.78833 -268.48964 125.04796 -269.24023 136.05664 C -269.62231 138.57836 -269.63377 163.9475 -269.81445 194.8457 C -269.9515 218.2836 -270.07005 245.94893 -270.16601 272.41211 C -270.24107 293.11087 -270.3022 313.0745 -270.3496 329.70703 C -270.3808 340.65562 -269.92962 352.16176 -269.92382 359.48242 C -269.91929 365.15223 -271.41996 367.36592 -271.46289 371.98047 C -268.84341 376.13631 -264.0185 372.93876 -251.68359 374.42773 C -243.56328 372.83549 -232.60826 372.97333 -203.04882 372.65234 C -186.58791 372.47359 -167.26577 372.17776 -146.75585 372.03711 C -135.71702 371.96141 -125.43229 371.18205 -115.10937 372.2168 C -104.84787 373.2454 -98.362622 373.8982 -85.216792 372.35742 C -79.473502 371.68428 -74.630397 371.7785 -68.763667 371.94141 C -58.953697 372.21381 -44.409158 370.90489 -31.158198 370.75781 C -19.700618 370.63063 -8.6252556 370.62703 -2.6191356 370.25 C 10.911964 369.4006 21.415411 369.84003 30.478521 369.92773 C 37.361591 369.99425 48.070864 369.72452 48.261724 364.18945 C 48.438634 359.05889 47.572271 350.61328 47.572271 350.61328 L 47.761724 327.61328 L 48.101567 289.04492 L 46.341802 215.63477 L 45.519536 186.77734 L 44.847661 163.25781 C 44.847661 163.25781 44.645351 150.17285 44.822271 143.62695 C 44.468441 134.2504 43.341802 110.71484 43.341802 110.71484 L 43.013677 92.49414 L 42.531255 65.599609 L 41.818364 46.322265 C 41.818364 46.322265 44.007761 32.539642 41.884771 29.708984 C 39.761776 28.647487 37.862623 28.310673 35.595708 28.285156 z M -144.11718 36.978515 C -139.09939 36.771335 -134.04057 36.948659 -123.92187 37.304687 L -121.39062 37.300781 C -114.08539 37.277628 -106.77026 37.163564 -99.478511 37.658203 C -91.01579 38.408915 -82.675867 38.514315 -74.187495 38.447265 C -65.36041 38.370563 -56.528141 38.086782 -47.730464 38.925781 C -41.141363 39.570447 -41.141363 39.570447 -26.51562 39.425781 C -25.175782 39.412141 -23.835938 39.399119 -22.496089 39.386719 L -18.617183 39.363281 C -15.188911 39.328667 -12.040483 39.402476 -8.6523388 39.9375 C -5.8913524 40.426025 -5.89062 40.425781 -2.9882763 40.304687 C 7.8110097 39.178893 18.662841 38.046019 29.10938 41.425781 C 30.425546 46.184227 31.345147 50.608668 31.591802 55.537109 C 31.644441 56.90188 31.701601 58.266485 31.763677 59.630859 L 31.863286 61.71875 C 31.975302 64.143573 32.120196 66.554441 32.333989 68.972656 C 33.107672 77.645933 33.3347 86.299195 33.501958 95.001953 C 33.556154 98.000091 33.610878 100.99804 33.669927 103.99609 C 33.821306 111.51449 33.96604 119.03147 34.107427 126.55078 C 34.23025 133.06629 34.353499 139.5823 34.48438 146.09766 C 34.546406 149.15948 34.607214 152.22124 34.662114 155.2832 C 34.696663 157.21153 34.732859 159.1401 34.771489 161.06836 L 34.826177 163.75586 C 34.87297 166.65437 34.96316 169.52912 35.107427 172.42578 C 36.191582 175.23624 36.193291 175.2364 36.222661 177.55273 L 36.205083 180.04297 L 36.195317 182.87891 L 36.169927 185.94531 C 36.153947 190.37635 36.133997 194.80729 36.107427 199.23828 C 36.040103 210.27225 35.744415 221.31774 36.638677 232.32422 C 37.057375 237.14846 37.090435 241.78041 36.789067 246.61133 C 36.289711 253.84563 35.994858 260.93446 36.544927 268.17578 C 37.190349 276.31614 37.225427 284.45424 37.232427 292.61523 L 37.232427 294.92578 C 37.25581 302.17941 37.449062 309.45151 36.572271 316.66406 C 36.107427 320.42578 36.107427 320.42578 36.228521 322.9375 C 37.048112 328.57346 37.200134 334.16816 37.230474 339.85352 L 37.232427 342.86328 L 37.246099 345.81055 L 37.240239 348.60937 C 37.236069 351.68086 37.357764 354.58994 36.107427 357.42578 C 33.615018 358.62712 31.373427 359.38318 28.64063 359.82812 L 26.011724 360.03906 L 22.986333 360.28516 L 19.712896 360.51562 C 5.9309287 361.52717 -7.8378005 361.80533 -21.652339 361.94922 C -25.587215 361.98863 -29.522235 362.03298 -33.457026 362.08008 C -36.043611 362.11358 -38.6302 362.14679 -41.216792 362.17969 C -47.760383 362.23992 -54.290231 362.33591 -60.826167 362.66016 C -75.853967 363.40941 -90.85185 363.5746 -105.89648 363.5625 C -109.53274 363.5585 -113.17038 363.55855 -116.80664 363.56055 C -122.93633 363.56255 -129.06563 363.56359 -135.19531 363.55859 C -142.27062 363.55259 -149.3446 363.55164 -156.41992 363.55664 C -162.59533 363.56109 -168.77184 363.56255 -174.94726 363.56055 C -178.62133 363.55937 -182.29468 363.55755 -185.96875 363.56055 C -189.44249 363.56393 -192.91687 363.56555 -196.39062 363.56055 L -200.27539 363.55469 C -207.36434 363.56689 -214.38645 363.4381 -221.45898 362.92187 C -225.1299 362.62485 -228.75987 362.35728 -232.44335 362.36328 C -239.82168 362.48587 -247.36981 366.18247 -257.02148 364.12695 C -263.39046 362.00395 -260.85505 353.81124 -260.84375 352.00391 L -260.83007 349.67578 C -260.77407 345.05746 -260.82631 340.46886 -261.11523 335.85742 C -262.12031 310.80606 -262.11974 310.80468 -262.02734 285.72656 C -262.02334 281.00462 -262.02339 276.28249 -262.02539 271.56055 C -262.02739 263.60222 -262.02843 255.64388 -262.02343 247.68555 C -262.01743 238.50078 -262.01648 229.31758 -262.02148 220.13281 C -262.02594 212.13936 -262.02739 204.14579 -262.02539 196.15234 C -262.02422 191.38255 -262.02239 186.61159 -262.02539 181.8418 C -262.03875 163.09908 -262.07418 144.37795 -261.22656 125.65039 C -260.93471 119.26858 -260.87728 113.0003 -261.20898 106.61719 C -261.91309 94.698656 -261.90957 82.855413 -261.58593 70.927734 L -261.51562 68.425781 C -261.45217 66.022563 -261.38795 63.61973 -261.31445 61.216797 L -261.24218 58.988281 C -261.10116 54.086045 -261.58738 48.736517 -258.57617 44.636719 C -254.77778 42.94652 -254.77852 42.946765 -250.48828 43.009765 C -243.6583 42.955848 -236.95162 42.726697 -230.23046 41.445312 C -214.6535 38.439961 -199.96793 38.268067 -184.16015 38.845703 L -181.30078 38.955078 C -179.49099 39.023338 -177.68076 39.092612 -175.87109 39.164062 C -171.86024 39.355647 -168.03793 39.61289 -164.06445 38.960937 C -154.11196 37.776189 -149.13498 37.185695 -144.11718 36.978515 z "
     transform="translate(326.89062,26.574219)"
     style="fill:#c71d31;fill-opacity:1" />
</svg>
