<?xml version="1.0" encoding="UTF-8" standalone="no"?>
<!-- Created with Inkscape (http://www.inkscape.org/) -->

<svg
   width="100.72007mm"
   height="108.54139mm"
   viewBox="0 0 100.72007 108.54139"
   version="1.1"
   id="svg1"
   sodipodi:docname="favicon-mark.svg"
   inkscape:version="1.4.3 (0d15f75042, 2025-12-25)"
   xmlns:inkscape="http://www.inkscape.org/namespaces/inkscape"
   xmlns:sodipodi="http://sodipodi.sourceforge.net/DTD/sodipodi-0.dtd"
   xmlns="http://www.w3.org/2000/svg"
   xmlns:svg="http://www.w3.org/2000/svg">
  <sodipodi:namedview
     id="namedview1"
     pagecolor="#ffffff"
     bordercolor="#000000"
     borderopacity="0.25"
     inkscape:showpageshadow="2"
     inkscape:pageopacity="0.0"
     inkscape:pagecheckerboard="0"
     inkscape:deskcolor="#d1d1d1"
     inkscape:document-units="mm"
     inkscape:zoom="1.004302"
     inkscape:cx="228.01906"
     inkscape:cy="187.19469"
     inkscape:window-width="1920"
     inkscape:window-height="1033"
     inkscape:window-x="5120"
     inkscape:window-y="22"
     inkscape:window-maximized="1"
     inkscape:current-layer="svg1" />
  <defs
     id="defs1" />
  <rect
     style="fill:#ffffff;fill-opacity:1;stroke-width:15.7536;stroke-opacity:0.768627"
     id="rect1"
     width="83.777092"
     height="90.099892"
     x="8.1669493"
     y="9.4841995" />
  <path
     id="path32"
     style="display:inline;fill:#c71d31;fill-opacity:1;stroke-width:0.244735"
     d="m 48.411797,5.0154158 c -1.489785,0.1064089 -2.959384,0.1841369 -4.452519,0.1715884 -2.748329,-0.023513 -5.494101,0.027916 -8.241431,0.094155 l -0.665137,0.015279 c -1.844778,0.044811 -3.690583,0.091452 -5.535301,0.1382057 -1.616266,0.041113 -3.232562,0.082223 -4.848888,0.1214844 l -0.675775,0.016746 C 20.967801,5.6469297 17.946558,5.6951222 14.920642,5.6791653 12.555575,5.6536028 7.3632751,5.0195294 5.4132644,6.5903569 4.6339302,9.752042 4.4929923,10.47418 4.593171,13.410784 c -0.091687,0.387521 0.3274851,1.79772 0.2350927,2.185198 -0.5940216,2.195495 -0.4020383,4.10145 -0.3800574,6.373183 0.029978,2.403866 0.017632,4.801002 -0.044076,7.204228 -0.011754,0.418427 -0.020566,0.835932 -0.033503,1.254361 -0.014698,0.602552 -0.029387,1.20614 -0.044075,1.808651 l -0.014698,0.564918 c -0.014698,0.668811 -0.04319,1.332993 -0.077579,2.001511 -0.2486118,1.753401 -0.2957771,3.486803 -0.3158767,5.255868 -0.00591,0.379732 -0.00886,0.759223 -0.014698,1.138947 -0.014699,1.038458 -0.026443,2.076161 -0.037903,3.114643 -0.00591,0.660307 -0.014698,1.321475 -0.020566,1.981772 -0.080523,6.86044 -0.124306,13.720647 -0.129007,20.581556 -2.648e-4,0.681768 -0.00226,1.363782 -0.00295,2.04555 -0.00187,1.09083 -0.00246,2.181748 -0.00158,3.272578 4.706e-4,0.403534 0.00128,0.806788 0.00158,1.210324 -7.355e-4,0.559914 -0.00138,1.119654 0,1.679569 l 0.00158,0.511768 c 7.639e-4,0.957826 0.032036,1.887561 0.1533978,2.836739 0.1328278,0.878491 0.1328278,0.878358 0.1457583,1.63553 l -0.00886,0.665146 -0.00591,0.73652 -0.017632,1.512523 -0.00591,0.733483 c -0.00591,0.419358 -0.00236,0.838345 0.014698,1.257399 0.1592753,0.607646 0.2486109,1.088726 0.2688876,1.72513 l -0.00886,0.871672 -0.00591,0.967345 c -0.03879,4.264407 -0.7713704,10.100329 1.7038681,13.813174 3.2087007,2.56824 7.2904486,2.52274 11.2178876,2.47075 0.768197,-0.011 1.535453,-0.0191 2.303708,-0.0258 l 0.561874,-0.007 c 1.187515,-0.01 2.350874,0.012 3.533775,0.13514 1.024097,0.11035 2.001614,0.11671 3.029619,0.0638 3.107727,-0.17766 6.218598,-0.24738 9.330264,-0.31283 l 0.783595,-0.0167 c 3.63131,-0.0763 7.259446,-0.11431 10.891372,-0.0911 3.221367,0.0206 6.41893,-0.0918 9.635504,-0.26119 3.419403,-0.18049 6.83287,-0.26215 10.256622,-0.25969 h 0.61806 c 2.07699,0.003 4.153834,0.008 6.230794,0.0243 3.682825,0.0291 7.368412,0.0666 11.047799,-0.12451 l 0.947601,-0.0517 c 0.564813,-0.0258 1.129126,-0.0582 1.693257,-0.0957 2.362435,-0.24265 5.415261,-1.01666 7.002265,-2.91874 2.053565,-3.331121 2.014302,-8.564529 1.656785,-12.350767 -0.155157,-1.461594 -0.218933,-2.904058 -0.221581,-4.373564 l 0.0029,-0.880786 c 0.002,-2.165918 0.02353,-4.329699 0.0758,-6.495043 0.142585,-5.834502 0.215458,-11.654143 0.09117,-17.48971 -0.09166,-4.201737 -0.146936,-8.398605 -0.138115,-12.601323 l 0.002,-0.71526 c 0.0059,-2.365197 0.0089,-4.73124 0.02353,-7.096408 0.0059,-0.898096 0.0089,-1.795887 0.01171,-2.693993 8.28e-4,-0.422716 0.0029,-0.845319 0.0059,-1.268029 0.01467,-1.918226 0.09991,-3.830992 -0.292987,-5.71904 -0.175438,-0.685527 -0.234213,-1.016415 -0.147233,-1.737277 0.180145,-0.847625 0.194833,-1.638369 0.201892,-2.502649 v -0.661707 c 0.0029,-1.587425 -0.06498,-3.11086 -0.305244,-4.680315 -0.172789,-1.109544 -0.243615,-2.093315 -0.138116,-3.211837 0.109024,-0.986616 0.191899,-1.959261 0.214228,-2.952155 -0.04397,-2.621512 -1.202849,-4.1802656 -2.997701,-6.057632 -2.322101,-2.0752149 -5.682091,-2.0605274 -8.628664,-1.9999915 -0.687264,0.014983 -1.374913,0.026153 -2.062266,0.034912 l -0.511768,0.00443 C 80.617402,5.4457797 79.377197,5.4181583 78.122063,5.3296418 68.271801,4.5864475 58.2744,4.3423734 48.415264,5.0152903 Z m 41.638439,5.0417462 c 0.683144,-0.0065 1.140671,0.491686 0.731956,1.280176 -0.198653,1.010311 0.02973,3.342212 -0.194242,5.545919 -0.380145,3.748102 0.294601,7.878487 0.294601,7.878487 l 0.04696,6.191323 0.04696,6.276365 0.369,10.616516 0.296138,8.47985 0.499633,26.151772 c 0,0 -0.14223,1.445349 0.115483,5.365207 0.216589,2.381358 0.623385,4.938287 0.666664,9.181444 0.01762,0.681745 -0.526866,1.246719 -1.208789,1.254349 0,0 -3.119977,-0.254621 -6.484429,-0.252068 -2.164413,0.0019 -3.953679,0.474913 -6.668153,0.291568 -4.03667,-0.272603 -7.40594,0.211349 -10.478315,0.294612 -2.914128,0.07894 -5.17123,0.109319 -5.980244,-0.01068 -2.443765,0.431254 -6.305761,0.0572 -9.858724,0.107825 0,0 -6.858025,0.173617 -10.287008,0.112373 -4.714854,-0.306156 -14.878259,0.71155 -20.144173,0.22172 0,0 -2.755264,-0.178165 -6.123004,0.06684 l -4.977955,0.05465 c -0.681766,0.0076 -1.237938,-0.545206 -1.236146,-1.227025 l 0.0059,-1.752457 0.03027,-11.084246 0.0335,-12.244454 0.03644,-13.410735 0.04085,-14.879221 0.06818,-25.737196 0.0089,-3.529221 0.0089,-3.272578 C 9.841043,10.817074 9.97005,10.424003 11.505885,10.69955 l 5.921001,0.05316 8.939981,0.185283 4.113898,-0.320424 35.655158,-0.274853 19.529171,-0.164008 c 2.251484,-0.21649 3.884562,-0.03341 3.884562,-0.03341 0.173963,-0.05786 0.343465,-0.08658 0.501133,-0.08807 z m -3.223988,2.195891 c -0.92445,-0.01 -2.098534,0.191338 -4.194361,0.138206 -17.142825,0.04237 -9.405787,-0.01646 -35.469875,0.0501 -3.686204,0.0095 -10.859606,0.317779 -15.737233,0.150342 -4.116807,-0.141291 -7.874273,0.311398 -12.604379,0.437355 -1.737868,0.04629 -3.903872,-0.654155 -6.009073,-0.100237 0,0 -1.028121,0.31533 -1.211847,1.907358 0,0 0.145757,4.563775 0.145757,7.564137 -0.06113,2.449272 0.578065,6.490932 0.455582,9.674987 -0.367392,1.592031 0.207176,3.858545 0.02351,6.55275 -0.09345,0.617152 -0.09727,6.825341 -0.14135,14.387195 -0.03351,5.736062 -0.06318,12.507542 -0.0867,18.983991 -0.01763,5.065699 -0.03233,9.950658 -0.04409,14.021213 -0.0059,2.679494 0.101677,5.496127 0.103147,7.28775 9.02e-4,1.3876 -0.366129,1.929124 -0.37662,3.058463 0.641071,1.017074 1.822531,0.235444 4.841306,0.599837 1.987331,-0.389666 4.668512,-0.357275 11.902743,-0.435839 4.028529,-0.04381 8.757255,-0.115905 13.776731,-0.150343 2.701575,-0.01851 5.218483,-0.209137 7.744855,0.04401 2.511354,0.251727 4.097852,0.412003 7.315074,0.03495 1.405595,-0.164736 2.591522,-0.14161 4.027326,-0.101729 2.40083,0.06665 5.959732,-0.254049 9.202695,-0.290053 2.804077,-0.03111 5.515672,-0.03219 6.985563,-0.124509 3.311525,-0.207878 5.88215,-0.10038 8.100199,-0.07896 1.68453,0.01615 4.305586,-0.04854 4.35232,-1.403182 0.04322,-1.255628 -0.168684,-3.322693 -0.168684,-3.322693 l 0.04548,-5.629445 0.08349,-9.439603 -0.431275,-17.965012 -0.20042,-7.062999 -0.165449,-5.755486 c 0,0 -0.04847,-3.202835 -0.0057,-4.804843 -0.0864,-2.294763 -0.362949,-8.054642 -0.362949,-8.054642 l -0.08053,-4.458603 -0.118433,-6.583121 -0.174552,-4.716765 c 0,0 0.536978,-3.374045 0.01763,-4.066806 -0.519103,-0.259542 -0.984263,-0.341381 -1.538382,-0.347759 z m -23.58988,3.562631 c 1.310146,0.10923 1.096006,0.859126 1.957475,1.851172 0.755237,1.402551 1.176201,2.578279 0.733462,4.159437 -0.260072,0.596541 -0.259484,0.597099 -0.488994,0.979496 h -0.490492 l -0.192777,0.444949 c -0.313585,0.566249 -0.601809,0.841085 -1.107055,1.237657 -0.583795,0.477325 -0.995032,0.882265 -1.468481,1.483672 -1.512178,1.909088 -4.039226,3.090374 -6.209548,4.098695 l -0.501129,0.238414 c -1.228099,0.573122 -1.228716,0.572511 -1.778276,0.572511 l -0.244498,0.735002 c -0.481823,0.287755 -0.481499,0.286725 -1.101,0.564917 -1.249169,0.594939 -2.481439,1.236038 -3.548968,2.126037 l -0.244498,0.735001 0.51938,0.198948 c 1.86479,0.770248 3.933347,1.701576 5.476058,3.0129 0.813716,0.610282 1.674481,0.859691 2.639333,1.163245 0.75374,0.311889 1.255429,0.743335 1.889122,1.252843 0.481824,0.22616 0.972023,0.435308 1.46848,0.627179 1.370917,0.533327 1.370536,0.533545 2.009108,0.947607 1.241146,0.697051 2.634073,1.03997 3.989357,1.459372 l 0.678831,0.217168 0.618061,0.191337 c 0.573393,0.245084 0.875252,0.484242 1.269533,0.962792 0.27506,0.744681 0.354756,1.416454 0.244497,2.203486 -0.81545,1.177561 -2.121953,1.712974 -3.425955,2.201965 l -0.826119,0.413059 c -1.32907,0.481213 -2.403006,0.584666 -3.740304,0.07139 -1.004613,-0.489003 -1.883686,-1.0392 -2.775982,-1.708424 L 57.86669,47.921898 C 57.038017,47.482186 56.547172,46.969106 55.894024,46.300036 55.586697,46.07564 55.274641,45.856612 54.960086,45.642483 l -0.780569,-0.566437 v -0.488987 l -0.536042,-0.07895 c -0.742042,-0.178798 -1.236445,-0.44736 -1.880041,-0.85346 L 51.124098,43.256773 50.509065,42.874088 C 49.940814,42.542593 49.368832,42.218323 48.796087,41.894593 V 41.405599 L 48.25549,41.211207 c -0.696346,-0.300941 -1.223044,-0.653144 -1.829937,-1.105542 -1.707395,-1.221022 -3.547352,-2.068372 -5.48364,-2.862555 -0.525227,-0.272826 -0.836491,-0.509373 -1.201208,-0.976459 -0.373446,-1.194592 -0.414352,-2.363826 0.168679,-3.488221 0.768843,-1.07422 1.841338,-1.523296 3.02809,-2.037957 0.748038,-0.36209 1.310998,-0.792542 1.94381,-1.327253 1.127507,-0.734203 1.957446,-1.468484 1.957446,-1.468484 0.4676,-0.172265 0.934849,-0.342552 1.406239,-0.504176 1.432129,-0.596716 2.577504,-1.7515 3.732723,-2.762328 0.83611,-0.689119 1.723528,-1.309708 2.605892,-1.937733 0.58503,-0.4085 0.583619,-0.408765 1.064532,-0.914196 1.16471,-0.192512 1.505891,-1.062289 2.294628,-1.804093 0.566252,-0.545055 1.035938,-1.061946 1.453288,-1.728165 l 0.413059,-0.627179 h 0.488993 l 0.215698,-0.460137 c 0.436099,-0.823723 1.774749,-1.299825 2.722851,-1.391035 z m -29.362092,1.588451 c 1.131885,-0.05348 2.302503,0.224839 3.173876,0.751709 1.074495,1.516507 1.106056,3.150193 1.055423,4.939998 -0.0059,0.422641 -0.0059,0.423786 -0.01175,0.854968 -0.01175,0.673956 -0.02351,1.347409 -0.03938,2.021257 -0.02645,1.196013 -0.04409,2.392273 -0.06231,3.588446 -0.02056,1.450243 -0.04555,2.899055 -0.06994,4.349263 -0.0059,0.281172 -0.0089,0.563772 -0.0147,0.853451 -0.04996,2.884225 -0.113727,5.766462 -0.241558,8.648416 -0.0089,0.216314 -0.01763,0.431634 -0.03027,0.654516 -0.231861,4.857739 -0.231566,4.858588 -1.565691,6.394815 -0.107555,0.135324 -0.2157,0.270592 -0.326486,0.410022 -0.408211,0.324082 -0.406859,0.323912 -0.953685,0.340166 -1.519987,-0.304466 -2.646319,-0.719368 -3.614256,-1.974178 -0.810897,-1.492752 -0.771048,-2.778445 -0.488995,-4.405452 0.275647,-1.820092 0.324312,-3.637672 0.381174,-5.476064 0.01175,-0.309168 0.02056,-0.618435 0.03351,-0.936975 0.07728,-2.362191 0.117546,-4.703859 -0.03351,-7.062999 -0.02351,-0.359769 -0.04408,-0.718425 -0.06671,-1.078202 -0.01175,-0.18208 -0.02351,-0.365186 -0.03497,-0.552772 -0.03468,-0.557198 -0.06671,-1.114539 -0.09727,-1.671975 -0.111089,-2.130589 -0.111089,-2.129445 -0.32041,-4.252075 -0.211584,-1.763484 -0.297393,-3.489488 0.382674,-5.155638 0.719385,-0.802394 1.812657,-1.187207 2.944572,-1.240697 z M 70.651681,52.5779 c 3.905899,-0.03351 3.906017,-0.0328 5.278638,1.248287 0.390078,0.780148 0.491256,1.390967 0.520878,2.26423 -0.426929,1.280747 -1.011518,2.823897 -2.268796,3.463921 -0.737812,0.228421 -1.333245,0.265861 -2.104762,0.262716 -0.416438,-7.34e-4 -0.416497,-7.73e-4 -0.84131,-0.0016 -0.288283,-0.0031 -0.576126,-0.0061 -0.873195,-0.0092 -0.27888,-1.56e-4 -0.558524,2.47e-4 -0.845867,0 -1.424959,-0.0071 -2.83452,-0.05596 -4.255099,-0.168562 -2.279994,-0.156073 -4.555286,-0.157865 -6.839775,-0.154897 -0.45273,-1.61e-4 -0.904845,2.44e-4 -1.357606,0 -0.940755,-4.9e-4 -1.882332,4.73e-4 -2.823087,0.0015 -1.204442,0.0015 -2.408296,-1e-5 -3.612738,-0.0015 -0.931352,-9.46e-4 -1.862879,-5.23e-4 -2.79423,0 -0.444356,1.61e-4 -0.888946,4.5e-4 -1.333333,0 -0.618853,-4.9e-4 -1.236854,5.3e-5 -1.855708,0.0015 -0.273002,-7.33e-4 -0.274177,-7.75e-4 -0.552792,-0.0015 -0.913367,0.0039 -1.749771,0.07347 -2.639305,0.277909 -0.554231,0.03578 -1.109257,0.06042 -1.664401,0.07746 -0.242735,0.0076 -0.242735,0.0074 -0.490494,0.01528 -1.669073,0.0514 -3.338882,0.08866 -5.008338,0.124512 -0.760175,0.01646 -1.519437,0.03688 -2.279406,0.06073 -0.890092,0.02792 -1.779274,0.04908 -2.66969,0.06378 -0.494342,0.01 -0.989566,0.02675 -1.483674,0.04405 -1.97205,0.02233 -3.307203,-0.212611 -4.759287,-1.609712 -0.660994,-0.811317 -0.994885,-1.39393 -0.964323,-2.455573 0.10109,-0.540979 0.229509,-0.967418 0.475329,-1.460891 1.535276,-0.774635 2.880951,-0.830429 4.577061,-0.797265 0.367186,0.0023 0.368009,0.0022 0.7426,0.0046 0.776366,0.0059 1.551704,0.01763 2.328012,0.02881 0.779775,0.0086 1.560344,0.01498 2.340148,0.02116 0.483764,0.0042 0.966527,0.01088 1.450261,0.01823 0.328484,0.0035 0.328484,0.0026 0.66361,0.0061 0.287989,0.0042 0.287989,0.005 0.581649,0.0092 0.536541,-0.02468 0.99468,-0.127979 1.511004,-0.270298 0.351347,-0.03468 0.70428,-0.05992 1.056921,-0.07744 0.307297,-0.01528 0.307619,-0.0147 0.621116,-0.03039 0.218931,-0.0096 0.436657,-0.0191 0.662111,-0.02881 0.227747,-0.01088 0.456404,-0.02233 0.690968,-0.03341 1.510652,-0.06544 3.01375,-0.07755 4.52543,-0.05921 1.342323,0.01411 2.616117,-0.03838 3.946833,-0.244496 1.612681,-0.245703 3.207054,-0.338065 4.836722,-0.394834 0.284755,-0.01 0.569043,-0.01999 0.862556,-0.03039 3.494074,-0.113286 6.988707,-0.133886 10.484396,-0.138205 v 0.0015 c 0.954685,-0.0015 1.909428,-0.0086 2.864084,-0.01528 0.746597,-0.0044 1.493312,-0.0059 2.239938,-0.0061 0.352435,-7.35e-4 0.704546,-0.0028 1.056951,-0.0061 z m -4.87319,10.964275 c 1.933818,0.01175 3.637921,0.568263 5.058444,1.924064 0.1581,0.147639 0.317023,0.29435 0.479884,0.446466 0.159863,0.150166 0.319638,0.300864 0.484439,0.455582 0.346263,0.291163 0.693026,0.581612 1.040229,0.871673 1.648299,1.457998 2.493281,3.179939 2.683355,5.375837 0.0089,0.694453 -0.01763,1.37928 -0.05319,2.072885 -0.02056,0.477001 -0.02056,0.47767 -0.03937,0.964311 -0.137237,2.929413 -0.405184,4.955543 -2.162476,7.357607 -0.166623,0.262481 -0.334068,0.525316 -0.505686,0.795743 -1.345938,1.910381 -2.803458,2.630667 -5.070609,3.044791 -3.670659,0.536351 -6.965168,0.729966 -10.097169,-1.507969 -0.627375,-0.490869 -1.169119,-1.008047 -1.703868,-1.599083 -0.141349,-0.148902 -0.282699,-0.297608 -0.428222,-0.451023 -2.07032,-2.242868 -2.30647,-4.34868 -2.308293,-7.318123 -0.0029,-0.256163 -0.0059,-0.513594 -0.0089,-0.777524 -0.0059,-3.37906 0.845514,-5.681722 3.236147,-8.094127 1.312026,-1.240128 2.460252,-1.906692 4.239907,-2.252079 0.696993,-0.167209 0.696405,-0.167885 1.319668,-0.698555 1.091067,-0.648159 1.959297,-0.620641 3.204263,-0.598329 0.20835,-0.0039 0.417024,-0.0082 0.631724,-0.01205 z m -24.838194,0.01058 c 1.587057,0.03858 3.185691,0.452263 4.704629,1.10706 h 0.0015 c 1.350198,0.708051 2.370767,1.825726 3.394069,2.932413 0.233625,0.228099 0.233625,0.227452 0.472303,0.460133 2.278112,2.346119 2.239205,5.675842 2.21258,8.741051 -0.100796,2.153445 -0.615856,3.784317 -1.949863,5.482137 -0.06554,0.191808 -0.131065,0.384002 -0.198948,0.581624 -1.035379,2.288716 -3.664751,3.201544 -5.84965,4.095658 -2.549352,0.874532 -5.971869,0.789644 -8.460096,-0.262718 -0.5031,-0.296485 -0.945516,-0.62074 -1.400157,-0.987089 -0.17806,-0.133121 -0.355732,-0.266773 -0.539075,-0.403946 -1.640599,-1.322527 -2.596312,-2.927088 -3.620319,-4.736507 -0.13753,-0.183932 -0.275941,-0.367827 -0.417614,-0.557327 -0.482412,-1.012782 -0.425549,-1.975125 -0.408504,-3.082751 0.0027,-0.341227 0.0015,-0.341335 0.0059,-0.689445 0.05407,-2.575972 0.236269,-5.03794 1.799522,-7.172337 0.118428,-0.165946 0.236563,-0.331684 0.358399,-0.502656 1.253635,-1.549613 2.813979,-2.448501 4.536037,-3.413809 0.240677,-0.148286 0.480943,-0.296736 0.728936,-0.449505 1.469245,-0.844664 3.044665,-1.180576 4.63172,-1.141986 z m 23.351493,4.621094 c -1.536276,0.08498 -2.81912,0.836912 -4.238409,1.864839 -0.515911,0.644144 -0.515176,0.644223 -0.733489,1.468483 -0.067,0.194012 -0.134299,0.389321 -0.203651,0.589217 -0.858708,2.720583 -0.820211,5.237835 0.481413,7.787368 0.796025,1.381127 1.578827,2.003008 3.117689,2.438867 1.196948,0.265479 2.242408,0.35408 3.425956,-0.03189 1.362453,-0.899199 2.550556,-2.082529 3.456312,-3.441141 0.450997,-2.345179 0.775073,-5.235659 -0.488994,-7.342421 -0.156043,-0.274941 -0.156338,-0.273795 -0.315848,-0.554287 -0.791647,-1.310231 -1.439683,-2.047131 -2.86561,-2.627174 -0.582827,-0.134414 -1.123423,-0.180198 -1.635516,-0.15187 z m -23.501834,0.05619 c -1.055393,-0.02881 -2.097386,0.224367 -3.006814,0.830672 -0.206882,0.126188 -0.413942,0.252667 -0.62717,0.382685 -1.688733,1.688737 -2.523962,4.355983 -2.554289,6.713721 0.197184,1.790943 0.580474,3.517433 1.88154,4.818514 1.379321,1.031932 2.95671,1.919331 4.725875,1.790426 1.246346,-0.290106 2.348081,-0.699393 3.135909,-1.744872 0.18543,-0.312033 0.36269,-0.627855 0.534542,-0.947602 0.113728,-0.18205 0.227748,-0.363706 0.344708,-0.551253 1.088775,-1.884205 1.158802,-3.552482 0.700077,-5.658296 -0.598342,-2.121157 -1.345997,-4.041808 -3.246756,-5.29231 -0.615974,-0.205325 -1.25437,-0.324402 -1.887622,-0.341685 z"
     sodipodi:nodetypes="cccccccccccccccccccccccccccccccccccccccccccccscccccccccccccsccccccccccccccccccsccccccccccccssccccccccccccccccccccccsscssscccccscccccsssssssccccccccccccccsscccccccccccccccccccccccccccccccccccccccccccccccccccccccccccsccccccccccccccccccccccsccccccccccsccscccccccscccccccccccccscccccscccccccccccccccccccccccccccscccccccccccccccccccssccccccccccssccccccccccsccccccc" />
</svg>
