<?xml version="1.0" encoding="UTF-8" standalone="no"?>
<!-- Created with Inkscape (http://www.inkscape.org/) -->

<svg
   width="100.72007mm"
   height="108.54139mm"
   viewBox="0 0 100.72007 108.54139"
   version="1.1"
   id="svg1"
   xmlns="http://www.w3.org/2000/svg"
   xmlns:svg="http://www.w3.org/2000/svg">
  <defs
     id="defs1" />
  <g
     id="layer1"
     transform="translate(-54.632654,-63.932037)">
    <g
       id="g1"
       transform="translate(-26.329787,1.7553191)">
      <path
         d="m 146.88115,76.135871 c 1.41653,0.118044 1.18434,0.92865 2.11568,2.001172 0.81647,1.516306 1.27238,2.788522 0.79375,4.497917 -0.28112,0.644922 -0.28112,0.644922 -0.52917,1.058333 h -0.52917 l -0.2098,0.481624 c -0.339,0.612175 -0.64958,0.908651 -1.19579,1.337387 -0.63115,0.516039 -1.07566,0.953852 -1.5875,1.604036 -1.63485,2.063924 -4.36747,3.341668 -6.71381,4.431771 l -0.54208,0.256832 c -1.32772,0.6196 -1.32772,0.6196 -1.92185,0.6196 l -0.26458,0.79375 c -0.5209,0.311092 -0.5209,0.311092 -1.19063,0.611849 -1.3505,0.64319 -2.68237,1.336387 -3.83646,2.298568 l -0.26458,0.79375 0.56224,0.214974 c 2.01606,0.832718 4.25219,1.840001 5.92005,3.257686 0.8797,0.65977 1.80942,0.92859 2.85254,1.25677 0.81487,0.33718 1.35715,0.80515 2.04225,1.35599 0.52088,0.2445 1.05079,0.47056 1.5875,0.67799 1.48211,0.57659 1.48211,0.57659 2.17248,1.02423 1.3418,0.75358 2.84875,1.12374 4.31395,1.57716 l 0.73381,0.23461 0.66727,0.20723 c 0.61992,0.26495 0.94666,0.52392 1.37291,1.04128 0.2975,0.80508 0.38385,1.53039 0.26458,2.38125 -0.88156,1.27307 -2.29443,1.8526 -3.70416,2.38125 l -0.89297,0.44648 c -1.43686,0.52024 -2.59738,0.63244 -4.04317,0.0775 -1.08607,-0.52867 -2.0367,-1.12342 -3.00136,-1.84692 l -0.77722,-0.3638 c -0.89589,-0.47538 -1.42709,-1.02953 -2.1332,-1.75287 -0.33225,-0.24258 -0.66865,-0.47957 -1.00872,-0.71106 l -0.84336,-0.61185 v -0.52917 l -0.58085,-0.0858 c -0.80225,-0.1933 -1.33612,-0.48391 -2.03191,-0.92294 l -0.6904,-0.42892 -0.66559,-0.41444 c -0.61437,-0.35838 -1.23288,-0.70835 -1.85209,-1.05834 v -0.52916 l -0.58394,-0.20981 c -0.75283,-0.32535 -1.32311,-0.7067 -1.97921,-1.19579 -1.84588,-1.32005 -3.83398,-2.23579 -5.92728,-3.094388 -0.56782,-0.294941 -0.90483,-0.551297 -1.29915,-1.056266 -0.40373,-1.291479 -0.44814,-2.554723 0.1819,-3.770312 0.8312,-1.16134 1.99123,-1.647084 3.27422,-2.203483 0.80873,-0.39146 1.41599,-0.856459 2.10013,-1.434538 1.21897,-0.79375 2.11667,-1.5875 2.11667,-1.5875 0.50553,-0.18625 1.01172,-0.370972 1.52135,-0.545703 1.54828,-0.645116 2.78597,-1.894089 4.0349,-2.986898 0.9039,-0.74501 1.8624,-1.414971 2.81636,-2.093929 0.63245,-0.44163 0.63245,-0.44163 1.15239,-0.988053 1.25916,-0.208123 1.62778,-1.149334 2.48047,-1.951302 0.61217,-0.589263 1.11974,-1.148367 1.57096,-1.86862 l 0.44648,-0.677995 h 0.52917 l 0.23151,-0.496093 c 0.47149,-0.890589 1.91948,-1.406521 2.94448,-1.505079 z"
         fill="#c71d31"
         id="path7"
         style="stroke-width:0.264583" />
      <path
         d="m 148.23809,115.9089 c 1.03211,-0.001 2.06413,-0.008 3.09622,-0.0153 0.80716,-0.005 1.61431,-0.006 2.42148,-0.007 0.38101,-7.9e-4 0.76201,-0.003 1.143,-0.006 4.22269,-0.0362 4.22269,-0.0362 5.70663,1.34878 0.42171,0.84342 0.53024,1.50331 0.56224,2.4474 -0.46154,1.38462 -1.09239,3.05286 -2.45166,3.7448 -0.79763,0.24695 -1.44162,0.28832 -2.2757,0.28493 -0.4502,-7.7e-4 -0.4502,-7.7e-4 -0.9095,-0.002 -0.31174,-0.003 -0.62347,-0.006 -0.94465,-0.01 -0.3015,-1.7e-4 -0.603,-3.5e-4 -0.91364,-5.3e-4 -1.54053,-0.008 -3.066,-0.0602 -4.60178,-0.18194 -2.46491,-0.16874 -4.92358,-0.17007 -7.39335,-0.16685 -0.48945,-1.8e-4 -0.9789,-4.3e-4 -1.46835,-7.7e-4 -1.01705,-4e-4 -2.03409,1.6e-4 -3.05114,0.001 -1.30213,0.002 -2.60424,6.4e-4 -3.90636,-9.5e-4 -1.00689,-9.5e-4 -2.01376,-6.6e-4 -3.02064,3e-5 -0.4804,1.8e-4 -0.96079,-4e-5 -1.44118,-6.6e-4 -0.66906,-6.6e-4 -1.3381,3.4e-4 -2.00716,0.002 -0.29524,-8e-4 -0.29524,-8e-4 -0.59645,-0.002 -0.98743,0.004 -1.89219,0.0794 -2.85385,0.30044 -0.5992,0.0387 -1.19922,0.0653 -1.79938,0.0837 -0.26242,0.008 -0.26242,0.008 -0.53015,0.0169 -1.80443,0.0556 -3.60933,0.0965 -5.41419,0.13528 -0.82181,0.0179 -1.64336,0.0398 -2.46496,0.0656 -0.96229,0.0301 -1.92444,0.0519 -2.88706,0.0678 -0.53444,0.0107 -1.0687,0.0294 -1.60291,0.0483 -2.13199,0.0242 -3.57527,-0.23011 -5.1451,-1.74052 -0.71461,-0.87712 -1.07588,-1.50739 -1.04283,-2.65514 0.1093,-0.58485 0.24779,-1.0447 0.51366,-1.5782 1.65979,-0.83746 3.11485,-0.89781 4.94853,-0.86196 0.39696,0.003 0.39696,0.003 0.80194,0.005 0.83934,0.006 1.67849,0.0177 2.51776,0.0298 0.84303,0.009 1.68604,0.0174 2.52909,0.0242 0.523,0.004 1.04598,0.0106 1.56893,0.0185 0.35514,0.004 0.35514,0.004 0.71745,0.008 0.31122,0.004 0.31122,0.004 0.62872,0.009 0.58005,-0.0267 1.07522,-0.13721 1.63341,-0.29106 0.37986,-0.0375 0.76082,-0.0648 1.14205,-0.0837 0.33222,-0.0166 0.33222,-0.0166 0.67115,-0.0335 0.23657,-0.0104 0.47314,-0.0208 0.71688,-0.0316 0.24612,-0.0116 0.49224,-0.0232 0.74582,-0.0352 1.63319,-0.0707 3.25884,-0.0838 4.89311,-0.064 1.45119,0.0151 2.82776,-0.0417 4.26641,-0.26458 1.74347,-0.26562 3.46782,-0.36548 5.22965,-0.42685 0.30799,-0.0109 0.61598,-0.0219 0.9333,-0.0332 3.77747,-0.12248 7.55537,-0.14463 11.33456,-0.14925 z"
         fill="#c71d31"
         id="path8"
         style="stroke-width:0.264583" />
      <path
         d="m 127.8644,128.94208 c 1.4597,0.76548 2.56365,1.97352 3.66993,3.16996 0.25273,0.24659 0.25273,0.24659 0.51056,0.49816 2.46289,2.5364 2.42037,6.13575 2.39159,9.44955 -0.10892,2.3281 -0.66621,4.09177 -2.1084,5.92729 -0.0709,0.20737 -0.14188,0.41474 -0.21497,0.62839 -1.11935,2.47434 -3.96101,3.461 -6.32313,4.42763 -2.75612,0.94547 -6.45673,0.85351 -9.14673,-0.28422 -0.54392,-0.32052 -1.02157,-0.67158 -1.51309,-1.06763 -0.19236,-0.14393 -0.38472,-0.28786 -0.58291,-0.43615 -1.77366,-1.42979 -2.80792,-3.16393 -3.915,-5.1201 -0.14871,-0.19884 -0.29741,-0.39768 -0.45062,-0.60255 -0.52154,-1.09493 -0.46078,-2.13566 -0.44235,-3.33313 0.003,-0.36889 0.003,-0.36889 0.007,-0.74524 0.0585,-2.78489 0.25427,-5.44699 1.94432,-7.7545 0.1279,-0.1794 0.2558,-0.3588 0.38757,-0.54363 1.35534,-1.6753 3.04237,-2.64611 4.9041,-3.6897 0.26023,-0.1603 0.52046,-0.3206 0.78858,-0.48576 3.17681,-1.82634 6.80932,-1.45418 10.09357,-0.0384 z m -8.5009,4.75746 c -0.22374,0.13643 -0.44748,0.27285 -0.678,0.41341 -1.8257,1.8257 -2.7288,4.71055 -2.76159,7.25951 0.21316,1.9362 0.62739,3.80238 2.03399,5.20898 1.49119,1.11564 3.1971,2.07412 5.10976,1.93477 1.34743,-0.31365 2.53826,-0.75489 3.38998,-1.88516 0.20054,-0.33734 0.39299,-0.67957 0.57877,-1.02526 0.12279,-0.19679 0.24557,-0.39359 0.37207,-0.59634 1.17709,-2.03702 1.25249,-3.83983 0.75655,-6.11643 -0.64687,-2.29319 -1.45494,-4.37072 -3.50987,-5.72265 -1.77576,-0.59192 -3.71856,-0.51956 -5.29166,0.52917 z"
         fill="#c71d31"
         id="path9"
         style="stroke-width:0.264583" />
      <path
         d="m 148.94722,127.74642 c 0.22527,-0.004 0.45055,-0.008 0.68265,-0.0124 2.09068,0.0127 3.93319,0.6137 5.46891,2.07946 0.17088,0.15962 0.34175,0.31923 0.5178,0.48369 0.17292,0.16235 0.34584,0.32469 0.524,0.49196 0.37432,0.31479 0.74915,0.62899 1.12448,0.94258 1.78199,1.57624 2.69667,3.43753 2.90215,5.81153 0.009,0.75077 -0.0185,1.49186 -0.0579,2.24172 -0.0215,0.51569 -0.0215,0.51569 -0.0434,1.0418 -0.14823,3.16698 -0.43805,5.35716 -2.33784,7.95403 -0.18008,0.28377 -0.36016,0.56754 -0.5457,0.8599 -1.45512,2.06532 -3.03184,2.84408 -5.48287,3.29179 -3.96838,0.57985 -7.5301,0.78957 -10.91613,-1.62988 -0.67824,-0.53068 -1.2626,-1.08908 -1.84072,-1.72806 -0.15279,-0.16098 -0.30559,-0.32196 -0.46302,-0.48782 -2.23824,-2.42477 -2.49506,-4.70242 -2.497,-7.9127 -0.003,-0.27694 -0.006,-0.55388 -0.01,-0.83922 -0.007,-3.65312 0.9145,-6.14386 3.49901,-8.75192 1.41843,-1.34071 2.6597,-2.06056 4.5837,-2.43396 0.75351,-0.18076 0.75351,-0.18076 1.4273,-0.75448 1.17959,-0.70073 2.11845,-0.67214 3.46439,-0.64802 z m -5.50664,7.01146 c -0.55772,0.69639 -0.55772,0.69639 -0.79375,1.5875 -0.0723,0.20975 -0.14461,0.41951 -0.21911,0.63562 -0.92836,2.94123 -0.8873,5.66385 0.51987,8.42016 0.86059,1.49314 1.70668,2.16428 3.37033,2.63549 1.29404,0.28703 2.42462,0.38418 3.70417,-0.0331 1.47293,-0.97213 2.75804,-2.2519 3.73724,-3.7207 0.48757,-2.53538 0.83741,-5.65987 -0.52917,-7.9375 -0.16882,-0.29724 -0.16882,-0.29724 -0.34106,-0.60048 -0.85585,-1.4165 -1.55693,-2.21202 -3.09852,-2.83911 -2.52037,-0.58129 -4.30414,0.37036 -6.35,1.85209 z"
         fill="#c71d31"
         id="path10"
         style="stroke-width:0.264583" />
      <path
         d="m 118.56975,78.66621 c 1.16164,1.639503 1.19576,3.406314 1.14102,5.341276 -0.006,0.45692 -0.006,0.45692 -0.013,0.92307 -0.0112,0.728622 -0.0248,1.4569 -0.0413,2.185396 -0.0286,1.293018 -0.0487,2.586106 -0.0682,3.87929 -0.0238,1.567866 -0.0496,3.135695 -0.0759,4.70352 -0.005,0.30396 -0.0102,0.607921 -0.0155,0.921092 -0.0541,3.118149 -0.12332,6.234426 -0.26153,9.350116 -0.0102,0.23387 -0.0205,0.46774 -0.031,0.7087 -0.25063,5.25172 -0.25063,5.25172 -1.69292,6.91254 -0.11631,0.14632 -0.23261,0.29263 -0.35244,0.44338 -0.44131,0.35037 -0.44131,0.35037 -1.03249,0.36794 -1.64324,-0.32916 -2.86032,-0.77766 -3.90674,-2.13424 -0.87668,-1.61382 -0.83409,-3.00353 -0.52917,-4.7625 0.298,-1.9677 0.35194,-3.93256 0.41341,-5.92005 0.0114,-0.33424 0.0229,-0.66849 0.0346,-1.01286 0.0836,-2.553769 0.12871,-5.085231 -0.0346,-7.635707 -0.0245,-0.388948 -0.049,-0.777899 -0.0734,-1.166853 -0.0126,-0.196837 -0.0251,-0.393674 -0.0381,-0.596476 -0.0374,-0.602386 -0.0715,-1.20487 -0.10451,-1.807512 -0.12018,-2.303391 -0.12018,-2.303391 -0.34623,-4.598169 -0.22864,-1.906511 -0.32181,-3.771503 0.41341,-5.572786 1.55546,-1.734937 4.73053,-1.668386 6.61458,-0.529167 z"
         fill="#c71d31"
         id="path11"
         style="stroke-width:0.264583" />
      <path
         id="path2"
         d="m 129.28951,62.603108 c -1.61063,0.115045 -3.19994,0.198563 -4.81418,0.185002 -2.97125,-0.02548 -5.93939,0.02949 -8.90953,0.101285 l -0.71985,0.01757 c -1.9944,0.04845 -3.98876,0.09826 -5.9831,0.148829 -1.74735,0.04446 -3.49466,0.08878 -5.24206,0.131258 l -0.7307,0.01757 c -3.270268,0.08004 -6.536859,0.133 -9.808189,0.115755 -2.556869,-0.0278 -5.543052,-0.160351 -7.651212,1.537891 l -0.463021,0.578776 -0.711068,0.611848 c -0.706149,0.833556 -0.706149,0.833556 -0.810286,3.009636 -0.01786,0.645051 -0.03919,1.29003 -0.06615,1.934765 -0.181986,0.545954 -0.346485,1.097948 -0.496094,1.653646 -0.09911,0.418951 -0.198345,0.83787 -0.297656,1.256771 -0.642186,2.373561 -0.850609,4.572017 -0.826823,7.027995 0.0323,2.59883 0.01852,5.189503 -0.04703,7.787638 -0.01193,0.452362 -0.02376,0.904659 -0.03566,1.357023 -0.01564,0.65142 -0.03132,1.303025 -0.04857,1.954403 l -0.01654,0.610814 c -0.01707,0.723054 -0.04647,1.441477 -0.08372,2.16421 -0.268816,1.895612 -0.319833,3.76928 -0.341582,5.681827 -0.0046,0.41053 -0.0096,0.82092 -0.01498,1.23145 -0.015,1.12267 -0.02888,2.24556 -0.04134,3.36827 -0.0078,0.71386 -0.01548,1.42762 -0.02376,2.14147 -0.0869,7.41684 -0.134445,14.83348 -0.139525,22.25083 -2.65e-4,0.73707 -0.0011,1.47418 -0.0021,2.21124 -0.0016,1.1793 -0.0029,2.35899 -0.0021,3.53828 5.29e-4,0.43627 7.94e-4,0.87219 0.0011,1.30845 -7.94e-4,0.60533 -0.0016,1.21059 -5.3e-4,1.81591 l 0.0016,0.55346 c 7.94e-4,1.0355 0.03571,2.04084 0.166915,3.06699 0.143555,0.94975 0.143566,0.94978 0.157615,1.76837 l -0.0093,0.7183 -0.0062,0.79685 c -0.0069,0.54502 -0.01384,1.09003 -0.02066,1.63505 l -0.0062,0.79271 c -0.0059,0.45337 -0.0016,0.90708 0.01654,1.36013 0.172132,0.65693 0.268356,1.17647 0.290422,1.86448 l -0.0093,0.94258 -0.0072,1.04593 c -0.04206,4.61025 -0.833194,10.91846 1.84278,14.93242 3.468934,2.77656 7.880435,2.72736 12.126391,2.67116 0.830509,-0.0118 1.661277,-0.0207 2.491838,-0.0279 l 0.606682,-0.005 c 1.283845,-0.0101 2.541093,0.012 3.819923,0.14469 1.10715,0.11923 2.16438,0.12709 3.27577,0.0698 3.35977,-0.19208 6.72371,-0.26769 10.08775,-0.33848 l 0.84646,-0.0176 c 3.9258,-0.0824 7.84746,-0.12443 11.77396,-0.0992 3.48265,0.0224 6.94053,-0.0982 10.41797,-0.28112 3.69672,-0.19514 7.38628,-0.28483 11.0877,-0.28216 l 0.66869,10e-4 c 2.24546,0.003 4.49062,0.009 6.73602,0.0264 3.98152,0.0313 7.96567,0.0723 11.94346,-0.13436 l 1.02474,-0.0574 c 0.61062,-0.0279 1.221,-0.0617 1.8309,-0.10232 2.554,-0.26235 5.85436,-1.09899 7.57008,-3.15536 2.22012,-3.60127 2.17709,-9.25883 1.79059,-13.35215 -0.16772,-1.58013 -0.23709,-3.14023 -0.23978,-4.72892 l 0.004,-0.95239 c 0.002,-2.34158 0.0269,-4.68136 0.0827,-7.02231 0.15415,-6.30768 0.23355,-12.598 0.0992,-18.90686 -0.0992,-4.54251 -0.15975,-9.08092 -0.15038,-13.62449 l 0.002,-0.7736 c 0.005,-2.55702 0.0101,-5.11386 0.0248,-7.670847 0.006,-0.970934 0.01,-1.942055 0.0129,-2.912999 0.001,-0.456999 0.003,-0.913982 0.005,-1.370976 0.0174,-2.073801 0.10897,-4.140877 -0.31575,-6.182051 -0.18978,-0.741125 -0.25393,-1.099115 -0.15968,-1.878439 0.19475,-0.916371 0.2109,-1.771916 0.21859,-2.706295 l -5.3e-4,-0.715718 c 0.003,-1.716174 -0.0708,-3.363414 -0.33072,-5.060156 -0.18686,-1.199528 -0.26288,-2.263419 -0.14883,-3.472656 0.11771,-1.066634 0.20732,-2.118116 0.23151,-3.191537 -0.0478,-2.834184 -1.30073,-4.518809 -3.24115,-6.548437 -2.51045,-2.243525 -6.14254,-2.227607 -9.3281,-2.162161 -0.74299,0.01626 -1.48622,0.02757 -2.22932,0.03721 l -0.55346,0.0062 c -1.35907,0.01547 -2.70071,-0.01487 -4.05763,-0.110587 -10.64808,-0.80347 -21.45504,-1.067524 -32.1138,-0.340031 z m 45.01586,5.45083 c 0.73857,-0.0069 1.2325,0.531457 0.79065,1.383895 -0.21488,1.09225 0.0313,3.61255 -0.21033,5.994983 -0.41098,4.052084 0.31885,8.516792 0.31885,8.516792 l 0.0501,6.694165 0.0512,6.785633 0.39946,11.476814 0.31936,9.1674 0.54002,28.2727 c 0,0 -0.15242,1.56393 0.12609,5.80171 0.23405,2.57449 0.67304,5.33872 0.71985,9.92601 0.0183,0.73703 -0.56968,1.3467 -1.30689,1.35495 0,0 -3.3731,-0.27459 -7.01043,-0.27181 -2.33997,0.002 -4.27424,0.51394 -7.20886,0.31574 -4.36406,-0.29474 -8.00642,0.22832 -11.32799,0.31832 -3.15046,0.0854 -5.59114,0.11769 -6.46576,-0.0119 -2.64195,0.46622 -6.81664,0.062 -10.65774,0.11678 0,0 -7.41368,0.18816 -11.12077,0.12196 -5.09725,-0.33099 -16.08601,0.76833 -21.77903,0.23875 0,0 -2.978865,-0.19245 -6.619754,0.0723 l -5.381586,0.0589 c -0.73706,0.008 -1.338283,-0.5884 -1.336352,-1.3255 l 0.0052,-1.89549 0.03256,-11.98221 0.03566,-13.23899 0.03927,-14.4973 0.04393,-16.08688 0.07493,-27.823621 0.01035,-3.815271 0.0098,-3.538802 c 0.142235,-1.309488 0.281988,-1.733467 1.942518,-1.435571 l 6.400644,0.05736 9.66608,0.200505 4.44727,-0.346749 38.54597,-0.297656 21.11447,-0.177767 c 2.43407,-0.234045 4.19923,-0.03566 4.19923,-0.03566 0.18798,-0.06256 0.37165,-0.09296 0.54209,-0.09457 z m -3.48403,2.372982 c -0.99965,-0.01125 -2.26984,0.206814 -4.53667,0.149345 -18.53319,0.04581 -10.16851,-0.01816 -38.3465,0.05374 -3.98517,0.01017 -11.73971,0.343777 -17.01291,0.162781 -4.45071,-0.152765 -8.51281,0.336665 -13.626562,0.472839 -1.878819,0.05003 -4.221337,-0.706347 -6.497277,-0.107487 0,0 -1.111404,0.340742 -1.309997,2.06189 0,0 0.158128,4.934093 0.158128,8.177795 -0.0662,2.64792 0.624356,7.017531 0.491961,10.459826 -0.397187,1.721149 0.223914,4.171093 0.02532,7.083806 -0.101092,0.667205 -0.104124,7.379455 -0.151929,15.554605 -0.03626,6.20128 -0.06763,13.52107 -0.09302,20.52278 -0.01987,5.47655 -0.03603,10.75859 -0.04857,15.15928 -0.0083,2.89682 0.111119,5.94115 0.112654,7.87807 0.0013,1.50014 -0.395854,2.08585 -0.407212,3.30678 0.69307,1.09957 1.969661,0.25355 5.233273,0.6475 2.148498,-0.42128 5.047014,-0.38481 12.867951,-0.46973 4.35528,-0.0473 9.4676,-0.12557 14.89418,-0.16278 2.92069,-0.02 5.64186,-0.22624 8.37313,0.0475 2.71502,0.27215 4.43091,0.44487 7.90908,0.0372 1.51958,-0.17811 2.80098,-0.15318 4.35322,-0.11007 2.59555,0.0721 6.4438,-0.27425 9.94978,-0.31317 3.03148,-0.0336 5.96184,-0.0346 7.55096,-0.13435 3.5801,-0.22474 6.35914,-0.10847 8.75709,-0.0853 1.82114,0.0176 4.65464,-0.0538 4.70514,-1.51825 0.0468,-1.35746 -0.18242,-3.59203 -0.18242,-3.59203 l 0.0501,-6.08542 0.0899,-10.20454 -0.4656,-19.42311 -0.21756,-7.63519 -0.17777,-6.22288 c 0,0 -0.0535,-3.46206 -0.007,-5.19399 -0.0936,-2.480886 -0.39171,-8.708003 -0.39171,-8.708003 l -0.0868,-4.820893 -0.12764,-7.115845 -0.18862,-5.100464 c 0,0 0.57928,-3.646652 0.0176,-4.395597 -0.56171,-0.280854 -1.06419,-0.36997 -1.66398,-0.376721 z m -47.54903,2.300118 c 1.32762,-0.05482 2.6661,-0.0079 5.34334,0.0863 l 0.66973,-0.001 c 1.93284,-0.0061 3.8683,-0.0363 5.79757,0.09457 2.2391,0.198626 4.4457,0.226513 6.69159,0.208773 2.3355,-0.02029 4.67237,-0.09538 7.00008,0.126607 1.74337,0.170568 1.74337,0.170568 5.6131,0.132292 0.3545,-0.0036 0.709,-0.0071 1.0635,-0.01033 l 1.02629,-0.0062 c 0.90707,-0.0092 1.74009,0.01037 2.63654,0.151928 0.73051,0.129256 0.7307,0.129191 1.49861,0.09715 2.85731,-0.297866 5.72853,-0.597606 8.49251,0.296623 0.34823,1.259005 0.59154,2.429638 0.6568,3.733622 0.0139,0.361095 0.0291,0.722147 0.0455,1.083138 l 0.0264,0.552421 c 0.0296,0.641568 0.068,1.279443 0.12454,1.919263 0.20471,2.294804 0.26478,4.584313 0.30903,6.886918 0.0143,0.793257 0.0288,1.586465 0.0444,2.379699 0.04,1.989244 0.0784,3.978111 0.11576,5.967595 0.0325,1.723896 0.0651,3.447923 0.0997,5.171783 0.0164,0.8101 0.0325,1.62019 0.047,2.43034 0.009,0.5102 0.0187,1.02047 0.0289,1.53065 l 0.0145,0.71107 c 0.0124,0.7669 0.0362,1.52751 0.0744,2.29392 0.28685,0.7436 0.2873,0.74364 0.29507,1.3565 l -0.005,0.65888 -0.003,0.75034 -0.007,0.81132 c -0.004,1.17238 -0.01,2.34473 -0.0165,3.5171 -0.0178,2.9194 -0.096,5.84186 0.14056,8.75399 0.11078,1.27641 0.11953,2.50195 0.0398,3.78013 -0.13213,1.91407 -0.21014,3.78966 -0.0646,5.70559 0.17077,2.15381 0.18005,4.30701 0.1819,6.46627 v 0.61134 c 0.006,1.91919 0.0573,3.84326 -0.17467,5.75158 -0.12299,0.99529 -0.12299,0.99529 -0.0909,1.65985 0.21685,1.49118 0.25708,2.97145 0.2651,4.4757 l 5.3e-4,0.79633 0.004,0.7798 -0.002,0.74052 c -0.001,0.81266 0.0311,1.58236 -0.29972,2.33267 -0.65945,0.31786 -1.25254,0.5179 -1.97559,0.63562 l -0.69557,0.0558 -0.80047,0.0651 -0.86609,0.061 c -3.64648,0.26764 -7.28946,0.34124 -10.94456,0.37931 -1.0411,0.0104 -2.08224,0.0222 -3.12332,0.0346 -0.68437,0.009 -1.36873,0.0177 -2.0531,0.0264 -1.73133,0.0159 -3.45902,0.0413 -5.18832,0.12712 -3.9761,0.19824 -7.94429,0.24195 -11.92485,0.23875 -0.9621,-0.001 -1.92455,-0.001 -2.88665,-5.3e-4 -1.62181,5.3e-4 -3.24352,7.9e-4 -4.86533,-5.3e-4 -1.87201,-0.002 -3.74367,-0.002 -5.61568,-5.3e-4 -1.63391,0.001 -3.26811,0.002 -4.90203,0.001 -0.97209,-2.7e-4 -1.944,-8e-4 -2.9161,0 -0.91909,7.9e-4 -1.83836,0.001 -2.75745,0 l -1.02785,-0.002 c -1.87562,0.003 -3.73355,-0.0309 -5.60482,-0.16743 -0.97127,-0.0786 -1.9317,-0.14939 -2.906284,-0.1478 -1.952183,0.0324 -3.949292,1.0105 -6.502963,0.46664 -1.685126,-0.56171 -1.014299,-2.72937 -1.011309,-3.20755 l 0.0036,-0.61599 c 0.01482,-1.22193 0.0011,-2.436 -0.07545,-3.65611 -0.265927,-6.62817 -0.265776,-6.62853 -0.241329,-13.26379 0.0011,-1.24934 0.0011,-2.49874 5.29e-4,-3.74809 -5.29e-4,-2.10564 -7.93e-4,-4.21128 5.3e-4,-6.31692 0.0016,-2.43014 0.0019,-4.85986 5.29e-4,-7.29 -0.0011,-2.11493 -0.0016,-4.2299 -0.0011,-6.34483 2.65e-4,-1.26201 7.94e-4,-2.52433 0,-3.78633 -0.0035,-4.95901 -0.01291,-9.91231 0.211357,-14.867314 0.07722,-1.68852 0.09241,-3.347003 0.0047,-5.035867 -0.186296,-3.153447 -0.185364,-6.286971 -0.09974,-9.442836 l 0.0186,-0.661975 c 0.01677,-0.635852 0.03378,-1.271601 0.05323,-1.907377 l 0.01913,-0.589629 c 0.03731,-1.297049 -0.09133,-2.712445 0.705382,-3.797184 1.004991,-0.447198 1.004795,-0.447133 2.139921,-0.430464 1.807099,-0.01427 3.581574,-0.0749 5.359887,-0.413929 4.1214,-0.795165 8.00696,-0.840646 12.18944,-0.687813 l 0.75654,0.02894 c 0.47884,0.01806 0.95779,0.03639 1.4366,0.05529 1.06121,0.05069 2.07253,0.118752 3.12384,-0.05374 2.63327,-0.313464 3.95009,-0.469699 5.27772,-0.524516 z"
         style="fill:#c71d31;fill-opacity:1;stroke-width:0.264583" />
    </g>
  </g>
</svg>
