<?xml version="1.0" encoding="UTF-8" standalone="no"?>
<svg
   version="1.1"
   width="1269"
   height="457"
   id="svg16"
   xmlns="http://www.w3.org/2000/svg"
   xmlns:svg="http://www.w3.org/2000/svg">
  <defs
     id="defs16" />
  <path
     id="path1"
     d="m 1055.002,23.105469 c -3.3599,-0.0345 -6.7185,0.04706 -10.1055,0.363281 -3.8962,0.444559 -7.6801,0.612526 -11.5996,0.568359 -8.7529,-0.137612 -17.4869,0.0294 -26.2344,0.31836 -12.12438,0.406288 -24.22552,0.71018 -36.35742,0.654297 -12.1247,-0.05999 -24.2342,0.04648 -36.35547,0.363281 L 931.875,25.4375 c -2.35749,0.05819 -4.71497,0.117726 -7.07227,0.183594 l -2.18554,0.0625 c -3.83693,0.107912 -7.53352,0.304576 -11.33789,0.820312 -1.8234,0.275574 -3.65373,0.525678 -5.49219,0.669922 l -1.87305,0.07227 -2.11718,0.0957 C 892.54443,27.752763 883.42995,27.725826 876,34 c -4.48169,4.355445 -6.30982,7.909227 -6.75,14.1875 -0.0305,1.939051 -0.11126,3.878178 -0.25,5.8125 -5.39402,13.020824 -5.39419,13.022065 -5.24219,77.05078 0.0112,4.24124 0.0139,8.48141 0.0137,12.72266 -6e-4,7.15491 0.004,14.30995 0.0176,21.46484 0.0157,8.25104 0.026,16.50285 0.0254,24.75391 -7e-4,8.95112 0.005,17.9024 0.0137,26.85351 0.003,2.54983 0.005,5.09861 0.006,7.64844 6e-4,4.0506 0.003,8.10175 0.0117,12.15234 0.004,1.5087 0.007,3.0167 0.01,4.5254 -0.003,8.18191 0.1098,16.32554 0.64844,24.49023 0.35307,4.99579 0.5981,9.9397 0.5625,14.94727 -0.15901,12.5763 -0.15937,12.57599 0.27343,39.95703 0.0441,2.78147 0.0888,5.56222 0.12891,8.34375 0.18114,12.8705 0.2042,25.75526 1.07422,38.60156 0.51205,7.51334 0.46946,14.96225 0.33203,22.48828 -0.1774,7.36602 -0.46592,14.12715 2.26563,21.06836 L 870.00044,413 c 2.36211,5.37604 4.89246,10.69571 8.88281,15.05859 8.27735,6.71907 18.2793,7.36065 28.53125,7.60938 2.24518,0.041 4.48967,0.0823 6.73438,0.14453 4.61789,0.13481 9.23193,0.2838 13.85156,0.1875 3.16052,-0.90455 6.05752,-1.11364 9.34766,-1.11328 l 2.125,0.0156 c 1.54774,0.003 3.09483,0.006 4.64257,0.01 2.52821,0.0127 5.05576,0.0272 7.58399,0.0332 6.32945,0.0119 12.65887,0.0311 18.98828,0.0547 5.44423,0.0204 10.88972,0.0394 16.33398,0.0508 2.56844,0.005 5.13668,0.0125 7.70508,0.0254 1.62209,0.008 3.24314,0.0136 4.86524,0.0176 l 2.29106,0.004 c 3.3832,0.0253 6.736,0.0598 10.1015,-0.32422 6.584,-0.86189 13.0868,-0.89744 19.7227,-0.86524 1.4378,0.007 2.8746,0.0126 4.3125,0.0156 3.1186,0.006 6.2388,0.0108 9.3574,0.0215 5.0161,0.0187 10.0308,0.033 15.0469,0.041 14.3279,0.0226 28.6564,0.057 42.9843,0.10156 7.9891,0.025 15.9778,0.0453 23.9668,0.0566 4.2318,0.005 8.4636,0.009 12.6954,0.0254 15.9308,0.0713 31.8409,0.38157 47.6933,-1.4668 3.3309,-0.40214 6.5284,-0.70797 9.8906,-0.76757 9.1046,0.20283 18.2284,-0.1117 26.3457,-4.67774 l 2,-1.25781 c 4.1882,-2.63067 8.1954,-5.3618 11.8633,-8.69141 8.3218,-8.89994 8.322,-8.89977 8.2246,-39.98632 -0.013,-2.64089 -0.025,-5.28097 -0.031,-7.92188 -0.012,-6.69569 -0.033,-13.39224 -0.057,-20.08789 -0.024,-6.64219 -0.044,-13.28356 -0.057,-19.92578 l -0.01,-2.77344 c -0.024,-11.74835 0.048,-23.45843 0.625,-35.19531 0.3171,-5.33565 0.5185,-10.46152 -0.027,-15.78906 -0.4591,-3.77089 -0.6649,-7.45979 -0.6718,-11.25782 l 0.012,-2.12109 c -0.015,-2.75971 0.032,-5.48886 0.125,-8.25 0.5883,-3.25127 1.0089,-6.29379 1.1132,-9.60352 l -0.016,-3.94726 c 0,-2.17297 -0.01,-4.34659 -0.021,-6.51953 -0.01,-1.50422 -0.017,-3.00748 -0.022,-4.51172 -0.01,-3.48733 -0.022,-6.97558 -0.039,-10.46289 -0.01,-1.31859 -0.016,-2.63647 -0.016,-3.95508 0.7936,-6.26311 1.0406,-11.75661 0,-18 h -2 c 0.8913,-2.67391 1.4773,-5.23724 2,-8 h -2 c 0.6935,-2.29938 1.0148,-4.31766 1.127,-6.72656 v -3.17578 l 0.01,-3.64063 c 0,-2.00502 -0.01,-4.0106 0,-6.01562 0.01,-3.65083 0,-7.30231 0,-10.95313 0,-2.30786 -0.01,-4.61597 -0.01,-6.92383 -0.019,-19.8202 -0.091,-39.63952 -0.4434,-59.457028 L 1245.625,89 c -0.1568,-10.155175 -0.3858,-20.273519 -1.2852,-30.394531 L 1244.0859,55.9375 C 1243.8104,52.940385 1243.5142,49.966498 1243,47 c -1.0166,-3.236258 -1.2429,-4.532408 -4.125,-6.3125 L 1237,40 c 0,-3.668262 -0.5185,-4.358417 -3,-7 -8.8416,-6.28738 -20.0964,-8.393746 -30.7637,-8.707031 L 1199.6797,24.25 c -18.2265,-0.404729 -18.2265,-0.404729 -66.5547,-0.25 -7.4751,0.02396 -14.9507,0.04644 -22.4258,0.05859 l -3.1289,0.0039 c -14.1623,0.02559 -28.3,-0.08885 -42.4531,-0.625 -3.3935,-0.146947 -6.7554,-0.297527 -10.1152,-0.332031 z m -32.5098,22.441406 c 14.3018,-0.251174 42.9023,0.462891 42.9023,0.462891 14.8189,0.207936 30.9266,-1.325617 41.1192,0.443359 3.3743,-0.491635 12.7909,-0.36881 24.9453,-0.04492 12.8145,0.341504 26.8667,2.327298 43.7031,1.208985 11.3217,-0.752024 12.783,1.190499 21.8106,1.197265 14.0327,0.01054 27.0468,-1.03125 27.0468,-1.03125 2.8441,0.03132 5.1118,2.344138 5.0411,5.140625 -0.1808,17.405232 -1.8744,27.89192 -2.7774,37.660156 -1.0745,16.079084 -0.4863,22.013674 -0.4863,22.013674 l 1.9179,107.27343 -1.2324,34.78516 0.457,43.54492 -0.1953,25.7461 -0.1933,25.39843 -2.4199,53.06055 c -0.07,2.7375 -2.3565,4.91539 -5.1407,4.89258 l -95.6621,1.18945 -230.28708,-1.9082 c -2.79452,-0.0242 -5.04969,-2.25546 -5.05664,-5.00391 l -0.36719,-133.47265 -0.16797,-61.03711 -0.15234,-55.00586 -0.13868,-50.23242 1.875,-39.464847 -0.0195,-7.189453 c -0.0102,-2.796729 2.31263,-5.059383 5.15625,-5.029297 l 18.63867,-3.669922 c 14.0465,1.004684 26.12305,-0.539062 26.12305,-0.539062 26.91711,-2.009367 63.89553,0.867174 83.56053,-0.388672 z m 47.4668,8.800781 c -4.6415,0.09954 -8.9151,0.520809 -14.1524,1.03711 -10.5371,1.038775 -21.0347,0.255682 -32.3027,0.179687 -20.9355,-0.141197 -41.96661,-3.036928 -56.99999,0.675781 -26.28073,0.739257 -39.81664,4.524216 -48.10547,2.925782 -12.59091,1.494762 -17.51754,-1.71693 -20.19141,2.455078 0.0439,4.632502 1.57696,6.855007 1.57227,12.546875 -0.0102,7.34914 -2.4674,12.901393 -2.43555,23.892578 0.048,16.697243 0.11279,36.738293 0.18945,57.517573 0.098,26.56614 0.21749,54.33811 0.35743,77.86719 0.18435,31.01841 0.19786,56.48605 0.58789,59.01758 0.76618,11.05151 -1.63029,20.34847 -0.0977,26.87891 0.51079,13.06087 -2.15384,29.64067 -1.89844,39.6875 0,12.30736 -0.60937,31.02734 -0.60937,31.02734 0.76618,6.53043 5.05273,7.82227 5.05273,7.82227 8.78052,2.27222 17.81803,-0.59803 25.06641,-0.40821 19.72873,0.51669 35.39959,2.37455 52.57031,1.79492 20.34384,-0.68673 50.26004,0.57861 65.63474,0.61719 108.7098,0.27283 74.4409,-1.96879 145.9414,-1.79492 13.9913,-0.34885 18.142,1.97712 23.92,-0.86328 2.1669,-2.84168 -0.067,-16.67774 -0.067,-16.67773 l 2.7266,-17.35157 0.4941,-27 0.334,-18.29101 c 0,0 1.1486,-23.62799 1.5098,-33.04102 -0.1807,-6.57137 0.027,-19.70508 0.027,-19.70508 l -1.3145,-23.61132 0.8399,-28.97071 -2.2051,-73.69726 -0.3457,-38.7168 -0.1934,-23.089844 c 0,0 0.8838,-8.48034 0.7032,-13.63086 -0.1949,-5.556604 -11.1264,-5.826544 -18.1524,-5.759765 -9.2512,0.08804 -13.9732,0.530439 -27.7851,-0.322266 -6.1308,-0.378496 -17.4334,-0.384044 -29.1288,-0.511719 -13.5259,-0.147652 -28.3732,-1.46096 -38.3868,-1.1875 -5.9884,0.163544 -10.9343,0.259744 -16.7968,-0.416015 -6.7094,-0.773387 -11.7179,-0.996023 -16.3594,-0.896485 z m -64.0977,7.072266 c 25.4281,-0.803475 52.4718,0.515782 106.5625,3.152344 11.7451,0.268383 23.48,0.459928 35.2285,0.435546 7.887,-0.0173 15.7614,-0.01342 23.6465,0.25 l 3.0781,0.117188 c 8.1548,0.235799 16.7548,0.27865 24.625,2.625 4.5973,13.128825 4.5979,13.127967 4.5254,27.539062 0.047,1.908746 0.093,3.81799 0.1465,5.726568 0.4137,14.62833 0.476,29.25733 0.4649,43.89062 0,3.83952 0,7.68002 0,11.51953 0,6.52277 10e-4,13.04559 0,19.56836 -0.01,6.62302 -0.01,13.24612 0,19.86914 0.023,31.25086 0.1395,62.49819 -0.7071,93.74024 -0.3145,11.53214 -0.5014,23.05304 -0.4883,34.58984 v 2.42773 c 0.01,5.41176 0.029,10.82267 0.053,16.23438 0.025,5.56573 0.047,11.13149 0.061,16.69726 0,2.22625 0.01,4.45347 0.023,6.67969 l 0.014,2.10156 0.01,3.9375 c 0.018,3.9686 -0.027,7.63947 -1.0977,11.47852 -1.7488,2.1875 -1.7488,2.1875 -3.8555,2.125 -3.836,-0.20562 -7.5151,-0.20445 -11.332,0.27734 -6.4596,0.98769 -12.8134,1.72642 -19.3398,2.01758 l -2.7969,0.11133 c -12.0738,0.49863 -24.1505,0.76586 -36.2325,0.9707 l -3.5684,0.0605 c -17.1507,0.3032 -34.2974,0.56877 -51.4512,0.41992 -6.4009,-0.0602 -12.7815,-0.0836 -19.1758,0.23633 -18.5835,0.94586 -37.1484,0.93362 -55.75191,0.91602 -4.10825,-0.005 -8.21596,-0.0108 -12.32422,-0.008 -13.55689,0.0151 -27.11341,0.009 -40.66992,-0.10547 L 943,390.9998 c -4.29181,-0.0356 -8.58191,-0.0845 -12.87305,-0.17188 l -3.64257,-0.0859 c -5.39722,-0.0663 -10.0374,-0.22439 -15.14649,-2.05274 -3.13087,-4.94432 -3.13211,-4.94488 -3.22461,-10.97656 l 0.008,-3.48242 c -0.0649,-3.94546 -0.12104,-7.88997 -0.12304,-11.83594 10e-4,-2.22207 0.002,-4.44395 -0.004,-6.66601 -0.0453,-13.34554 -3.2e-4,-26.68984 0.084,-40.03516 0.0279,-4.32752 0.0533,-8.65482 0.0664,-12.98242 0.004,-1.6574 0.01,-3.31526 0.0156,-4.97266 0.0865,-9.80592 -0.1306,-19.3485 -1.45118,-29.08008 -0.52756,-3.87403 -0.82328,-7.62321 -0.77148,-11.5332 0.0599,-2.58209 0.0684,-5.06196 -0.16992,-7.63477 -0.65521,-5.71005 -0.7574,-11.14302 -0.39844,-16.875 0.61897,-9.35943 0.61403,-18.35075 -0.43164,-27.67773 -0.61536,-4.76155 -1.27929,-8.69088 0.004,-13.37109 0.97736,-3.29272 1.18113,-5.47188 1.14843,-8.85157 -0.0537,-2.78732 -0.0968,-5.54988 0.0117,-8.33593 0.78437,-13.23835 0.84423,-26.14938 -0.10156,-39.37891 -0.62424,-8.4397 -1.06659,-16.81112 -1.11719,-25.27344 l -0.008,-3.22656 c -0.0237,-5.25108 -0.0789,-10.474986 0.55078,-15.695312 l 0.57422,-3.804688 c 0.30148,-2.10146 0.61123,-4.198625 0.95898,-6.292969 l 0.35352,-2.082031 c 0.39618,-2.678438 0.91105,-5.004849 1.6875,-7.625 47.62159,-5.850459 71.43326,-8.776604 96.86134,-9.580078 z M 1245,198 l 1,2 z"
     style="fill:#c71d31;fill-opacity:1" />
  <path
     id="path3"
     d="m 685.23633,25.871094 c -16.18071,-0.03042 -32.34761,0.07696 -48.52344,0.496093 -17.58932,0.45876 -35.16346,0.714088 -52.75977,0.699219 l -3.5664,-0.0039 c -8.35398,-0.01017 -16.70854,-0.02929 -25.0625,-0.05273 -8.5374,-0.02435 -17.0739,-0.04927 -25.61133,-0.0625 -3.42841,-0.0048 -6.85677,-0.01041 -10.28516,-0.02344 -10.85719,-0.04185 -21.6498,-0.02884 -32.47851,0.816406 L 484,27.999997 c -2.46049,0.202714 -4.91853,0.405832 -7.375,0.652344 l -2.125,0.222656 c -6.44924,0.57907 -12.2867,1.433132 -17.42578,5.738281 l -1.38672,1.699219 c -4.59929,5.405749 -4.59966,5.404071 -6.06445,22.472656 l -0.18555,2.214844 c -1.20517,13.931981 -1.8069,27.852567 -2.12109,41.832033 l -0.0664,3.10547 c -0.068,3.01578 -0.133,6.03082 -0.1875,9.04687 l -0.0469,2.79297 -0.0527,2.64844 -0.0332,2.45117 c -0.0341,2.19265 0.0389,3.99962 0.56054,6.13281 0.70337,4.12679 0.70449,4.12572 0.77539,8.32812 l 0.0508,2.60743 c 0.0668,2.97687 0.12934,5.95258 0.18554,8.92968 l 0.0606,3.25 c 0.31181,15.65848 0.46884,31.3114 0.46484,46.97266 v 2.53906 c -0.004,8.39629 -0.0131,16.79127 -0.0449,25.1875 -0.0127,3.21847 -0.0252,6.43777 -0.0332,9.65625 -0.005,2.24445 -0.0123,4.488 -0.0254,6.73242 l -0.0117,2.12696 -0.01,3.99414 c -0.0156,3.41014 0.0825,6.5648 0.59571,9.9375 0.943,5.12292 0.699,10.31521 0.27539,15.49218 -0.76783,8.40587 -0.92016,16.76321 -0.91016,25.19532 0.002,1.60529 0.003,3.21111 0.002,4.8164 -0.002,3.39668 -0.004,6.79279 0,10.18946 0.006,4.35674 0.01,8.71357 0.004,13.07031 -0.004,3.4278 -0.005,6.8554 -0.004,10.2832 10e-4,1.64993 10e-4,3.30125 0.002,4.95117 -0.0131,8.86465 0.0525,17.68003 0.65625,26.52735 0.359,4.8276 0.50701,9.43074 0.0547,14.24804 -0.80233,7.94064 -0.38566,14.82526 1.49219,22.61915 l 0.92969,3.33593 c 1.28681,4.91697 2.84067,8.59409 6.09375,12.53907 7.93234,7.90723 16.3878,8.67419 27.27539,8.71289 l 3.03516,-0.0195 c 3.48847,0.003 6.97638,0.004 10.46484,-0.008 2.55131,-0.009 5.10298,-0.0156 7.6543,-0.0176 6.24193,-10e-4 12.48465,-0.006 18.72656,-0.0215 8.17455,-0.0209 16.34887,-0.0331 24.52344,-0.0391 13.32311,-0.009 26.64565,-0.0238 39.96875,-0.0469 l 2.41797,-0.004 2.42187,-0.004 4.85156,-0.008 2.42579,-0.004 c 8.84821,-0.0154 17.6967,-0.0307 26.54492,-0.043 l 2.39258,-0.002 c 13.32115,-0.0185 26.64368,-0.0331 39.96484,-0.0449 7.46746,-0.007 14.93489,-0.014 22.40234,-0.0293 7.72068,-0.0162 15.44142,-0.0311 23.16211,-0.0391 1.34015,-0.002 2.67938,-0.003 4.01953,-0.004 13.16097,-0.0149 26.3189,-0.0358 39.47657,0.29297 l 3.09765,0.084 c 4.67225,0.12565 9.34304,0.25294 14.01367,0.42969 10.04166,0.38987 19.31087,0.70103 28.7461,-3.27539 l 3.19531,-1.76172 c 3.24219,-1.73828 3.24219,-1.73828 6.125,-3.6875 4.92901,-5.14826 7.25281,-10.8372 7.61914,-17.90039 l 0.0684,-2.23242 c 0.45561,-10.99396 0.45658,-10.99396 0.33398,-35.93945 -0.0273,-5.07195 -0.0562,-10.14481 -0.0723,-15.2168 l -0.0117,-3.64062 c -0.0402,-5.42669 -0.10117,-10.83271 0.29297,-16.24805 0.60894,-6.96484 0.84283,-13.79869 0.73047,-20.79102 -0.0417,-2.02976 -0.0823,-4.05994 -0.11719,-6.08984 -0.0604,-3.70272 -0.12521,-7.40486 -0.19531,-11.10742 -0.11215,-5.90071 -0.21905,-11.80222 -0.32032,-17.70313 -0.0248,-1.46451 -0.0493,-2.92807 -0.0742,-4.39258 -0.14642,-8.31393 -0.26977,-16.62597 -0.25977,-24.9414 l 0.006,-2.40821 c 0.008,-3.83392 0.0156,-7.66811 0.043,-11.50195 0.0105,-1.40972 0.0184,-2.81876 0.0254,-4.22851 l 0.01,-1.97461 c 0.0244,-3.25109 0.008,-6.22141 -0.58203,-9.41797 -0.59886,-2.35434 -0.59945,-2.35434 -0.50195,-5.1875 l 0.16211,-3.1836 0.16016,-3.47851 c 0.12299,-2.41403 0.24537,-4.8281 0.36718,-7.24219 l 0.16016,-3.4668 c 0.0971,-1.90057 0.16025,-3.80398 0.15625,-5.70703 -1.91503,-9.66911 -1.91504,-9.66911 -0.77344,-19.875 1.02417,-9.59794 1.06206,-19.16647 0.54102,-28.80078 -0.59289,-10.92362 -0.84329,-21.8216 -0.80469,-32.75976 l 0.01,-2.18555 c 0.0248,-6.703917 0.0572,-13.407531 0.10546,-20.111325 0.0278,-3.777187 0.0532,-7.554763 0.0664,-11.332031 0.004,-1.435626 0.01,-2.871022 0.0156,-4.306641 0.0648,-6.488895 0.47536,-12.985148 -1.17383,-19.3125 l -0.98633,-3.316406 c 0.0859,-5.06704 0.27107,-7.965689 -3,-12 -7.1792,-5.95349 -15.02962,-7.247482 -24.125,-7.125 -2.62417,0.07795 -5.24967,0.11978 -7.875,0.125 -5.07771,-0.670019 -10.02813,-1.141878 -15.14907,-1.264732 l -2.69531,-0.05078 c -3.09761,-0.06675 -6.19516,-0.130856 -9.29297,-0.1875 L 754.5,26.4375 c -20.82664,-0.383036 -41.65066,-0.541332 -62.48047,-0.558594 -2.2613,-0.0016 -4.5219,-0.0039 -6.7832,-0.0078 z m -207.21094,21.271484 95.67383,0.806641 225.60742,1.902343 c 2.7377,0.0241 4.9463,2.246576 4.95313,4.984375 l 0.35937,132.955083 0.16602,60.79883 0.14843,54.79297 0.13477,50.03906 0.12305,45.28711 0.0195,7.16406 c 0.007,2.78589 -2.26504,5.03974 -5.05078,5.00977 l -20.3418,-0.22266 c -13.76084,-1.00079 -25.01953,-0.27539 -25.01953,-0.27539 -21.51696,2.00158 -63.04732,-2.15137 -82.3125,-0.90039 -14.01105,0.2502 -42.03125,-0.46094 -42.03125,-0.46094 -14.51755,-0.20713 -30.29591,1.32071 -40.28125,-0.44141 -3.30565,0.48973 -12.53027,0.36756 -24.4375,0.0449 -12.55397,-0.34018 -26.32232,-2.31711 -42.81641,-1.20313 -11.09149,0.74911 -18.40016,-1.18857 -27.24414,-1.19531 -13.74737,-0.0105 -26.49609,1.0293 -26.49609,1.0293 -2.78634,-0.0312 -5.00881,-2.33545 -4.93946,-5.1211 0.17692,-17.33778 1.83613,-27.78524 2.72071,-37.51562 1.05264,-16.01678 0.47656,-21.92774 0.47656,-21.92774 l 2.03906,-106.85742 1.20703,-34.65039 1.51172,-43.37695 0.19336,-25.64453 0.18945,-25.30079 0.41016,-54.847655 c 0.0676,-2.72689 2.30947,-4.895767 5.03711,-4.873047 z m 11.11719,8.609375 c -2.26692,0.02552 -4.16412,0.364288 -6.28711,1.425781 -2.12299,2.83066 0.0644,16.611329 0.0644,16.611328 l -0.71094,19.277344 -0.48437,26.896484 -0.32617,18.22071 c 0,0 -1.12664,23.53556 -1.48047,32.91211 0.17692,6.5459 -0.0254,19.6289 -0.0254,19.6289 l -0.67188,23.51953 -0.82226,28.85743 -1.75977,73.4121 0.33985,38.56836 0.1875,22.99805 c 0,0 -0.86441,8.44757 -0.6875,13.57813 0.19086,5.53507 10.90013,5.8048 17.7832,5.73828 9.06311,-0.0877 19.56655,-0.52714 33.09765,0.32226 6.00612,0.37703 17.07953,0.38064 28.53711,0.50782 13.25096,0.14708 27.7955,1.45599 37.60547,1.18359 5.86673,-0.16291 10.71179,-0.25908 16.45508,0.41406 13.14583,1.54078 19.63108,0.88798 29.89258,-0.14062 10.32292,-1.03475 20.60765,-0.25344 31.64648,-0.17774 20.50992,0.14065 39.83206,0.43649 56.29297,0.61524 29.55944,0.32099 40.51251,0.18119 48.63282,1.77343 12.33491,-1.48897 17.16177,1.71053 19.78124,-2.44531 -0.0429,-4.61455 -1.54359,-6.82824 -1.53906,-12.49805 0.006,-7.32066 0.45698,-18.8268 0.42578,-29.77539 -0.0474,-16.63253 -0.10853,-36.59811 -0.18359,-57.29687 -0.096,-26.46318 -0.2145,-54.12655 -0.35156,-77.56445 -0.18068,-30.8982 -0.19214,-56.26735 -0.57422,-58.78907 -0.75059,-11.00868 1.59492,-20.2683 0.0937,-26.77343 -0.50039,-13.01026 2.11153,-29.52728 1.86133,-39.535163 0,-12.259661 0.59765,-30.908203 0.59765,-30.908203 -0.75059,-6.50512 -4.95117,-7.791016 -4.95117,-7.791016 -8.60198,-2.26341 -17.45559,0.59534 -24.55664,0.40625 -19.32755,-0.51468 -34.68037,-2.364489 -51.50195,-1.787109 -19.93021,0.68408 -49.23873,-0.576805 -64.30078,-0.615235 -106.49948,-0.27177 -74.88495,-0.0319 -144.93164,-0.205078 -8.56757,0.217206 -13.37025,-0.606981 -17.14844,-0.564453 z m 213.27929,7.109375 3.76563,0.01367 c 11.07085,0.0147 22.12374,0.231317 33.1875,0.625 6.50191,0.246085 12.9964,0.511092 19.50391,0.482422 l 3.80468,-0.05664 c 2.37638,-0.03307 4.75269,-0.0706 7.12891,-0.113281 l 3.30859,-0.113281 3.02344,-0.05469 2.63672,-0.08203 c 2.34333,0.256881 2.34186,0.256636 3.97852,2.111328 3.273,13.979153 3.27374,13.979154 2.27734,28.914063 -0.11621,15.545961 -0.0241,31.072161 0.39062,46.613271 0.31084,11.51189 0.63611,23.02059 0.69141,34.53711 l 0.006,3.38672 c 0.0227,4.98407 0.0195,9.94747 -0.35547,14.91992 -0.93061,11.78062 -0.93067,11.78049 -0.8457,38.38672 0.0114,3.53379 0.0193,7.06776 0.0234,10.60157 0.01,8.9942 0.0266,17.98823 0.0469,26.98242 0.0222,9.81805 0.0447,19.63506 0.0566,29.45312 0.005,4.26052 0.01,8.52075 0.0234,12.78125 0.009,2.68391 0.0157,5.36882 0.0195,8.05274 l 0.004,3.76953 c 0.0285,6.35291 -0.008,12.62944 -0.59766,18.95898 -0.40907,3.84333 -0.60638,7.61049 -0.58789,11.47461 l 0.0254,2.11914 c 0.0117,2.33126 0.0227,4.66292 0.041,6.99414 0.0274,3.18553 0.056,6.37102 0.0723,9.55664 l 0.0117,2.26173 c 0.0433,3.73203 0.13398,6.97305 -1.0625,10.5625 -1.53081,1.91892 -2.48344,2.8587 -4.86914,3.50781 l -2.14648,0.1875 -2.48633,0.22851 -2.74805,0.20117 c -25.22582,2.00528 -50.4744,1.98091 -75.76172,1.85742 l -3.56836,-0.0195 c -2.27278,-0.008 -4.54557,-0.0164 -6.81836,-0.0254 -5.52297,-0.0445 -10.9672,-0.082 -16.45898,0.5625 -2.43929,0.30747 -4.7561,0.51946 -7.2207,0.59766 l -2.81641,-0.0352 -3.33399,-0.0254 c -12.82183,-0.13185 -25.63376,9.9e-4 -38.45312,0.26952 -2.00236,0.0437 -4.0035,0.0874 -6.00586,0.13086 -2.91553,0.0583 -5.83072,0.1175 -8.74609,0.1836 l -2.70313,0.0625 c -2.96248,0.0581 -5.90295,0.16069 -8.86328,0.3164 -3.50946,1.16982 -6.31617,1.13157 -10,1 -3,-1.00004 -3,-1.00004 -5.69531,-1.02734 -7.18478,0.18822 -14.21761,-0.0687 -21.38086,-0.68554 -8.3831,-0.74249 -16.69055,-1.45633 -25.11133,-1.34961 -5.91063,0.0816 -11.78995,9.9e-4 -17.69727,-0.24219 l -2.99023,-0.13281 -2.86914,-0.11914 -2.68555,-0.12696 c -2.98468,-0.13916 -5.72157,-0.37905 -8.57031,-1.31641 -2.41891,-3.44038 -2.41902,-3.43974 -2.35352,-7.81445 l -0.0254,-2.41211 c -0.0532,-2.57339 -0.10503,-5.14706 -0.14453,-7.7207 -0.0388,-2.64676 -0.0832,-5.29285 -0.13086,-7.93946 -0.0335,-1.6966 -0.0667,-3.39322 -0.0996,-5.08984 l -0.0312,-2.375 -0.041,-2.2832 c -0.0213,-1.45591 -0.0858,-2.91183 -0.17383,-4.36524 -0.78094,-5.38455 -1.11977,-10.58858 -1.13477,-16.02929 l 0.008,-3.08008 c -0.005,-3.50902 -0.009,-7.01833 -0.006,-10.52735 0.003,-3.23335 0.003,-6.46586 0,-9.69921 -0.005,-6.33988 -0.007,-12.67966 -0.004,-19.01954 0.002,-5.19805 0.005,-10.39765 0.004,-15.5957 l -0.002,-2.23633 c -3.1e-4,-1.50094 3.2e-4,-3.00296 0,-4.5039 -0.003,-14.06496 -10e-4,-28.13036 0.004,-42.19532 0.005,-12.11149 0.006,-24.22249 0.002,-36.33398 -0.006,-14.12202 -0.0108,-28.24321 -0.008,-42.36523 3.3e-4,-1.50522 0.002,-3.01041 0.002,-4.51563 v -2.24609 c 0.002,-5.20769 0.002,-10.41535 0,-15.62305 -0.002,-6.40569 -0.004,-12.8111 0,-19.21679 0.002,-2.62797 0.005,-5.25484 0.006,-7.882815 -0.003,-3.672553 -0.008,-7.346978 -0.004,-11.019531 l 0.006,-3.308594 -0.008,-3.107421 0.01,-2.837891 c 6.2e-4,-3.05803 0.14495,-5.743671 1.125,-8.65625 3.58993,-2.524439 3.58916,-2.524956 8.11523,-2.855469 l 2.57227,-0.230469 c 10.39164,-0.975593 20.76513,-1.322002 31.19727,-1.496093 2.10925,-0.03465 4.21897,-0.07119 6.32812,-0.111328 5.67936,-0.111096 11.35943,-0.21675 17.03906,-0.3125 3.54072,-0.05938 7.08046,-0.119944 10.6211,-0.183594 29.05976,-0.531721 58.11781,-1.060908 87.18359,-0.84961 9.648,0.07985 19.24174,0.11184 28.87695,-0.449218 6.83531,-0.408909 13.63787,-0.639521 20.48829,-0.650391 z"
     style="fill:#c71d31;fill-opacity:1" />
  <path
     d="m 1131,133 c 1.1756,0.40219 1.1756,0.40219 2.375,0.8125 2.5872,1.89065 2.8121,4.13382 3.625,7.1875 0.1883,2.75258 0.2801,5.37784 0.25,8.125 0.01,0.6832 0.015,1.36641 0.023,2.07031 -0.015,4.03165 -0.4407,7.72463 -1.2734,11.66773 -1.6825,9.91212 -1.2872,19.98656 -1.2656,30.00805 0,2.2129 0,4.4258 -0.01,6.63869 0,4.61518 0,9.23028 0.011,13.84545 0.011,5.91363 0,11.82709 -0.01,17.74072 -0.01,4.55959 0,9.11913 3e-4,13.67873 0,2.18128 -3e-4,4.36258 -0.01,6.54386 -0.01,3.04163 0,6.08297 0.014,9.12458 -0.01,1.34736 -0.01,1.34736 -0.012,2.72195 0.03,4.43124 0.2794,7.78296 2.2711,11.83493 1.9411,8.88535 2.3381,17.74728 2.3125,26.8125 0.024,1.74313 0.024,1.74313 0.049,3.52148 0,6.96203 0,13.752 -4.778,19.31373 -4.3966,3.7552 -11.1733,2.74639 -16.5833,2.35229 -4.763,-1.61601 -7.3046,-3.76444 -10,-8 -1.6426,-4.89788 -2.3961,-9.55226 -2.625,-14.6875 -0.038,-0.76055 -0.076,-1.52109 -0.115,-2.30469 -0.5189,-11.99225 -0.3269,-24.00799 -0.26,-36.00781 0.026,-4.875 0.046,-9.74996 0.062,-14.625 0.01,-1.11439 0.017,-2.22879 0.025,-3.37695 0,-1.53431 0,-1.53431 0.01,-3.09961 0.01,-0.90057 0.01,-1.80115 0.016,-2.72901 0.029,-2.21776 0.029,-2.21776 -1.1135,-4.16943 -4.6638,-1.08139 -9.412,-1.28363 -14.1797,-1.53516 -0.7716,-0.043 -1.5432,-0.0859 -2.3381,-0.13023 -1.6254,-0.0898 -3.2508,-0.17793 -4.8762,-0.26454 -2.4666,-0.1318 -4.9328,-0.26947 -7.399,-0.40796 -1.5872,-0.0869 -3.1744,-0.17354 -4.7617,-0.25977 -1.091,-0.0609 -1.091,-0.0609 -2.2041,-0.12306 -9.1976,-0.6077 -9.1976,-0.6077 -18.2412,0.72072 -2.175,0.12512 -4.3531,0.20114 -6.5312,0.24609 -1.9298,0.0493 -1.9298,0.0493 -3.8985,0.0996 -2.6822,0.0623 -5.3644,0.11786 -8.0469,0.17188 -6.9963,0.1843 -13.6557,0.70006 -20.5332,1.99048 -5.2938,0.87092 -10.6394,1.16399 -15.9902,1.49194 0.0157,1.394 0.0157,1.394 0.0317,2.81616 0.17708,18.18479 0.0704,36.15818 -1.74951,54.27417 -0.29583,3.04992 -0.54758,6.10117 -0.79004,9.15576 -0.16386,2.00132 -0.32792,4.00263 -0.49219,6.00391 -0.0707,0.91177 -0.14147,1.82354 -0.21436,2.76294 -0.64703,7.43809 -2.12586,12.6964 -7.78564,17.98706 -4.6986,0.74581 -6.83859,0.53425 -11.125,-1.4375 -7.23135,-6.44533 -11.92801,-15.52924 -13.22266,-25.14453 -0.2105,-6.1046 0.922,-11.84838 2.13233,-17.81128 2.56074,-12.96506 3.43231,-26.14976 3.21533,-39.34497 -0.0606,-6.24855 0.35902,-12.49121 0.73267,-18.72632 0.25654,-4.73562 0.0996,-8.85216 -0.73267,-13.5354 -0.0796,-3.16786 0.004,-6.33207 0.0625,-9.5 0.13983,-17.04768 -1.22987,-34.13417 -5.63672,-50.65234 -1.01592,-4.40855 -1.15373,-8.29806 0.75781,-12.36719 2.09583,-2.86204 4.12729,-4.35394 7.12891,-6.23047 1.38639,-0.88945 1.38639,-0.88945 2.80078,-1.79688 4.0424,-2.03487 7.11692,-3.00454 11.51953,-1.63281 8.97813,4.70014 8.97813,4.70014 11.36723,9.1797 1.99814,7.11011 2.24815,14.03295 2.125,21.37109 -0.008,1.04415 -0.0152,2.08829 -0.023,3.16408 -0.0242,3.30095 -0.0615,6.60154 -0.10205,9.90233 -0.0531,4.37369 -0.0931,8.74721 -0.125,13.12109 -0.0166,1.00309 -0.0332,2.00618 -0.0503,3.03966 -0.007,0.92849 -0.0132,1.85699 -0.02,2.81361 -0.0105,0.8159 -0.0209,1.63179 -0.0317,2.4724 0.0944,2.41815 0.0944,2.41815 2.22705,5.11574 3.0527,0.52633 5.9166,0.80397 9,1 1.231,0.10312 2.4621,0.20625 3.7305,0.3125 7.1955,0.55775 13.9043,0.62025 21.0949,-0.0454 5.2798,-0.44421 10.5677,-0.59249 15.8621,-0.76709 7.6112,-0.2685 15.2121,-0.57351 22.8125,-1.0625 4.2343,-0.27215 8.4426,-0.48535 12.6875,-0.4375 4.093,0.0353 8.162,-0.0998 12.25,-0.3125 1.1743,-0.058 2.3487,-0.11602 3.5586,-0.17578 2.9583,-0.28366 2.9583,-0.28366 4.8516,-1.80469 2.2307,-3.30446 2.2739,-6.71253 2.25,-10.60815 0,-0.97169 -0.01,-1.94338 -0.01,-2.94451 -0.012,-1.56721 -0.012,-1.56721 -0.025,-3.16609 0,-1.0828 -0.01,-2.16559 -0.012,-3.2812 -0.016,-4.62857 -0.044,-9.25704 -0.072,-13.88555 -0.018,-3.38191 -0.03,-6.76381 -0.042,-10.14575 -0.013,-1.55203 -0.013,-1.55203 -0.025,-3.13542 -0.052,-15.65626 -0.052,-15.65626 2.3924,-19.69661 0.5182,-0.44344 1.0364,-0.88688 1.5703,-1.34375 0.513,-0.46406 1.0261,-0.92813 1.5547,-1.40625 6.4523,-4.49418 14.0869,-1.96086 20.5703,0.90625 z"
     fill="#c71d31"
     id="path4" />
  <path
     d="m 719.875,226.75 c 1.25641,-0.005 2.51283,-0.01 3.80731,-0.0151 3.56174,-0.0117 7.12313,-0.009 10.68488,-4.9e-4 1.04748,-0.004 2.09497,-0.008 3.17419,-0.012 14.89231,0.0941 14.89231,0.0941 19.15146,3.71802 1.9079,2.2764 2.17691,3.5638 2.30716,6.55963 -1.23449,5.86384 -3.59959,11.79749 -8,16 -8.62002,4.31718 -19.27688,1.80733 -28.51001,0.78442 -8.8158,-0.92151 -17.63676,-1.20108 -26.4939,-1.44238 -5.14263,-0.14502 -10.23281,-0.33762 -15.35156,-0.86157 -9.04847,-0.80708 -18.14505,-0.62869 -27.22143,-0.61084 -3.18991,0.005 -6.37968,6e-5 -9.56958,-0.006 -10.56848,-0.004 -21.11766,0.14441 -31.67774,0.58203 -1.4492,0.0581 -1.4492,0.0581 -2.92769,0.1174 -0.89486,0.0413 -1.78973,0.0827 -2.71171,0.12528 -0.78232,0.0359 -1.56463,0.0717 -2.37065,0.10867 -2.14309,0.20121 -4.09574,0.62388 -6.16573,1.20334 0.15598,0.56847 0.31195,1.13695 0.47266,1.72265 1.29701,5.1451 1.62324,8.99708 0.52734,14.27735 -1.3722,7.25902 -1.4148,14.57489 -1.625,21.9375 -0.0342,1.14837 -0.0342,1.14837 -0.0691,2.31994 -0.25972,9.01988 -0.38271,17.9779 0.13156,26.99256 0.54323,9.71672 0.77503,19.42408 0.85062,29.15466 0.0161,1.71501 0.0395,3.42997 0.0705,5.14478 0.0422,2.42129 0.0578,4.84144 0.0672,7.26306 0.0175,0.72202 0.0349,1.44403 0.0529,2.18793 -0.026,6.18071 -2.03736,10.09166 -5.97092,14.77691 -2.47924,2.08005 -4.31954,3.18736 -7.50781,3.78516 -5.10454,-0.9571 -8.01568,-3.39196 -11.3125,-7.3125 -3.97645,-7.65834 -2.51731,-16.16681 -1.90735,-24.49271 2.27064,-31.67218 1.01385,-63.09751 -0.78015,-94.75729 -3.22915,-0.0292 -6.45826,-0.0469 -9.6875,-0.0625 -0.91201,-0.008 -1.82402,-0.0168 -2.76367,-0.0254 -1.32935,-0.005 -1.32935,-0.005 -2.68555,-0.01 -0.81171,-0.005 -1.62341,-0.0105 -2.45972,-0.0159 -2.55485,0.12067 -4.9045,0.58467 -7.40356,1.11352 -4.49755,0.24427 -8.99646,0.23102 -13.5,0.25 -1.83498,0.0309 -1.83498,0.0309 -3.70703,0.0625 -1.76924,0.008 -1.76924,0.008 -3.57422,0.0156 -1.07314,0.009 -2.14629,0.0187 -3.25195,0.0283 -3.40434,-0.40901 -5.23175,-1.3177 -7.9668,-3.35644 -3.12168,-4.68252 -2.70281,-9.52245 -2,-15 2.17429,-4.81516 6.29127,-7.00376 11,-9 3.04175,-0.30884 3.04175,-0.30884 6.26172,-0.22266 1.78942,0.0299 1.78942,0.0299 3.61499,0.0603 1.25756,0.033 2.51512,0.0659 3.81079,0.0999 9.61662,0.1447 18.96878,0.0181 28.50073,-1.3147 2.9144,-0.39474 5.45488,-0.6883 8.36304,-0.15454 4.79129,0.73874 9.50985,0.69404 14.35107,0.69971 1.08402,0.004 2.16804,0.008 3.2849,0.0123 3.58345,0.01 7.1668,0.009 10.75026,0.007 1.86232,0.001 1.86232,0.001 3.76227,0.002 18.2479,-0.001 36.44484,-0.42134 54.67528,-1.18972 19.84043,-0.83113 39.64447,-1.22252 59.5,-1.25 z"
     fill="#c71d31"
     id="path5" />
  <path
     d="m 673.0625,84 c 3.02696,4.686911 3.41782,9.268793 2.45825,14.725098 -0.9579,6.024022 -1.00814,12.123602 -1.20825,18.212402 -0.0237,0.70992 -0.0475,1.41984 -0.0719,2.15128 -0.3998,12.76676 0.17491,25.22693 1.75943,37.91122 0.20109,1.83111 0.20109,1.83111 0.40625,3.69922 0.79935,6.24879 2.36817,12.05147 4.21875,18.05078 3.82563,12.62611 3.82563,12.62611 2.375,17.25 -3.08754,5.21861 -7.09761,10.56473 -12.96484,12.72266 -0.97647,0.16822 -0.97647,0.16822 -1.97266,0.33984 -0.6484,0.13535 -1.2968,0.2707 -1.96484,0.41016 -2.92509,-0.6591 -4.25397,-2.39504 -6.02466,-4.72193 -1.71217,-2.79361 -2.18675,-5.40148 -2.698,-8.62573 -0.16701,-1.05187 -0.16701,-1.05187 -0.3374,-2.125 -3.55611,-24.04468 -5.3318,-48.71246 -5.0376,-73 -0.62133,0.77988 -1.24266,1.55977 -1.88281,2.36328 -1.30685,1.62754 -2.63381,3.23944 -3.99219,4.82422 -1.84978,2.44824 -3.38344,4.8618 -4.9375,7.5 -3.69398,6.26573 -7.73372,12.28136 -12.3125,17.9375 -1.61025,2.03965 -2.91223,4.03167 -4.25,6.25 -6.02035,9.82267 -6.02035,9.82267 -10.625,12.125 -4.11498,0.39567 -6.47454,0.26788 -10.1875,-1.625 -3.07831,-2.59946 -4.7121,-4.93799 -6.8125,-8.375 -1.09663,-1.5678 -2.2016,-3.12978 -3.3125,-4.6875 -2.50881,-3.56262 -4.88289,-7.17727 -7.1875,-10.875 -2.74037,-4.35996 -5.71274,-8.40821 -8.92969,-12.42578 -1.39769,-1.79057 -2.65751,-3.60116 -3.88281,-5.51172 -1.44637,-2.58408 -1.44637,-2.58408 -3.6875,-3.5 0.17273,0.97711 0.34547,1.95422 0.52344,2.96094 0.60876,4.27427 0.40497,8.37077 0.10156,12.66406 -0.0438,0.73734 -0.0877,1.47469 -0.13281,2.23437 -0.18068,2.80047 -0.36227,5.54598 -0.96216,8.29175 -0.76404,4.10665 -1.03334,8.23067 -1.36206,12.39185 -0.16003,1.89785 -0.32086,3.79564 -0.48242,5.69336 -0.25085,2.97027 -0.49722,5.94058 -0.72974,8.91235 -0.22737,2.88283 -0.47477,5.7634 -0.72534,8.64429 -0.0637,0.87327 -0.12743,1.74655 -0.19307,2.64628 -0.56632,6.24369 -1.96878,12.03862 -5.0374,17.56075 -3.75457,2.50304 -5.54746,2.4528 -10,2 -5.53017,-2.87569 -9.85159,-6.5913 -11.85937,-12.55078 -1.22379,-5.3951 -1.39809,-9.00377 0.93359,-14.16016 7.4052,-18.30989 7.20184,-41.31732 7.30078,-60.78906 0.008,-0.70187 0.0155,-1.40375 0.0235,-2.12689 0.0652,-7.44498 -0.14219,-14.29211 -2.76157,-21.352114 C 543.60147,94.735504 544.02643,92.245228 545,89 c 2.50939,-3.315984 5.0045,-4.910317 9,-6 6.67203,-0.430453 12.29247,0.194978 18,4 0.93256,1.898433 1.86167,3.798719 2.76562,5.710938 2.7557,5.11025 6.71875,9.470302 10.42188,13.914062 C 587,109 587,109 588.75,112.1875 c 2.80339,5.05924 6.59436,9.35553 10.25,13.8125 2.0501,2.58862 4.09642,5.18017 6.14062,7.77344 1.85426,2.22043 3.71376,4.28486 5.85938,6.22656 0.66,0 1.32,0 2,0 1.16199,-1.51613 1.16199,-1.51613 2.25,-3.51563 0.4386,-0.75079 0.87721,-1.50159 1.3291,-2.27514 0.4689,-0.81155 0.93779,-1.62309 1.4209,-2.45923 4.09838,-6.92263 8.42513,-12.95653 13.72266,-19.01562 2.91918,-3.50503 5.24706,-7.24703 7.62109,-11.13282 2.15127,-3.379107 4.58761,-6.47016 7.08984,-9.593747 1.37996,-1.76882 2.6146,-3.553492 3.81641,-5.445313 1.91874,-2.809582 3.56746,-4.168321 6.8125,-5.25 5.82574,-0.619756 11.00842,-0.572324 16.00003,2.6875 z"
     fill="#c71d31"
     id="path6" />
  <path
     d="M 272.00375,76.436514 C 277.35756,76.882665 276.47999,79.946372 280,84 c 3.08588,5.730919 4.809,10.539293 3,17 -1.0625,2.4375 -1.0625,2.4375 -2,4 h -2 l -0.79297,1.82031 c -1.28126,2.31373 -2.4551,3.43427 -4.51953,5.05469 -2.38543,1.95038 -4.06546,3.60511 -6,6.0625 -6.17894,7.80066 -16.50695,12.62993 -25.375,16.75 l -2.04883,0.9707 C 235.24554,138 235.24554,138 233,138 l -1,3 c -1.96875,1.17578 -1.96875,1.17578 -4.5,2.3125 -5.10427,2.43095 -10.13808,5.05091 -14.5,8.6875 l -1,3 2.125,0.8125 c 7.61974,3.14728 16.07128,6.95434 22.375,12.3125 3.32486,2.49364 6.83873,3.50966 10.78125,4.75 3.0798,1.2744 5.12938,3.04311 7.71875,5.125 1.96866,0.92412 3.97146,1.77851 6,2.5625 5.60168,2.17922 5.60168,2.17922 8.21094,3.87109 5.07136,2.8482 10.76693,4.24723 16.30468,5.96094 l 2.77344,0.88672 2.52197,0.7832 c 2.34301,1.00139 3.57796,1.98018 5.18897,3.93555 1.12439,3.04282 1.45077,5.78415 1,9 -3.3319,4.8116 -8.67187,7.00195 -14,9 l -3.375,1.6875 c -5.43065,1.96627 -9.81688,2.39032 -15.28125,0.29297 C 260.2389,213.98237 256.64597,211.73448 253,209 l -2.9375,-1.375 C 246.67643,205.82831 244.66877,203.73386 242,201 c -1.25575,-0.91686 -2.52719,-1.81256 -3.8125,-2.6875 L 235,196 v -2 l -2.19531,-0.32422 c -3.03214,-0.73058 -5.04993,-1.82893 -7.67969,-3.48828 L 222.51562,188.56641 220,187 c -2.32201,-1.35451 -4.65969,-2.67722 -7,-4 v -2 l -2.20703,-0.79297 c -2.84533,-1.22966 -5.00073,-2.671 -7.48047,-4.51953 -6.97656,-4.98917 -14.49063,-8.45022 -22.40234,-11.69531 C 178.76406,162.87745 177.49035,161.90854 176,160 c -1.52591,-4.88118 -1.69377,-9.65565 0.6875,-14.25 3.14155,-4.38932 7.5259,-6.2252 12.375,-8.32813 3.05662,-1.47953 5.35178,-3.23701 7.9375,-5.42187 4.60714,-3 8,-6 8,-6 1.91069,-0.70394 3.82383,-1.4021 5.75,-2.0625 5.85176,-2.43823 10.52966,-7.15876 15.25,-11.28906 3.41631,-2.81579 7.039,-5.34792 10.64453,-7.91406 2.39034,-1.66916 2.39034,-1.66916 4.35547,-3.73438 4.75905,-0.78661 6.15223,-4.343941 9.375,-7.375 2.31372,-2.227134 4.23209,-4.340284 5.9375,-7.0625 L 258,84 h 2 l 0.875,-1.875 c 1.782,-3.366005 7.25471,-5.315982 11.12875,-5.688486 z"
     fill="#c71d31"
     id="path7" />
  <path
     d="m 277.13232,226.75977 c 3.90089,-0.006 7.80145,-0.0299 11.70224,-0.058 3.0507,-0.0186 6.10132,-0.0238 9.15208,-0.0254 1.44001,-0.003 2.88003,-0.0109 4.31999,-0.0242 15.95977,-0.13694 15.95977,-0.13694 21.56837,5.09775 1.59386,3.18773 2.00404,5.68179 2.125,9.25 -1.74441,5.23321 -4.12875,11.53839 -9.26612,14.15357 -3.01467,0.93337 -5.44865,1.08973 -8.60107,1.0769 -1.70156,-0.003 -1.70156,-0.003 -3.4375,-0.006 -1.1782,-0.0123 -2.35641,-0.0245 -3.57031,-0.0371 -1.13954,-6.4e-4 -2.27907,-0.001 -3.45313,-0.002 -5.82247,-0.0293 -11.58806,-0.22758 -17.39258,-0.68765 -9.3162,-0.63776 -18.60881,-0.64277 -27.94336,-0.63062 -1.84988,-6.7e-4 -3.69977,-0.002 -5.54965,-0.003 -3.84397,-0.002 -7.68792,6.3e-4 -11.53189,0.005 -4.92142,0.006 -9.84278,0.002 -14.7642,-0.004 -3.80554,-0.004 -7.61106,-0.002 -11.4166,1.3e-4 -1.81565,6.6e-4 -3.63131,-1.5e-4 -5.44697,-0.002 -2.52873,-0.002 -5.05737,0.001 -7.5861,0.007 -1.11588,-0.003 -1.11588,-0.003 -2.2543,-0.006 -3.73201,0.0152 -7.15159,0.30022 -10.78622,1.13553 -2.26467,0.14618 -4.53247,0.2468 -6.80079,0.3164 -0.99184,0.0317 -0.99184,0.0317 -2.00372,0.0639 -6.8199,0.21 -13.64155,0.36481 -20.46307,0.51126 -3.10608,0.0678 -6.21113,0.15058 -9.31641,0.24804 -3.63699,0.11355 -7.27346,0.19618 -10.91171,0.25632 -2.01993,0.0406 -4.03918,0.11114 -6.05826,0.1824 -8.0579,0.0915 -13.5128,-0.86973 -19.44604,-6.57837 -2.70088,-3.31509 -4.0663,-5.69721 -3.94141,-10.03515 0.41313,-2.21048 0.93655,-3.94849 1.94141,-5.96485 6.27323,-3.1652 11.77266,-3.39332 18.70312,-3.25781 1.50032,0.01 1.50032,0.01 3.03095,0.02 3.1723,0.0233 6.34388,0.067 9.51593,0.11276 3.18624,0.0351 6.37244,0.0659 9.55877,0.0913 1.97667,0.0169 3.9533,0.04 5.92981,0.07 1.34225,0.0146 1.34225,0.0146 2.71161,0.0296 1.17626,0.0169 1.17626,0.0169 2.37628,0.0342 2.1923,-0.10093 4.06383,-0.51858 6.17353,-1.10007 1.43568,-0.14169 2.87552,-0.24482 4.3164,-0.3164 1.25563,-0.0627 1.25563,-0.0627 2.53662,-0.12671 0.89413,-0.0394 1.78826,-0.0788 2.70948,-0.11939 0.93022,-0.0439 1.86044,-0.0878 2.81884,-0.13305 6.17268,-0.26736 12.31686,-0.31686 18.49366,-0.24195 5.48481,0.057 10.68758,-0.15775 16.125,-1 6.58949,-1.00391 13.1067,-1.38132 19.76562,-1.61328 1.16404,-0.0413 2.32809,-0.0827 3.52741,-0.1253 14.27706,-0.46292 28.55573,-0.54663 42.83929,-0.56409 z"
     fill="#c71d31"
     id="path8" />
  <path
     d="m 200.12939,276.01904 c 5.51699,2.89314 9.6894,7.45897 13.87061,11.98096 0.95519,0.93199 0.95519,0.93199 1.92968,1.88281 9.30853,9.58639 9.14786,23.19023 9.03907,35.71484 C 224.55709,334.39676 222.4508,341.0626 217,348 c -0.26813,0.78375 -0.53626,1.5675 -0.8125,2.375 -4.2306,9.35184 -14.97074,13.08096 -23.89844,16.73437 -10.41681,3.57341 -24.40337,3.22584 -34.57031,-1.07422 C 155.66299,364.82373 153.8577,363.4969 152,362 c -0.72704,-0.54399 -1.45407,-1.08797 -2.20313,-1.64844 C 143.09326,354.94763 139.18422,348.3934 135,341 c -0.56204,-0.75153 -1.12407,-1.50305 -1.70313,-2.27735 -1.97119,-4.1383 -1.74152,-8.0718 -1.67187,-12.59765 0.013,-1.39424 0.013,-1.39424 0.0264,-2.81665 C 131.87248,312.78278 132.61241,302.72128 139,294 c 0.4834,-0.67805 0.96679,-1.3561 1.46484,-2.05469 C 145.58737,285.61348 151.96356,281.9443 159,278 c 0.98355,-0.60586 1.96711,-1.21172 2.98047,-1.83594 12.00684,-6.90272 25.736,-5.49612 38.14892,-0.14502 z M 168,294 c -0.84563,0.51562 -1.69126,1.03125 -2.5625,1.5625 C 158.53721,302.46278 155.1239,313.36613 155,323 c 0.80564,7.31791 2.37121,14.37121 7.6875,19.6875 5.636,4.21656 12.08353,7.8392 19.3125,7.3125 5.09264,-1.18543 9.59339,-2.85311 12.8125,-7.125 0.75795,-1.27499 1.48532,-2.56846 2.1875,-3.875 0.46406,-0.74379 0.92812,-1.48758 1.40625,-2.25391 4.44883,-7.69896 4.73381,-14.51271 2.85937,-23.11719 C 198.82077,304.96171 195.76663,297.10963 188,292 c -6.71157,-2.23719 -14.05442,-1.96373 -20,2 z"
     fill="#c71d31"
     id="path9" />
  <path
     d="m 279.8125,271.5 c 0.85143,-0.0155 1.70285,-0.0309 2.58008,-0.0469 7.9018,0.0481 14.86561,2.3195 20.66992,7.85938 0.64582,0.60328 1.29164,1.20656 1.95703,1.82812 0.65356,0.6136 1.30711,1.22719 1.98047,1.85938 1.41477,1.18975 2.83142,2.37729 4.25,3.5625 6.73509,5.95746 10.19214,12.99226 10.96875,21.96484 0.0341,2.83758 -0.07,5.63855 -0.21875,8.47266 -0.0812,1.94906 -0.0812,1.94906 -0.16406,3.9375 C 321.27571,332.90721 320.18032,341.18503 313,351 c -0.68063,1.0725 -1.36125,2.145 -2.0625,3.25 -5.49964,7.80594 -11.4589,10.74926 -20.72266,12.44141 -14.99859,2.19156 -28.4602,2.98419 -41.25781,-6.16016 C 246.3936,358.52553 244.18502,356.41503 242,354 c -0.5775,-0.60844 -1.155,-1.21688 -1.75,-1.84375 -8.45951,-9.16447 -9.43014,-17.77292 -9.4375,-29.90625 -0.0122,-1.04672 -0.0245,-2.09344 -0.0371,-3.17188 C 230.7495,305.27107 234.23178,295.85722 244,286 c 5.36101,-5.06725 10.05241,-7.78795 17.32422,-9.19922 2.8479,-0.68318 2.8479,-0.68318 5.39453,-2.85156 4.45827,-2.64842 8.00674,-2.5404 13.09375,-2.44922 z M 259,298 c -2.10791,2.63202 -2.10791,2.63202 -3,6 -0.27328,0.79277 -0.54656,1.58555 -0.82813,2.40234 -3.50878,11.11646 -3.35357,21.4067 1.96485,31.82422 3.25263,5.64336 6.45044,8.17999 12.73828,9.96094 4.89086,1.08482 9.1639,1.45199 14,-0.125 5.56698,-3.67421 10.42408,-8.51112 14.125,-14.0625 1.84279,-9.58253 3.16502,-21.39164 -2,-30 -0.63809,-1.12342 -0.63809,-1.12342 -1.28906,-2.26953 C 291.47624,296.37679 288.82647,293.37009 283,291 c -9.52581,-2.197 -16.26762,1.39976 -24,7 z"
     fill="#c71d31"
     id="path10" />
  <path
     d="m 165,86 c 4.39047,6.196547 4.51942,12.874256 4.3125,20.1875 -0.0243,1.72694 -0.0243,1.72694 -0.0491,3.48877 -0.0425,2.75384 -0.0938,5.50639 -0.15601,8.25977 -0.10821,4.88699 -0.18405,9.77425 -0.25786,14.66188 -0.0898,5.92579 -0.1875,11.85144 -0.28706,17.77708 -0.0193,1.14883 -0.0386,2.29765 -0.0584,3.48129 -0.20462,11.78513 -0.46609,23.56318 -0.98843,35.33902 -0.0387,0.88393 -0.0773,1.76785 -0.11718,2.67856 C 166.45118,211.72288 166.45118,211.72288 161,218 c -0.43957,0.55301 -0.87914,1.10602 -1.33203,1.67578 C 158,221 158,221 155.76562,221.06641 149.55494,219.82234 144.95498,218.12723 141,213 c -3.31344,-6.09948 -3.15247,-11.35195 -2,-18 1.1263,-7.437 1.33014,-14.86322 1.5625,-22.375 0.0432,-1.26328 0.0864,-2.52656 0.13086,-3.82813 0.31605,-9.65205 0.48645,-19.21978 -0.13086,-28.85937 -0.0926,-1.47004 -0.18506,-2.94009 -0.27734,-4.41016 -0.0475,-0.74395 -0.0951,-1.4879 -0.14405,-2.25439 -0.14135,-2.27674 -0.2703,-4.55384 -0.39502,-6.83154 -0.45422,-8.70573 -0.45422,-8.70573 -1.30859,-17.37891 C 137.57337,101.85679 137.22122,94.807999 140,88 c 5.8789,-6.557239 17.87918,-6.30571 25,-2 z"
     fill="#c71d31"
     id="path11" />
  <path
     d="m 727.25781,349.86328 c 1.30056,-0.002 1.30056,-0.002 2.6274,-0.005 C 751.9829,349.9829 751.9829,349.9829 759,357 c 0.59705,7.16469 -1.05411,11.48257 -5.25,17.3125 -3.41619,3.33854 -5.04598,3.3856 -9.75,3.6875 -2.47237,-0.38604 -4.9306,-0.86905 -7.3711,-1.42188 -10.42941,-2.09553 -20.80799,-1.96108 -31.40698,-1.85937 -3.31042,0.0315 -6.62035,0.041 -9.93091,0.0469 -2.12956,0.009 -4.25912,0.0195 -6.38867,0.0312 -0.97719,0.004 -1.95439,0.008 -2.9612,0.0129 -5.40259,0.0561 -10.593,0.4248 -15.94114,1.19025 -3.21728,0.27061 -6.4354,0.49552 -9.65625,0.71875 -2.32582,0.19562 -4.64607,0.46568 -6.95703,0.79296 -5.67462,0.72682 -11.36049,0.75069 -17.07422,0.80079 -1.67159,0.0435 -1.67159,0.0435 -3.37696,0.0879 -8.15023,0.0635 -8.15023,0.0635 -12.12304,-2.28321 -3.78051,-4.41602 -4.05115,-8.41332 -4.17578,-14.03125 0.45859,-2.6332 1.27021,-3.46834 3.36328,-5.08593 3.02392,-1.00798 5.20772,-1.16729 8.375,-1.2461 1.06863,-0.0329 2.13726,-0.0657 3.23828,-0.0996 2.22648,-0.0604 4.45304,-0.11772 6.67969,-0.17187 1.07894,-0.0342 2.15789,-0.0683 3.26953,-0.10352 0.97066,-0.025 1.94133,-0.0501 2.9414,-0.0759 2.96076,-0.25658 5.70483,-0.70339 8.61402,-1.27343 6.13287,-1.15712 12.20685,-1.56787 18.43286,-1.88111 1.17524,-0.0638 2.35047,-0.12751 3.56132,-0.1932 2.47816,-0.1327 4.95651,-0.26193 7.43502,-0.38785 3.71729,-0.18993 7.43366,-0.39341 11.15014,-0.59863 11.18637,-0.59891 22.35648,-1.08999 33.56055,-1.10547 z"
     fill="#c71d31"
     id="path12" />
  <path
     d="m 716.4375,270.75 c 1.05623,-0.0215 2.11245,-0.043 3.20068,-0.0652 9.44995,-0.0402 9.44995,-0.0402 13.36182,3.31519 2.46978,2.96374 2.99067,4.49631 3.0625,8.375 -1.32189,4.50999 -3.43743,7.61967 -7.0625,10.625 -3.63549,1.4542 -7.5232,1.06728 -11.375,1 -6.98833,-0.0538 -13.95489,0.0872 -20.9375,0.375 -0.88156,0.0309 -1.76311,0.0619 -2.67139,0.0937 -4.67367,0.2083 -9.13887,0.6923 -13.73877,1.55469 -7.13768,1.25976 -14.17109,1.27008 -21.40234,1.22656 -1.29293,0.008 -2.58586,0.0155 -3.91797,0.0234 -18.60378,-0.0378 -18.60378,-0.0378 -23.45703,-4.64844 -0.7425,-1.29937 -0.7425,-1.29937 -1.5,-2.625 -0.4125,-0.63937 -0.825,-1.27875 -1.25,-1.9375 -1.05046,-2.88876 -1.13123,-5.01267 -0.75,-8.0625 1.5,-2.3125 1.5,-2.3125 4,-4 7.34343,-1.37579 14.68332,-0.99094 22.125,-0.875 12.11953,0.12875 23.76681,-0.83197 35.73633,-2.7832 8.80726,-1.40756 17.67622,-1.48455 26.57617,-1.5918 z"
     fill="#c71d31"
     id="path13" />
  <path
     d="m 728,312 c 2.78535,2.78535 3.18986,4.47206 3.3125,8.3125 -0.0526,3.27522 -0.26929,4.60799 -1.875,7.5625 -7.19151,6.26952 -14.6479,5.43053 -23.75,5.1875 -9.80224,-0.39325 -9.80224,-0.39325 -19.46484,0.91797 -6.90796,1.61615 -13.97352,1.31724 -21.02832,1.28027 -2.45305,-0.0108 -4.90538,-2e-5 -7.3584,0.0127 -1.57553,-10e-4 -3.15105,-0.004 -4.72657,-0.008 -0.72511,0.004 -1.45023,0.008 -2.19732,0.0123 C 646.57204,335.23813 642.99089,334.73357 639,333 c -2.95314,-3.264 -4.2534,-5.84116 -4.4375,-10.1875 C 635,319 635,319 636.16406,317.33594 c 5.50257,-4.004 14.49137,-3.43085 21.02344,-3.21094 12.8222,0.23155 26.16311,-2.25752 38.60547,-5.24219 C 705.75898,306.58915 719.26321,306.17547 728,312 Z"
     fill="#c71d31"
     id="path14" />
  <path
     d="m 721,122 c 2.55148,2.47174 3.38772,4.55374 4,8 -0.0905,2.33613 -0.24724,4.66987 -0.4375,7 -0.57375,8.10442 -0.67945,16.18936 -0.6875,24.3125 -0.004,1.16725 -0.009,2.33449 -0.0134,3.53711 0.0106,6.54234 0.30221,12.98166 0.90259,19.49585 0.29797,3.35387 0.43875,6.66244 0.48584,10.02954 0.0258,1.12148 0.0516,2.24297 0.0781,3.39844 -0.3768,3.70523 -1.38394,6.06611 -3.32812,9.22656 -4.48099,2.56057 -8.14568,2.01779 -12.94531,0.77344 C 705.50734,206.43812 703.65993,204.31985 702,201 c -0.0165,-2.0446 0.0363,-4.0899 0.12109,-6.13281 0.0485,-1.26957 0.097,-2.53913 0.14698,-3.84717 0.0278,-0.67593 0.0556,-1.35186 0.0843,-2.04828 0.14362,-3.53693 0.26575,-7.07457 0.38592,-10.61237 0.0242,-0.71167 0.0484,-1.42334 0.0733,-2.15658 0.20823,-6.3591 0.30819,-12.71511 0.31342,-19.07779 8e-4,-0.96688 0.002,-1.93376 0.002,-2.92993 -0.0362,-7.25163 -0.48237,-14.4218 -1.20166,-21.63648 0.092,-4.41015 0.9815,-6.69246 3.07426,-10.55859 5.77261,-3.92538 10.11914,-3.08157 16,0 z"
     fill="#c71d31"
     id="path15" />
  <path
     d="m 720,85 c 3.87459,2.659036 5.8627,5.450814 7,10 0.58765,4.872975 0.51168,8.06192 -1.875,12.4375 -3.73773,4.50727 -3.73773,4.50727 -6.48047,4.89844 C 712.17596,112.42516 708.13901,112.06838 703,108 c -3.11353,-4.4192 -3.75485,-8.705821 -3,-14 0.87826,-3.25211 1.81775,-6.191093 4.70703,-8.167969 C 709.5979,84.057319 714.89829,84.365523 720,85 Z"
     fill="#c71d31"
     id="path16" />
  <path
     id="path2"
     d="m 205.51562,25.289062 c -6.08741,0.434816 -12.09426,0.750475 -18.19531,0.699219 -11.22992,-0.09629 -22.44809,0.111471 -33.67383,0.382813 l -2.7207,0.06641 C 143.3879,26.620603 135.85017,26.808865 128.3125,27 121.70836,27.168034 115.10432,27.335538 108.5,27.496094 l -2.76172,0.06641 C 93.37822,27.865002 81.03205,28.065178 68.66797,28 59.00421,27.894927 47.71785,27.393949 39.75,33.8125 L 38,36 35.3125,38.3125 C 32.64359,41.462946 32.64359,41.462946 32.25,49.6875 32.1825,52.12549 32.10188,54.563205 32,57 31.31218,59.063447 30.69045,61.149724 30.125,63.25 29.75042,64.833434 29.37535,66.416752 29,68 c -2.42716,8.970939 -3.2149,17.280063 -3.125,26.5625 0.12207,9.82235 0.07,19.61387 -0.17773,29.43359 -0.0451,1.70972 -0.0898,3.41919 -0.13477,5.12891 -0.0591,2.46206 -0.11839,4.92482 -0.18359,7.38672 l -0.0625,2.30859 C 25.25191,141.55311 25.14078,144.26841 25,147 c -1.016,7.16452 -1.20882,14.2461 -1.29102,21.47461 -0.0173,1.55161 -0.0364,3.10272 -0.0566,4.6543 -0.0567,4.24319 -0.10915,8.48716 -0.15625,12.73047 -0.0295,2.69805 -0.0585,5.39573 -0.0898,8.09375 -0.32844,28.03217 -0.50814,56.06354 -0.52734,84.09765 -0.001,2.78575 -0.004,5.57167 -0.008,8.35742 -0.006,4.45719 -0.0108,8.91586 -0.008,13.37305 0.002,1.64887 0.003,3.29644 0.004,4.94531 -0.003,2.28785 -0.006,4.57544 -0.002,6.86328 l 0.006,2.0918 c 0.003,3.91373 0.13495,7.71343 0.63086,11.5918 0.54257,3.58958 0.54261,3.58972 0.59571,6.68359 l -0.0352,2.71485 -0.0234,3.01171 c -0.0262,2.0599 -0.0523,4.11979 -0.0781,6.17969 l -0.0234,2.9961 c -0.0223,1.71352 -0.006,3.42833 0.0625,5.14062 0.65058,2.48289 1.01426,4.4465 1.09766,7.04688 l -0.0352,3.5625 -0.0273,3.95312 c -0.15895,17.42458 -3.14908,41.26663 6.96484,56.4375 13.11093,10.49409 29.78432,10.30811 45.83203,10.0957 3.13893,-0.0446 6.27884,-0.0781 9.41797,-0.10546 l 2.29297,-0.0176 c 4.85233,-0.0382 9.60413,0.0452 14.4375,0.54687 4.18452,0.45062 8.18033,0.48033 12.38086,0.26367 12.69834,-0.72597 25.41244,-1.01176 38.12695,-1.27929 l 3.19922,-0.0664 c 14.83767,-0.3115 29.65968,-0.4703 44.5,-0.375 13.16278,0.0846 26.23191,-0.37093 39.375,-1.0625 13.97187,-0.73753 27.91663,-1.07651 41.90625,-1.06641 l 2.52734,0.004 c 8.48678,0.0103 16.97244,0.0338 25.45899,0.0996 15.04827,0.11814 30.10645,0.27332 45.14062,-0.50781 l 3.87305,-0.2168 c 2.30784,-0.10527 4.6148,-0.23305 6.91992,-0.38672 9.65291,-0.99156 22.12672,-4.15367 28.61133,-11.92578 8.391,-13.61111 8.22836,-34.99402 6.76758,-50.46484 -0.6339,-5.97213 -0.89607,-11.86855 -0.90625,-17.87305 l 0.0137,-3.59961 c 0.008,-8.85007 0.10173,-17.69331 0.3125,-26.54101 0.58264,-23.84006 0.8827,-47.61449 0.375,-71.45899 -0.37477,-17.16856 -0.60375,-34.32158 -0.56836,-51.49414 L 402,192.6446 c 0.0188,-9.66435 0.0381,-19.32797 0.0937,-28.99219 0.0214,-3.66967 0.0376,-7.34005 0.0488,-11.00976 0.005,-1.72724 0.011,-3.45442 0.0176,-5.18164 0.0657,-7.83799 0.41188,-15.65056 -1.19336,-23.36524 -0.71727,-2.8011 -0.95973,-4.15413 -0.60352,-7.09961 0.73604,-3.46345 0.79711,-6.697 0.82618,-10.22851 l -0.002,-2.70508 c 0.01,-6.486327 -0.26749,-12.712114 -1.25,-19.125 -0.70623,-4.533647 -0.99356,-8.554653 -0.5625,-13.125 0.44491,-4.031371 0.7836,-8.005478 0.875,-12.0625 -0.18062,-10.711876 -4.91616,-17.078964 -12.25,-24.75 -9.48834,-8.479463 -23.21592,-8.419302 -35.25582,-8.171945 -2.80814,0.06147 -5.61721,0.10419 -8.42578,0.140625 l -2.0918,0.02344 c -5.13666,0.05845 -10.20743,-0.0562 -15.33594,-0.417968 -40.24471,-3.036739 -81.08992,-4.034735 -121.375,-1.285157 z M 375.6543,45.890625 c 2.79147,-0.02625 4.65828,2.008656 2.98828,5.230469 -0.81211,4.12819 0.11837,13.653732 -0.79492,22.658203 -1.55333,15.314965 1.20507,32.189453 1.20507,32.189453 l 0.18946,25.30078 0.19336,25.64649 1.50976,43.37695 1.20703,34.64844 2.04102,106.85742 c 0,0 -0.57608,5.91095 0.47656,21.92773 0.88458,9.73038 2.54378,20.17785 2.7207,37.51563 0.0693,2.78565 -2.15311,5.08989 -4.93945,5.12109 0,0 -12.74872,-1.03784 -26.49609,-1.02734 -8.84398,0.007 -16.15461,1.94247 -27.2461,1.19336 -16.49409,-1.11398 -30.26048,0.86294 -42.81445,1.20312 -11.90723,0.32263 -21.13185,0.44481 -24.4375,-0.0449 -9.98534,1.76212 -25.7637,0.23428 -40.28125,0.44141 0,0 -28.0202,0.71113 -42.03125,0.46093 -19.26518,-1.25098 -60.7975,2.90393 -82.31445,0.90235 0,0 -11.25869,-0.72735 -25.01953,0.27344 L 51.4707,409.9883 c -2.78574,0.03 -5.05808,-2.22387 -5.05078,-5.00976 l 0.0195,-7.16407 0.12305,-45.28711 0.13477,-50.0371 0.14843,-54.79297 0.16602,-60.80078 0.2832,-105.160162 0.0391,-14.419922 0.0371,-13.375 c 0.53758,-4.949244 1.06578,-6.551686 7.3418,-5.425781 l 24.19141,0.216797 36.5332,0.757812 16.80859,-1.310546 145.68555,-1.125 79.80274,-0.671875 c 9.19964,-0.884581 15.87109,-0.134766 15.87109,-0.134766 0.71046,-0.236461 1.40464,-0.351364 2.04883,-0.357422 z m -13.16797,8.96875 c -3.77819,-0.04253 -8.57892,0.781661 -17.14649,0.564453 -70.04669,0.173156 -38.43216,-0.06864 -144.93164,0.203125 -15.06205,0.03844 -44.37057,1.299313 -64.30078,0.615235 -16.82158,-0.577381 -32.1744,1.272434 -51.50195,1.787109 -7.10105,0.189094 -15.95466,-2.66966 -24.55664,-0.40625 0,0 -4.20058,1.287843 -4.95117,7.792969 0,0 0.59765,18.648542 0.59765,30.908203 -0.2502,10.007881 2.35977,26.522951 1.85938,39.533201 -1.50118,6.50513 0.84629,15.76476 0.0957,26.77344 -0.38208,2.52172 -0.39354,27.89086 -0.57422,58.78906 -0.13705,23.4379 -0.2556,51.10323 -0.35156,77.56641 -0.0751,20.69876 -0.13619,40.66239 -0.18359,57.29492 -0.0312,10.94859 0.41998,22.45473 0.42578,29.77539 0.005,5.66981 -1.49614,7.8835 -1.53907,12.49805 2.61948,4.15584 7.44439,0.95829 19.7793,2.44726 8.12031,-1.59224 19.07533,-1.4544 48.63477,-1.77539 16.46091,-0.17875 35.78305,-0.47458 56.29297,-0.61523 11.03883,-0.0757 21.32356,-0.85506 31.64648,0.17969 10.2615,1.0286 16.74675,1.6814 29.89258,0.14062 5.74329,-0.67314 10.58639,-0.57892 16.45312,-0.41601 9.80997,0.2724 24.35451,-1.03652 37.60547,-1.1836 11.45758,-0.12718 22.53294,-0.13078 28.53906,-0.50781 13.5311,-0.8494 24.03455,-0.40997 33.09766,-0.32227 6.88307,0.0665 17.59234,-0.20321 17.7832,-5.73828 0.17691,-5.13056 -0.68945,-13.57617 -0.68945,-13.57617 l 0.18945,-23 0.33985,-38.56836 -1.75977,-73.41015 -0.82226,-28.85743 -0.67188,-23.51953 c 0,0 -0.20231,-13.08496 -0.0254,-19.63086 -0.35383,-9.37655 -1.48047,-32.91211 -1.48047,-32.91211 l -0.32812,-18.2207 -0.48243,-26.894532 -0.71289,-19.277344 c 0,0 2.1894,-13.782623 0.0664,-16.613281 -2.12299,-1.061497 -4.02214,-1.398311 -6.28906,-1.423828 z m -179.71289,8.693359 c 5.01779,-0.20718 10.07661,-0.02986 20.19531,0.326172 l 2.53125,-0.0039 c 7.30523,-0.02315 14.62036,-0.137217 21.91211,0.357422 8.46272,0.750712 16.80264,0.856112 25.29102,0.789062 8.82708,-0.0767 17.65935,-0.360483 26.45703,0.478516 6.5891,0.644666 6.5891,0.644666 21.21484,0.5 1.33984,-0.01364 2.67968,-0.02666 4.01953,-0.03906 l 3.87891,-0.02344 c 3.42827,-0.03461 6.5767,0.03919 9.96484,0.574219 2.76099,0.488525 2.76172,0.488281 5.66406,0.367187 10.79929,-1.125794 21.65112,-2.258668 32.09766,1.121094 1.31617,4.758446 2.23577,9.182887 2.48242,14.111328 0.0526,1.364771 0.1098,2.729376 0.17188,4.09375 l 0.0996,2.087891 c 0.11201,2.424823 0.25691,4.835691 0.4707,7.253906 0.77368,8.673279 1.00071,17.326539 1.16797,26.029299 0.0542,2.99814 0.10892,5.99609 0.16797,8.99413 0.15138,7.5184 0.29611,15.03538 0.4375,22.55469 0.12282,6.51551 0.24607,13.03152 0.37695,19.54688 0.062,3.06183 0.12283,6.12358 0.17774,9.18554 0.0345,1.92833 0.0707,3.8569 0.10937,5.78516 l 0.0547,2.6875 c 0.0468,2.89851 0.13698,5.77326 0.28125,8.66992 1.08416,2.81046 1.08586,2.81062 1.11523,5.12695 l -0.0176,2.49024 -0.01,2.83594 -0.0254,3.0664 c -0.016,4.43104 -0.0359,8.86198 -0.0625,13.29297 -0.0673,11.03397 -0.36301,22.07946 0.53125,33.08594 0.4187,4.82424 0.45176,9.45619 0.15039,14.28711 -0.49935,7.2343 -0.79421,14.32314 -0.24414,21.56445 0.64543,8.14036 0.6805,16.27846 0.6875,24.43945 V 321.5 c 0.0234,7.25363 0.21664,14.52573 -0.66015,21.73828 -0.46485,3.76172 -0.46485,3.76172 -0.34375,6.27344 0.81959,5.63596 0.97161,11.23066 1.00195,16.91602 l 0.002,3.00976 0.0137,2.94727 -0.006,2.79882 c -0.004,3.07149 0.11753,5.98057 -1.13281,8.81641 -2.49241,1.20134 -4.734,1.9574 -7.4668,2.40234 l -2.6289,0.21094 -3.02539,0.2461 -3.27344,0.23046 c -13.78197,1.01155 -27.5507,1.28971 -41.36524,1.4336 -3.93487,0.0394 -7.86989,0.0838 -11.80468,0.13086 -2.58659,0.0335 -5.17318,0.0667 -7.75977,0.0996 -6.54359,0.0602 -13.07344,0.15622 -19.60937,0.48047 -15.0278,0.74925 -30.02569,0.91444 -45.07032,0.90234 -3.63626,-0.004 -7.2739,-0.004 -10.91016,-0.002 -6.12969,0.002 -12.25899,0.003 -18.38867,-0.002 -7.07531,-0.006 -14.14929,-0.007 -21.22461,-0.002 -6.17541,0.004 -12.35192,0.006 -18.52734,0.004 -3.67407,-10e-4 -7.34742,-0.003 -11.02149,0 -3.47374,0.003 -6.94812,0.005 -10.42187,0 l -3.88477,-0.006 c -7.08895,0.0122 -14.11106,-0.11659 -21.18359,-0.63282 -3.67092,-0.29702 -7.300888,-0.56459 -10.984368,-0.55859 -7.37833,0.12259 -14.92646,3.81919 -24.57813,1.76367 -6.36898,-2.123 -3.83357,-10.31571 -3.82227,-12.12304 l 0.0137,-2.32813 c 0.056,-4.61832 0.004,-9.20692 -0.28516,-13.81836 -1.00508,-25.05136 -1.00451,-25.05274 -0.91211,-50.13086 0.004,-4.72194 0.004,-9.44407 0.002,-14.16601 -0.002,-7.95833 -0.003,-15.91667 0.002,-23.875 0.006,-9.18477 0.007,-18.36797 0.002,-27.55274 -0.004,-7.99345 -0.006,-15.98702 -0.004,-23.98047 0.001,-4.76979 0.003,-9.54075 0,-14.31054 -0.0134,-18.74272 -0.0488,-37.46385 0.79883,-56.19141 0.29185,-6.38181 0.34928,-12.65009 0.0176,-19.0332 -0.70411,-11.91853 -0.70059,-23.76177 -0.37695,-35.689451 l 0.0703,-2.501953 c 0.0634,-2.403218 0.12767,-4.806051 0.20117,-7.208984 l 0.0723,-2.228516 c 0.14102,-4.902236 -0.3452,-10.251764 2.66601,-14.351562 3.79839,-1.690199 3.79765,-1.689954 8.08789,-1.626954 6.82998,-0.05392 13.53666,-0.283068 20.25782,-1.564453 15.576958,-3.005351 30.262528,-3.177245 46.070308,-2.599609 l 2.85937,0.109375 c 1.80979,0.06826 3.62002,0.137534 5.42969,0.208984 4.01085,0.191585 7.83316,0.448828 11.80664,-0.203125 9.95249,-1.184748 14.92947,-1.775242 19.94727,-1.982422 z"
     style="fill:#c71d31;fill-opacity:1" />
</svg>
