<?xml version="1.0" encoding="UTF-8" standalone="no"?>
<svg
   version="1.1"
   width="1269"
   height="457"
   id="svg16"
   sodipodi:docname="koomiteh-logo-dark.svg"
   inkscape:version="1.4.3 (0d15f75042, 2025-12-25)"
   xmlns:inkscape="http://www.inkscape.org/namespaces/inkscape"
   xmlns:sodipodi="http://sodipodi.sourceforge.net/DTD/sodipodi-0.dtd"
   xmlns="http://www.w3.org/2000/svg"
   xmlns:svg="http://www.w3.org/2000/svg">
  <sodipodi:namedview
     id="namedview1"
     pagecolor="#ffffff"
     bordercolor="#000000"
     borderopacity="0.25"
     inkscape:showpageshadow="2"
     inkscape:pageopacity="0.0"
     inkscape:pagecheckerboard="0"
     inkscape:deskcolor="#d1d1d1"
     inkscape:zoom="0.51263849"
     inkscape:cx="489.62379"
     inkscape:cy="91.682543"
     inkscape:window-width="1920"
     inkscape:window-height="1033"
     inkscape:window-x="5120"
     inkscape:window-y="22"
     inkscape:window-maximized="1"
     inkscape:current-layer="svg16"
     showguides="true">
    <sodipodi:guide
       position="16.630415,419.73135"
       orientation="1,0"
       id="guide1"
       inkscape:locked="false" />
    <sodipodi:guide
       position="204.98558,426.21439"
       orientation="0,-1"
       id="guide2"
       inkscape:locked="false" />
    <sodipodi:guide
       position="1368.2783,9.1353589"
       orientation="0,-1"
       id="guide3"
       inkscape:locked="false" />
    <sodipodi:guide
       position="1253.4904,357.19822"
       orientation="1,0"
       id="guide4"
       inkscape:locked="false" />
  </sodipodi:namedview>
  <defs
     id="defs16" />
  <g
     inkscape:groupmode="layer"
     id="layer2"
     inkscape:label="Layer 2"
     style="display:inline">
    <g
       id="g4"
       transform="matrix(3.2363579,0,0,3.2363579,-949.12328,-64.756133)">
      <path
         id="rect340"
         style="display:inline;fill:#c71d31;fill-opacity:1;stroke-width:5.70614;stroke-opacity:0.768627"
         d="m 504.6226,26.8734 c -5.0931,-0.009 -10.1819,0.0243 -15.2734,0.15625 -5.5365,0.14438 -11.0688,0.22344 -16.6075,0.21875 h -1.123 c -2.6295,-0.003 -5.2592,-0.01 -7.8887,-0.0176 -2.6872,-0.008 -5.3733,-0.0154 -8.0605,-0.0195 -1.0792,-0.002 -2.1592,-0.004 -3.2383,-0.008 -3.4174,-0.0132 -6.8142,-0.008 -10.2227,0.25782 l -0.9277,0.082 c -0.7745,0.0638 -1.5491,0.12748 -2.3223,0.20507 l -0.668,0.0703 c -2.0299,0.18228 -3.8687,0.44959 -5.4863,1.80468 l -0.4355,0.53516 c -1.4477,1.70152 -1.4472,1.70167 -1.9082,7.07422 l -0.059,0.69726 c -0.3793,4.38526 -0.5691,8.76582 -0.668,13.16602 l -0.023,0.97852 c -0.023,0.94925 -0.042,1.89831 -0.059,2.84765 l -0.015,0.87891 -0.015,0.83398 -0.011,0.77149 c -0.011,0.69016 0.011,1.25823 0.1757,1.92968 0.2215,1.29896 0.2219,1.29834 0.2442,2.6211 l 0.015,0.82226 c 0.023,0.93701 0.041,1.87347 0.059,2.81055 l 0.019,1.02148 c 0.098,4.9287 0.1455,9.85559 0.1444,14.78516 v 0.80078 c 0,2.64284 0,5.28492 -0.015,7.92774 l -0.011,3.03906 c 0,0.70646 0,1.41268 -0.01,2.11914 v 0.66992 1.25586 c 0,1.07338 0.026,2.06731 0.1875,3.12891 0.2966,1.6125 0.2192,3.24744 0.086,4.87695 -0.2419,2.64585 -0.288,5.27558 -0.285,7.92969 6e-4,0.50528 3e-4,1.01034 0,1.51562 -6e-4,1.06915 0,2.13789 0,3.20704 0,1.37133 0,2.7439 0,4.11523 0,1.07894 0,2.15738 0,3.23633 3e-4,0.51934 -3e-4,1.03926 0,1.55859 0,2.79025 0.015,5.56482 0.2071,8.34961 0.113,1.51956 0.1602,2.96807 0.019,4.48438 -0.2525,2.49941 -0.1221,4.66591 0.4688,7.11914 l 0.2929,1.05078 c 0.405,1.54767 0.894,2.70553 1.9179,3.94726 2.4968,2.4889 5.159,2.73 8.586,2.74219 l 0.9551,-0.006 c 1.098,9.7e-4 2.1968,0.001 3.2949,-0.002 0.803,-0.002 1.6051,-0.004 2.4082,-0.006 1.9647,-3.2e-4 3.9298,-0.002 5.8945,-0.008 2.573,-0.008 5.1458,-0.009 7.7188,-0.0117 4.1936,-0.002 8.3865,-0.009 12.5801,-0.0155 h 0.7617 l 0.7617,-0.002 1.5273,-0.002 h 0.7637 c 2.7851,-0.004 5.5704,-0.0113 8.3555,-0.0155 h 0.7539 c 4.193,-0.006 8.3851,-0.009 12.5781,-0.0136 2.3505,-0.002 4.7022,-0.004 7.0527,-0.01 2.4302,-0.004 4.8609,-0.009 7.2911,-0.0117 0.4218,-6.2e-4 0.8418,-0.002 1.2636,-0.002 4.1426,-0.004 8.2843,-0.0102 12.4258,0.0918 l 0.9746,0.0272 c 1.4707,0.0394 2.942,0.0791 4.4121,0.13477 3.1608,0.12273 6.079,0.22043 9.0489,-1.03125 l 1.0058,-0.55468 c 1.0205,-0.54714 1.0204,-0.54662 1.9277,-1.16016 1.5515,-1.62048 2.2812,-3.41153 2.3965,-5.63477 l 0.023,-0.70312 c 0.1433,-3.46048 0.144,-3.46061 0.1055,-11.3125 -0.01,-1.59645 -0.019,-3.1926 -0.023,-4.78906 v -1.14649 c -0.011,-1.70811 -0.03,-3.40874 0.094,-5.11328 0.1917,-2.19227 0.2642,-4.344 0.2287,-6.54492 -0.015,-0.63889 -0.027,-1.27708 -0.038,-1.91602 -0.019,-1.16547 -0.04,-2.33067 -0.062,-3.49609 -0.034,-1.85732 -0.068,-3.71489 -0.1,-5.57227 l -0.023,-1.38281 c -0.046,-2.61691 -0.085,-5.23418 -0.082,-7.85156 v -0.75781 c 0,-1.20678 0,-2.4124 0.015,-3.61914 0,-0.44374 0.01,-0.8883 0.01,-1.33203 v -0.6211 c 0.01,-1.02332 0,-1.95869 -0.1837,-2.96484 -0.1886,-0.74106 -0.189,-0.74104 -0.1584,-1.63282 l 0.051,-1.00195 0.051,-1.09375 0.1153,-2.28125 0.051,-1.08984 c 0.03,-0.59823 0.05,-1.19787 0.049,-1.79688 -0.6028,-3.04347 -0.6016,-3.04343 -0.2423,-6.25586 0.3224,-3.02106 0.3338,-6.03389 0.1701,-9.0664 -0.1867,-3.43834 -0.2661,-6.86763 -0.254,-10.31055 v -0.6875 c 0.01,-2.11014 0.019,-4.21998 0.034,-6.33008 l 0.023,-3.56836 c 0,-0.45188 0,-0.90359 0,-1.35547 0.019,-2.04245 0.15,-4.08651 -0.3693,-6.07812 l -0.3106,-1.04297 c 0.026,-1.59491 0.086,-2.50749 -0.9434,-3.77734 -2.2598,-1.87394 -4.7309,-2.2827 -7.5938,-2.24414 -0.8259,0.0246 -1.6521,0.0395 -2.4785,0.041 -1.5982,-0.2109 -3.1577,-0.35978 -4.7695,-0.39844 l -0.8477,-0.0156 c -0.975,-0.0212 -1.9507,-0.0427 -2.9258,-0.0605 l -1.0586,-0.0176 c -6.5554,-0.12057 -13.1095,-0.17038 -19.666,-0.17578 -0.7117,-5e-4 -1.4229,-7.4e-4 -2.1347,-0.002 z m -66.5025,7.3934 v 0 l 31.393,-0.44418 71.0118,0.59765 c 0.8617,0.008 1.5564,0.70856 1.5586,1.57032 l 0.1134,41.84766 0.053,19.13867 0.047,17.24609 0.041,15.75 0.2717,15.07029 c 0.1523,1.68557 -0.048,3.35411 -1.5823,3.83008 l -6.4023,-0.0684 c -4.3314,-0.31503 -7.526,-0.32058 -7.526,-0.32058 -6.7727,0.63002 -18.3337,-0.32791 -24.3976,0.0658 -4.4102,0.0788 -13.2285,-0.14453 -13.2285,-0.14453 -4.5696,-0.0652 -9.5367,0.41598 -12.6798,-0.13867 -1.0405,0.15413 -3.9434,0.11493 -7.6913,0.0136 -3.9515,-0.10707 -9.7974,-0.72954 -14.9891,-0.3789 -3.4912,0.23577 -5.7924,-0.37482 -8.5762,-0.37697 -4.3271,-0.004 -8.3398,0.32421 -8.3398,0.32421 -0.8771,-0.009 -1.5765,-0.73451 -1.5547,-1.61133 0.055,-5.45727 -0.9355,-9.90932 -0.657,-12.97208 0.3315,-5.04147 0.1505,-6.90234 0.1505,-6.90234 l 0.6425,-33.63476 0.03,-9.97547 0.4765,-13.65235 0.061,-8.07226 0.06,-7.96485 0.1288,-17.26367 c 0.023,-0.85766 0.7388,-1.67884 1.584,-1.5332 z m 3.4981,2.70898 c -0.7104,-0.0568 -0.4965,0.11538 -1.9786,0.44922 -0.6682,0.89098 0.019,5.22852 0.019,5.22852 l -0.2245,6.06835 -0.1523,8.46485 -0.1016,5.73633 c 0,0 -0.3553,7.40799 -0.4669,10.35937 0.056,2.06041 -0.01,6.17774 -0.01,6.17774 l -0.2109,7.40429 0.09,8.15126 -0.5528,23.10742 0.1055,12.14063 0.6422,8.16906 c 0,0 -0.2725,2.65853 -0.2169,4.27344 0.06,1.74223 4.3619,2.06027 6.5284,2.03933 2.8527,-0.0276 6.1589,-0.16584 10.418,0.10156 1.8905,0.11871 6.8885,0.12011 10.4949,0.16014 4.1709,0.0463 8.7481,0.45878 11.8359,0.37303 1.8467,-0.0512 3.3719,-0.083 5.1797,0.12892 4.1378,0.48499 6.1783,0.28079 9.4082,-0.043 3.2493,-0.32568 6.4864,-0.0805 9.961,-0.0566 6.4557,0.0442 11.4903,0.0208 16.6716,0.077 6.9772,-0.0155 6.7026,0.0573 14.4942,0.5586 2.6027,-0.81772 1.7953,0.0732 4.9467,-0.65318 0.9157,-1.56883 0.5613,-3.07975 0.5627,-4.86438 0,-2.30427 0.1425,-5.92684 0.1327,-9.37305 -0.015,-5.23529 -0.034,-11.51997 -0.057,-18.03515 -0.03,-8.32961 -0.068,-17.03671 -0.1115,-24.41407 -0.057,-9.72558 -0.059,-17.71016 -0.1795,-18.5039 -0.2362,-3.46512 0.501,-6.38017 0.03,-8.42774 -0.1576,-4.09513 0.6647,-9.29325 0.586,-12.44335 0,-3.85888 0.1874,-9.72852 0.1874,-9.72852 -0.2362,-2.04764 -1.5586,-2.45313 -1.5586,-2.45313 -2.7075,-0.71243 -5.4933,0.18649 -7.7285,0.12696 -6.0835,-0.16203 -10.9161,-0.74424 -16.2109,-0.5625 -6.2733,0.21532 -16.7791,0.51682 -21.5201,0.50472 -33.522,-0.0855 -25.4387,-0.66434 -45.6171,-0.0644 -3.0543,0.0908 -4.4122,-0.0988 -5.3989,-0.1777 z m 55.4731,7.25309 c 1.3061,-0.0299 2.5189,0.17185 3.6973,0.94141 v 0 c 0.9527,1.47526 1.0754,2.91732 0.7734,4.63476 -0.3016,1.89613 -0.3179,3.8159 -0.3809,5.73243 -0.01,0.22344 -0.015,0.44555 -0.023,0.67577 -0.1259,4.0185 0.054,7.94106 0.5527,11.9336 0.063,0.57636 0.064,0.57606 0.1289,1.16406 0.2517,1.96689 0.7456,3.79329 1.3281,5.68164 1.2042,3.97422 1.2027,3.97426 0.7461,5.42969 -0.9719,1.64262 -2.2333,3.32663 -4.0801,4.00586 l -0.6211,0.10549 c -0.2041,0.0426 -0.4089,0.0869 -0.6192,0.13085 -0.9207,-0.20746 -1.3391,-0.75392 -1.8964,-1.48633 -0.5389,-0.87933 -0.6868,-1.70193 -0.8477,-2.7168 -0.053,-0.33109 -0.054,-0.33018 -0.1073,-0.66797 -1.1194,-7.56835 -1.6785,-15.33372 -1.586,-22.97851 -0.1957,0.24548 -0.3902,0.49122 -0.5918,0.74414 -0.4113,0.51229 -0.8282,1.0207 -1.2558,1.51953 -0.5823,0.77061 -1.0656,1.52897 -1.5547,2.35937 -1.1628,1.97221 -2.4338,3.86615 -3.875,5.64649 -0.5069,0.642 -0.9168,1.2705 -1.3379,1.96875 -1.8949,3.0918 -1.8963,3.09172 -3.3457,3.8164 -1.2953,0.12454 -2.0364,0.0841 -3.2051,-0.51172 -0.9689,-0.81821 -1.4834,-1.55487 -2.1445,-2.63672 -0.3451,-0.49348 -0.6934,-0.98429 -1.043,-1.4746 -0.7897,-1.12138 -1.5363,-2.25993 -2.2617,-3.42383 -0.8626,-1.37236 -1.798,-2.64753 -2.8106,-3.91211 -0.4399,-0.56361 -0.837,-1.13301 -1.2226,-1.73437 -0.4553,-0.81338 -0.4567,-0.81327 -1.1621,-1.10157 0.054,0.30754 0.11,0.61477 0.1659,0.93164 0.1916,1.34538 0.1263,2.63496 0.03,3.98633 -0.015,0.2321 -0.026,0.464 -0.041,0.70312 -0.057,0.88148 -0.1141,1.74707 -0.3027,2.61133 -0.2404,1.29262 -0.3262,2.59062 -0.4297,3.9004 -0.05,0.59737 -0.099,1.19368 -0.1504,1.79101 -0.079,0.93492 -0.1573,1.86929 -0.2306,2.80469 -0.071,0.90741 -0.1496,1.81586 -0.2286,2.72265 -0.019,0.27489 -0.04,0.54883 -0.061,0.83203 -0.178,1.96528 -0.6201,3.78919 -1.5859,5.52735 -1.1819,0.78786 -1.747,0.77143 -3.1485,0.6289 -1.7407,-0.90516 -3.1004,-2.0734 -3.7324,-3.94921 -0.3852,-1.69818 -0.4388,-2.834 0.2948,-4.45703 2.3309,-5.76327 2.2658,-13.00581 2.2969,-19.13477 0,-0.22092 0,-0.44231 0.01,-0.66992 0.019,-2.3434 -0.045,-4.49849 -0.8692,-6.72071 -0.3258,-1.03415 -0.1927,-1.81836 0.1134,-2.83984 0.7899,-1.04375 1.5763,-1.54568 2.834,-1.88867 2.1001,-0.1355 3.8695,0.0621 5.666,1.25976 0.2936,0.59756 0.5846,1.19499 0.8691,1.79688 0.8674,1.60851 2.1157,2.98213 3.2813,4.38086 0.5705,0.74755 0.5702,0.74669 1.1211,1.75 0.8824,1.59245 2.0759,2.94477 3.2266,4.34766 0.6452,0.81479 1.2901,1.63099 1.9335,2.44726 0.5837,0.69891 1.1684,1.34781 1.8438,1.95898 h 0.6289 c 0.3659,-0.47722 0.3666,-0.4761 0.709,-1.10547 0.1379,-0.23633 0.2759,-0.47331 0.4179,-0.71679 0.1474,-0.25546 0.2952,-0.51025 0.4473,-0.77344 1.29,-2.17898 2.6509,-4.07916 4.3183,-5.98633 0.9189,-1.10325 1.6532,-2.2808 2.4005,-3.5039 0.6771,-1.06362 1.4428,-2.03635 2.2304,-3.01953 0.4344,-0.55676 0.8229,-1.11742 1.2012,-1.7129 0.6039,-0.88435 1.1231,-1.31187 2.1445,-1.65234 0.4584,-0.0488 0.9045,-0.0857 1.3399,-0.0957 z m 16.041,1.10156 c 0.8103,-0.0208 1.6288,0.0544 2.4317,0.15428 1.2196,0.83697 1.8452,1.71457 2.2031,3.14649 0.1852,1.53382 0.1614,2.53875 -0.5898,3.91601 -1.1765,1.41872 -1.1757,1.41789 -2.0391,1.54102 -2.036,0.028 -3.3082,-0.0847 -4.9258,-1.36524 -0.98,-1.39099 -1.1809,-2.73984 -0.9433,-4.40625 0.2763,-1.02364 0.573,-1.94806 1.4824,-2.57031 0.7697,-0.27931 1.5706,-0.39541 2.3808,-0.41602 z m -0.084,10.97266 c 0.1002,-0.005 0.2007,-0.004 0.3009,0 0.8,0.0333 1.6044,0.34363 2.5293,0.82812 0.8031,0.77801 1.067,1.43283 1.2597,2.51758 -0.03,0.73533 -0.079,1.4697 -0.1387,2.20313 -0.1806,2.55096 -0.2124,5.09548 -0.2147,7.65234 0,0.36741 0,0.73474 0,1.11328 0,2.05929 0.094,4.0863 0.2831,6.13672 0.094,1.05567 0.1394,2.09642 0.1542,3.15625 0.01,0.35301 0.015,0.70662 0.026,1.07032 -0.1187,1.16626 -0.4349,1.9095 -1.0468,2.90429 -1.4105,0.80597 -2.5655,0.63583 -4.0762,0.24416 -1.1166,-0.42031 -1.6963,-1.08785 -2.2188,-2.13282 0,-0.64356 0.011,-1.28665 0.038,-1.92968 0.015,-0.39961 0.03,-0.79922 0.047,-1.21094 0.01,-0.21275 0.019,-0.42532 0.026,-0.64453 0.045,-1.11329 0.083,-2.22823 0.1209,-3.3418 0.01,-0.22401 0.015,-0.44694 0.023,-0.67773 0.065,-2.00161 0.096,-4.00314 0.098,-6.00586 3e-4,-0.30433 0,-0.60832 0,-0.92188 -0.011,-2.28254 -0.1527,-4.53964 -0.3789,-6.81054 0.03,-1.38815 0.3099,-2.10536 0.9687,-3.32227 0.795,-0.54056 1.5023,-0.79531 2.2031,-0.82813 z m 8.0372,33.78906 c 4.6875,0.0295 4.6866,0.031 6.0273,1.17188 0.6005,0.71652 0.6856,1.12148 0.7266,2.06445 -0.3886,1.84572 -1.1326,3.71236 -2.5176,5.03516 -2.7133,1.35888 -6.0684,0.57001 -8.9746,0.24805 -2.7749,-0.29004 -5.55,-0.37913 -8.3379,-0.45508 -1.6188,-0.0457 -3.2209,-0.10658 -4.832,-0.27148 -2.8482,-0.25403 -5.7115,-0.19703 -8.5684,-0.1914 -1.0041,0.002 -2.0097,-3e-5 -3.0137,-0.002 -3.3266,-0.001 -6.6468,0.0458 -9.9707,0.18361 -0.4562,0.0181 -0.4545,0.0181 -0.9199,0.037 -0.2816,0.0128 -0.5633,0.0257 -0.8535,0.0391 -0.2465,0.0113 -0.4944,0.0219 -0.7481,0.0333 -0.6745,0.0633 -1.2878,0.19653 -1.9394,0.3789 0.049,0.17892 0.098,0.35864 0.1485,0.54297 0.4082,1.61948 0.511,2.83211 0.1659,4.49414 -0.4319,2.28486 -0.4455,4.58683 -0.5117,6.9043 -0.011,0.36147 -0.011,0.3617 -0.023,0.73047 -0.082,2.83911 -0.1209,5.65862 0.041,8.49609 0.1709,3.05846 0.2438,6.11492 0.2676,9.17773 0,0.53983 0.011,1.07939 0.023,1.61915 0.015,0.76212 0.019,1.52292 0.023,2.28515 0.01,0.22726 0.011,0.4553 0.015,0.68945 -0.01,1.94545 -0.6407,3.17565 -1.8789,4.6504 -0.7803,0.65471 -1.3597,1.00323 -2.3633,1.1914 -1.6067,-0.30127 -2.5248,-1.06674 -3.5625,-2.30078 -1.2516,-2.41056 -0.7916,-5.08831 -0.5996,-7.70898 0.7147,-9.96921 0.3186,-19.86088 -0.246,-29.82618 -1.0164,-0.009 -2.0324,-0.0147 -3.0488,-0.0197 -0.2873,-0.002 -0.5734,-0.005 -0.8692,-0.008 -0.4184,-0.002 -0.4188,-0.002 -0.8457,-0.004 -0.2555,-0.002 -0.5102,-0.002 -0.7734,-0.004 -0.8042,0.038 -1.5455,0.18316 -2.3321,0.34961 -1.4156,0.0769 -2.8304,0.0721 -4.248,0.0781 -0.5776,0.01 -0.5787,0.01 -1.168,0.0197 -0.5569,0.002 -0.5568,0.003 -1.125,0.006 -0.3378,0.003 -0.6754,0.006 -1.0234,0.01 -1.0716,-0.12873 -1.6469,-0.41492 -2.5078,-1.05664 -0.9826,-1.47388 -0.8501,-2.99853 -0.6289,-4.72265 0.6844,-1.51563 1.9808,-2.2037 3.4629,-2.83204 0.9574,-0.0972 0.9572,-0.0974 1.9707,-0.0703 0.5632,0.009 0.562,0.0102 1.1367,0.0197 0.3958,0.0106 0.7933,0.0208 1.2011,0.0314 3.027,0.0455 5.9705,0.005 8.9708,-0.41407 0.9173,-0.12427 1.7154,-0.21683 2.6308,-0.0488 1.5081,0.23252 2.9938,0.21891 4.5176,0.22069 0.3413,10e-4 0.6836,0.002 1.0352,0.004 1.1279,0.003 2.2548,0.003 3.3828,0.002 0.5861,3.1e-4 0.5855,-3.2e-4 1.1836,0 5.7437,-3.2e-4 11.4727,-0.13119 17.2109,-0.37304 6.245,-0.26162 12.4788,-0.38588 18.7285,-0.39453 0.3955,-0.002 0.7918,-0.004 1.1992,-0.006 1.1211,-0.004 2.2422,-0.003 3.3633,0 0.3296,-10e-4 0.6584,-0.003 0.9981,-0.004 z m -5.6348,13.83789 c 2.9745,-0.0125 2.9738,-0.011 4.2051,1.04492 0.7773,0.93288 0.9422,1.4139 0.9648,2.63477 -0.4161,1.41957 -1.0816,2.39974 -2.2227,3.34571 -1.1443,0.45772 -2.3696,0.33565 -3.582,0.31445 -2.1996,-0.017 -4.392,0.0268 -6.5898,0.1172 -0.2775,0.01 -0.554,0.0193 -0.8399,0.0295 -1.4711,0.0656 -2.8763,0.21879 -4.3242,0.49023 -2.2467,0.39652 -4.4622,0.40041 -6.7383,0.38672 -0.407,0.002 -0.8131,0.005 -1.2324,0.008 -5.8558,-0.0117 -5.8552,-0.0132 -7.3828,-1.46484 -0.2336,-0.40899 -0.234,-0.40891 -0.4726,-0.82617 -0.1301,-0.20126 -0.2608,-0.40203 -0.3946,-0.60938 -0.3307,-0.90927 -0.356,-1.57714 -0.2362,-2.53711 0.4721,-0.72788 0.4728,-0.7286 1.2597,-1.25976 2.3115,-0.43305 4.6226,-0.31189 6.9649,-0.27538 3.8148,0.0405 7.4805,-0.26082 11.248,-0.875 2.7722,-0.44305 5.5639,-0.4682 8.3653,-0.50195 0.3326,-0.007 0.6652,-0.0147 1.0078,-0.0215 z m -3.6446,11.53321 c 2.2529,-0.0533 4.5567,0.32485 6.2755,1.4707 v 0.002 c 0.8767,0.87672 1.0043,1.40641 1.0429,2.61524 -0.015,1.03091 -0.084,1.45088 -0.5898,2.38086 -2.2636,1.9734 -4.6096,1.7093 -7.4746,1.63281 -3.0854,-0.12378 -3.0856,-0.12367 -6.127,0.28906 -2.1743,0.5087 -4.3986,0.41398 -6.6191,0.40234 -0.7722,-0.004 -1.5444,2.9e-4 -2.3164,0.004 -0.496,-3.1e-4 -0.9924,-7.4e-4 -1.4883,-0.002 -0.2283,10e-4 -0.4563,0.003 -0.6914,0.004 -1.3661,-0.0125 -2.4938,-0.17114 -3.75,-0.7168 -0.9295,-1.02739 -1.3386,-1.83897 -1.3965,-3.20703 0.1376,-1.20003 0.1372,-1.20083 0.5039,-1.72461 1.732,-1.2603 4.5612,-1.07899 6.6172,-1.00977 4.0359,0.0729 8.2359,-0.71093 12.1523,-1.65038 1.1764,-0.27073 2.5096,-0.45828 3.8613,-0.49024 z m 6.043,13.38867 v 0.002 c 0.4094,-6.3e-4 0.4086,-10e-4 0.8262,-0.002 6.9555,0.0393 6.9553,0.0394 9.1641,2.24805 0.1878,2.25516 -0.3319,3.61417 -1.6524,5.44921 -1.0753,1.05086 -1.5877,1.06513 -3.0683,1.16016 -0.7783,-0.12151 -1.5522,-0.27326 -2.3204,-0.44727 -3.2828,-0.65959 -6.5486,-0.61599 -9.8847,-0.58398 -1.042,0.009 -2.085,0.0117 -3.127,0.0136 -0.6703,0.002 -1.3414,0.006 -2.0117,0.01 -0.3077,10e-4 -0.6147,0.003 -0.9316,0.004 -1.7005,0.0178 -3.3342,0.13406 -5.0176,0.37501 -1.0127,0.0852 -2.0253,0.15435 -3.0391,0.22462 -0.732,0.0616 -1.462,0.14698 -2.1894,0.25001 -1.7862,0.22878 -3.5766,0.23618 -5.375,0.25194 -0.5262,0.0136 -0.5257,0.0132 -1.0625,0.0272 -2.5654,0.02 -2.566,0.02 -3.8164,-0.71875 -1.19,-1.39001 -1.2753,-2.6477 -1.3145,-4.41602 0.1444,-0.82882 0.3998,-1.09045 1.0586,-1.59961 0.9518,-0.31729 1.6397,-0.36774 2.6367,-0.39258 0.3364,-0.0106 0.673,-0.0208 1.0196,-0.0314 0.7008,-0.0189 1.4007,-0.0374 2.1015,-0.0547 0.3398,-0.0106 0.6794,-0.0223 1.0293,-0.0333 0.3054,-0.008 0.611,-0.0155 0.9258,-0.0234 0.9319,-0.0808 1.7972,-0.22095 2.7129,-0.40039 1.9304,-0.36419 3.841,-0.49319 5.8008,-0.59179 0.37,-0.02 0.7399,-0.0398 1.121,-0.0605 0.7801,-0.0418 1.5598,-0.0834 2.3399,-0.12306 1.1701,-0.0598 2.3399,-0.12291 3.5098,-0.18751 3.521,-0.18852 7.0378,-0.34473 10.5644,-0.3496 z"
         sodipodi:nodetypes="sccccsscccccccccsccccccccccccccccccsscccccccccccccccccccccccccccccccccccccccccccccccccccccccccccccccccccccccssssccccccccccccccccscccccccccccsscccccccccccccsssssssscccccccccccssscsscccccccccccccscccccccccccccccccccccccccccccccccccccccccccccccccsscccccccsssccccccccccccccscscccscccccccccccscccccccccccccccccccccccccccccccccccccccccccccccccccccccccccccscccccccccccccccsccccccccccccccccccccccccccccccccccccccc" />
      <path
         id="path338"
         style="display:inline;fill:#c71d31;fill-opacity:1;stroke-width:0.314762"
         d="m 621.0093,26.00231 c -1.0575,-0.011 -2.1136,0.0156 -3.1797,0.11523 -1.2263,0.13992 -2.4186,0.19165 -3.6523,0.17774 -2.7551,-0.0433 -5.5025,0.008 -8.2559,0.0996 -3.8163,0.12786 -7.6266,0.22464 -11.4453,0.20703 -3.8164,-0.0189 -7.628,0.0136 -11.4434,0.11328 l -0.7773,0.0215 c -0.7421,0.0185 -1.4846,0.0359 -2.2266,0.0566 l -0.6875,0.0215 c -1.2077,0.034 -2.3728,0.0955 -3.5703,0.25782 -0.5739,0.0867 -1.1498,0.16554 -1.7285,0.21093 l -0.5899,0.0215 -0.6659,0.0313 c -2.9124,0.12937 -5.7805,0.12082 -8.1192,2.0957 -1.4107,1.37093 -1.9864,2.48868 -2.125,4.46484 -0.011,0.61034 -0.034,1.22123 -0.078,1.83008 -1.6979,4.09846 -1.6983,4.09814 -1.6504,24.25196 0,1.33498 0,2.67087 0,4.00585 -2e-4,2.2521 0,4.50378 0.01,6.75586 0,2.59712 0.01,5.1939 0.01,7.79102 -2e-4,2.81747 0,5.63565 0,8.45312 0,0.80259 0,1.60367 0,2.40626 2e-4,1.27497 -9e-4,2.55119 0,3.82617 0,0.47488 0,0.94894 0,1.42382 -0.001,2.57536 0.034,5.13905 0.2052,7.70899 0.1111,1.57248 0.1871,3.12888 0.1757,4.70508 -0.05,3.95854 -0.049,3.95766 0.088,12.57617 0.015,0.87551 0.026,1.75144 0.041,2.62695 0.057,4.05115 0.064,8.10686 0.3379,12.1504 0.161,2.36492 0.147,4.7092 0.1036,7.07812 -0.056,2.31853 -0.1471,4.44603 0.7129,6.63086 l 0.2713,0.60937 c 0.7435,1.69218 1.539,3.36697 2.795,4.74024 2.6054,2.1149 5.7535,2.31624 8.9805,2.39453 0.7066,0.0121 1.4145,0.0253 2.121,0.0449 1.4536,0.0424 2.9053,0.0888 4.3594,0.0586 0.9948,-0.28471 1.9058,-0.34972 2.9414,-0.3496 l 0.6699,0.004 c 0.4872,9.4e-4 0.9738,0.002 1.461,0.004 0.7958,0.004 1.5909,0.008 2.3867,0.01 1.9922,0.004 3.9843,0.0113 5.9765,0.0197 1.7137,0.006 3.429,0.0117 5.1426,0.0155 0.8085,10e-4 1.6174,0.004 2.4258,0.008 0.5106,0.002 1.0207,0.004 1.5313,0.006 h 0.7207 c 1.0648,0.008 2.1203,0.0185 3.1797,-0.10156 2.0723,-0.27129 4.1183,-0.28161 6.207,-0.27148 0.4525,0.002 0.9048,0.004 1.3574,0.004 0.9816,0.002 1.9636,0.004 2.9453,0.008 1.5789,0.006 3.1575,0.009 4.7364,0.0117 4.5099,0.008 9.0193,0.0193 13.5292,0.0333 2.5147,0.008 5.0303,0.0136 7.5449,0.0178 1.332,0.001 2.6641,0.002 3.9961,0.008 5.0145,0.0223 10.022,0.12087 15.0118,-0.46094 1.0484,-0.12654 2.055,-0.22341 3.1133,-0.24219 2.8658,0.0639 5.7379,-0.0355 8.2929,-1.47266 l 0.6289,-0.39648 c 1.3183,-0.82804 2.5799,-1.68634 3.7344,-2.73438 2.6194,-2.80136 2.6185,-2.80303 2.5879,-12.58789 l -0.011,-2.49219 c 0,-2.10755 -0.011,-4.21668 -0.019,-6.32422 -0.01,-2.0907 -0.015,-4.18076 -0.019,-6.27148 v -0.87305 c -0.01,-3.69794 0.015,-7.3838 0.1973,-11.07812 0.1,-1.67946 0.1629,-3.29185 -0.01,-4.96875 -0.1444,-1.18693 -0.209,-2.34945 -0.2109,-3.54492 v -0.66602 c 0,-0.86865 0.011,-1.72855 0.039,-2.59766 0.1852,-1.02337 0.3186,-1.98166 0.3515,-3.02343 v -1.24219 c 0,-0.68397 0,-1.36682 -0.01,-2.05078 0,-0.47348 -0.01,-0.9484 -0.01,-1.42188 l -0.011,-3.29297 c 0,-0.41504 0,-0.82909 0,-1.24414 0.2498,-1.97139 0.3277,-3.70083 0,-5.66601 h -0.6289 c 0.2804,-0.84165 0.4644,-1.64796 0.6289,-2.51758 h -0.6289 c 0.2184,-0.72376 0.3201,-1.35896 0.3556,-2.11719 v -1 -1.14648 c 0,-0.6311 0,-1.26148 0,-1.89258 0,-1.14915 0,-2.29813 0,-3.44727 0,-0.72642 0,-1.45326 0,-2.17969 -0.01,-6.23864 -0.03,-12.47704 -0.1406,-18.71484 l -0.019,-0.97851 c -0.05,-3.19647 -0.1213,-6.3807 -0.4043,-9.56641 l -0.078,-0.83984 c -0.086,-0.94339 -0.1799,-1.88072 -0.3417,-2.81446 -0.3201,-1.01865 -0.3916,-1.42602 -1.2988,-1.98633 l -0.5898,-0.21875 c 0,-1.15462 -0.1644,-1.37165 -0.9453,-2.20312 -2.783,-1.97903 -6.324,-2.64162 -9.6817,-2.74024 l -1.121,-0.0137 c -5.7371,-0.12741 -5.7355,-0.12684 -20.9473,-0.0781 -2.3529,0.008 -4.7076,0.0138 -7.0606,0.0176 l -0.9843,0.002 c -4.4578,0.008 -8.9065,-0.0285 -13.3614,-0.19727 -1.0681,-0.0463 -2.128,-0.0927 -3.1855,-0.10351 z m -10.2344,7.0625 v 0.002 c 4.5017,-0.0791 13.5039,0.14453 13.5039,0.14453 4.6644,0.0655 9.7351,-0.41617 12.9434,0.14063 1.062,-0.15474 4.0258,-0.11737 7.8515,-0.0156 4.0336,0.10749 8.4564,0.73286 13.7559,0.38086 3.5636,-0.23672 4.0237,0.37483 6.8652,0.37695 4.417,0.003 8.5137,-0.32422 8.5137,-0.32422 0.8952,0.01 1.6081,0.73696 1.5859,1.61719 -0.057,5.4785 -0.5888,8.7808 -0.873,11.85547 -0.3383,5.06108 -0.1542,6.92773 -0.1542,6.92773 l 0.6054,33.76563 -0.3886,10.94922 0.1424,13.70703 -0.06,8.10351 -0.061,7.99415 -0.7617,16.70116 c -0.023,0.86167 -0.7428,1.5482 -1.6191,1.54102 l -30.1094,0.37304 -72.4864,-0.59961 c -0.8796,-0.007 -1.5896,-0.70912 -1.5918,-1.57422 l -0.1152,-42.01367 -0.053,-19.21094 -0.049,-17.31445 -0.043,-15.81055 0.5898,-12.42187 -0.01,-2.26367 c 0,-0.88031 0.7279,-1.59346 1.623,-1.58399 l 5.8672,-1.1543 c 4.4213,0.31624 8.2227,-0.16992 8.2227,-0.16992 8.4724,-0.63247 20.1109,0.27226 26.3007,-0.12304 z m 14.9414,2.77148 c -1.4602,0.0315 -2.8053,0.16376 -4.4531,0.32618 -3.3166,0.32696 -6.6212,0.0806 -10.168,0.0566 -6.5897,-0.0444 -13.2094,-0.95574 -17.9413,0.21288 -8.2722,0.23271 -12.5317,1.42305 -15.1407,0.91993 -3.9631,0.47049 -5.5138,-0.53975 -6.3554,0.77343 0.015,1.45814 0.4956,2.15764 0.4941,3.94922 0,2.31324 -0.7757,4.06188 -0.7656,7.52149 0.015,5.25566 0.034,11.56298 0.059,18.10351 0.03,8.36202 0.069,17.10371 0.1133,24.50977 0.058,9.76342 0.061,17.77934 0.1837,18.57617 0.2412,3.4786 -0.5122,6.4054 -0.03,8.46094 0.1606,4.11106 -0.6781,9.32983 -0.5977,12.49219 0,3.8739 -0.1916,9.76562 -0.1916,9.76562 0.2411,2.05553 1.5899,2.46289 1.5899,2.46289 2.7637,0.71522 5.6091,-0.18867 7.8906,-0.12892 6.2099,0.16264 11.1422,0.7469 16.5469,0.56446 6.4034,-0.21616 15.8188,0.18319 20.6582,0.19532 34.2177,0.0859 23.4318,-0.62114 45.9375,-0.56641 4.4039,-0.10979 5.7106,0.62255 7.5293,-0.27148 0.682,-0.89445 -0.023,-5.24805 -0.023,-5.24805 l 0.8594,-5.46288 0.1561,-8.49805 0.1036,-5.75781 c 0,0 0.3628,-7.43753 0.4765,-10.4004 -0.057,-2.06841 0.01,-6.20117 0.01,-6.20117 l -0.4141,-7.43164 0.2638,-9.11914 -0.6934,-23.19727 -0.1092,-12.1875 -0.061,-7.26757 c 0,0 0.2775,-2.66983 0.2208,-4.29102 -0.062,-1.74901 -3.5014,-1.83352 -5.7129,-1.8125 -2.9119,0.0276 -4.3986,0.16682 -8.7461,-0.10156 -1.9297,-0.11913 -5.4867,-0.11995 -9.168,-0.16016 -4.2574,-0.0465 -8.9321,-0.46106 -12.084,-0.375 -1.8849,0.0515 -3.4398,0.0818 -5.2851,-0.13086 -2.1111,-0.24335 -3.688,-0.3125 -5.1485,-0.28125 z m 15.1328,23.70117 c 1.3793,-0.0325 2.7969,0.49066 4.0723,1.05469 h 0.011 c 0.3701,0.12658 0.3704,0.12673 0.7481,0.25588 0.8144,0.5951 0.8847,1.30249 1.1406,2.26367 0.059,0.86641 0.088,1.69194 0.078,2.55664 0,0.21505 0,0.43078 0.01,0.65234 0,1.26901 -0.1383,2.43074 -0.4004,3.67188 -0.5296,3.11995 -0.4052,6.29093 -0.3984,9.44531 0,0.69654 -2e-4,1.39331 0,2.08985 0,1.45268 10e-5,2.90474 0,4.35742 0,1.86138 -2e-4,3.72259 0,5.58398 0,1.43519 -1e-4,2.87145 0,4.30664 0,0.68659 -3e-4,1.37201 0,2.0586 0,0.95738 2e-4,1.91566 0,2.87304 0,0.4241 0,0.42476 0,0.85742 0.011,1.39479 0.088,2.44921 0.7149,3.72461 0.611,2.79677 0.7365,5.58607 0.7285,8.43946 0.01,0.54867 0.01,0.54766 0.015,1.10742 0,2.19138 0,4.32945 -1.5039,6.08008 -1.3839,1.18199 -3.5179,0.86427 -5.2207,0.74023 -1.4992,-0.50866 -2.2981,-1.18438 -3.1465,-2.51758 -0.5171,-1.54167 -0.7541,-3.00666 -0.8262,-4.62304 -0.011,-0.2394 -0.023,-0.47992 -0.039,-0.72657 -0.1633,-3.7747 -0.1028,-7.55689 -0.082,-11.33398 0.01,-1.53447 0.015,-3.06904 0.019,-4.60352 0,-0.35077 0.01,-0.7011 0.01,-1.0625 0,-0.48294 2e-4,-0.48191 0,-0.9746 0,-0.28347 0,-0.56733 0,-0.85938 0.011,-0.69807 0.011,-0.69819 -0.3515,-1.3125 -1.468,-0.34038 -2.9621,-0.40325 -4.4629,-0.48242 -0.243,-0.0136 -0.4861,-0.0272 -0.7363,-0.041 -0.5116,-0.0284 -1.0236,-0.0567 -1.5352,-0.084 -0.7764,-0.0415 -1.5518,-0.0853 -2.3281,-0.12892 -0.4996,-0.0272 -0.9984,-0.0549 -1.498,-0.082 -0.3436,-0.0193 -0.3451,-0.0178 -0.6954,-0.037 -2.895,-0.19128 -2.8936,-0.19154 -5.7402,0.22659 -0.6846,0.0394 -1.3711,0.062 -2.0566,0.0761 -0.6074,0.0155 -0.6069,0.0155 -1.2266,0.0314 -0.8443,0.0197 -1.6888,0.0374 -2.5332,0.0547 -2.2022,0.058 -4.2981,0.22077 -6.4629,0.62696 -1.6663,0.27412 -3.349,0.36551 -5.0332,0.46875 0,0.43878 0,0.43908 0.011,0.88672 0.056,5.72388 0.023,11.38175 -0.5508,17.08398 -0.093,0.96 -0.1734,1.91939 -0.2498,2.88086 -0.052,0.62994 -0.1024,1.2607 -0.1542,1.89063 -0.023,0.28698 -0.044,0.57345 -0.066,0.86914 -0.2037,2.34122 -0.6697,3.99681 -2.4512,5.6621 -1.4789,0.23475 -2.1527,0.16755 -3.5019,-0.45312 -2.2762,-2.02873 -3.7546,-4.88754 -4.1621,-7.91406 -0.066,-1.9215 0.291,-3.72858 0.6719,-5.60547 0.806,-4.08091 1.08,-8.23141 1.0117,-12.38477 -0.019,-1.96681 0.113,-3.93195 0.2305,-5.89453 0.081,-1.4906 0.03,-2.78566 -0.2305,-4.25977 -0.026,-0.99712 0,-1.99308 0.019,-2.99023 0.044,-5.36596 -0.3884,-10.74407 -1.7754,-15.94336 -0.3198,-1.38764 -0.3632,-2.61177 0.2385,-3.89258 0.6596,-0.90086 1.2993,-1.37223 2.2441,-1.96289 0.4364,-0.27995 0.4376,-0.27881 0.8828,-0.56445 1.2724,-0.6405 2.2392,-0.94544 3.625,-0.51367 2.8259,1.47942 2.8261,1.47868 3.5781,2.88867 0.629,2.23799 0.7068,4.41679 0.668,6.72656 0,0.32867 0,0.65748 -0.01,0.9961 -0.01,1.03901 -0.019,2.07822 -0.03,3.11718 -0.015,1.37667 -0.03,2.75413 -0.039,4.13086 0,0.31574 -0.011,0.62978 -0.015,0.95508 0,0.29227 0,0.58561 -0.01,0.88672 0,0.25682 -0.01,0.51275 -0.011,0.77734 0.03,0.76114 0.03,0.76223 0.6992,1.61133 0.9608,0.1657 1.8634,0.25278 2.8339,0.31446 0.3875,0.0325 0.7746,0.0643 1.1739,0.0977 2.2648,0.17556 4.3773,0.19589 6.6406,-0.0136 1.6619,-0.13984 3.3257,-0.18723 4.9922,-0.24219 2.3957,-0.0845 4.7873,-0.18005 7.1797,-0.33399 1.3327,-0.0856 2.658,-0.15175 3.9941,-0.13671 1.2884,0.011 2.5687,-0.0325 3.8555,-0.0996 0.3696,-0.0181 0.7403,-0.0359 1.1211,-0.0547 0.9311,-0.0893 0.9314,-0.0896 1.5273,-0.56836 0.7021,-1.04012 0.7146,-2.11365 0.7071,-3.33985 0,-0.30583 0,-0.61066 0,-0.92578 0,-0.49329 0,-0.49282 -0.01,-0.99609 0,-0.34084 0,-0.68205 0,-1.0332 0,-1.4569 -0.015,-2.91422 -0.023,-4.3711 -0.01,-1.06449 -0.011,-2.12885 -0.015,-3.19336 0,-0.48852 0,-0.48794 -0.01,-0.98633 -0.015,-4.92799 -0.015,-4.92942 0.7539,-6.20117 0.1633,-0.13957 0.3262,-0.27806 0.4941,-0.42187 0.1618,-0.14608 0.3221,-0.29284 0.4883,-0.44336 0.7616,-0.53047 1.5768,-0.75007 2.4043,-0.76953 z" />
      <path
         id="path32"
         style="display:inline;fill:#c71d31;fill-opacity:1;stroke-width:0.314762"
         d="m 355.4859,28.89879 c -1.9161,0.13686 -3.8062,0.23684 -5.7266,0.2207 -3.5347,-0.0302 -7.0662,0.0359 -10.5996,0.1211 l -0.8555,0.0195 c -2.3726,0.0576 -4.7466,0.1176 -7.1191,0.17773 -2.0788,0.0529 -4.1575,0.10576 -6.2364,0.15625 l -0.8691,0.0215 c -3.8905,0.0952 -7.7762,0.15724 -11.668,0.13672 -3.0418,-0.0329 -9.7198,-0.84839 -12.2278,1.17191 -1.0023,4.06636 -1.1836,4.99513 -1.0547,8.77201 -0.1179,0.49841 0.4212,2.31211 0.3024,2.81046 -0.764,2.82371 -0.5171,5.27503 -0.4889,8.19679 0.039,3.0917 0.023,6.17475 -0.057,9.26562 -0.015,0.53816 -0.026,1.07513 -0.043,1.61328 -0.019,0.77497 -0.038,1.55127 -0.057,2.32618 l -0.019,0.72656 c -0.019,0.86018 -0.056,1.71441 -0.1,2.57422 -0.3197,2.25511 -0.3804,4.4845 -0.4063,6.75977 -0.01,0.48838 -0.011,0.97646 -0.019,1.46484 -0.019,1.3356 -0.034,2.67022 -0.049,4.00586 -0.01,0.84924 -0.019,1.69959 -0.026,2.54883 -0.1035,8.82346 -0.1598,17.64663 -0.1659,26.4707 -3e-4,0.87685 0,1.75401 0,2.63086 0,1.40295 0,2.80602 0,4.20898 6e-4,0.519 0,1.03764 0,1.55664 -9e-4,0.72013 0,1.44003 0,2.16016 v 0.6582 c 10e-4,1.2319 0.041,2.42767 0.1973,3.64844 0.1708,1.12986 0.1708,1.12969 0.1874,2.10351 l -0.011,0.85547 -0.01,0.94727 -0.023,1.94531 -0.01,0.94336 c -0.01,0.53935 0,1.07823 0.019,1.61719 0.2049,0.78151 0.3198,1.40025 0.3458,2.21875 l -0.011,1.12109 -0.01,1.24414 c -0.05,5.48461 -0.992,12.99041 2.1914,17.76563 4.1269,3.30313 9.3766,3.2446 14.4278,3.17773 0.988,-0.014 1.9748,-0.0246 2.9629,-0.0333 l 0.7226,-0.008 c 1.5273,-0.0121 3.0236,0.0155 4.5449,0.17382 1.3172,0.14192 2.5744,0.15008 3.8965,0.082 3.997,-0.22851 7.998,-0.31816 12,-0.40234 l 1.0079,-0.0215 c 4.6703,-0.0981 9.3366,-0.14703 14.0078,-0.11721 4.1431,0.0265 8.2556,-0.11818 12.3925,-0.33592 4.3979,-0.23214 8.788,-0.33717 13.1915,-0.334 h 0.7949 c 2.6713,0.004 5.3424,0.01 8.0136,0.0314 4.7366,0.0374 9.4768,0.0857 14.209,-0.16014 l 1.2188,-0.0664 c 0.7264,-0.0333 1.4522,-0.0748 2.1777,-0.12306 3.0384,-0.31208 6.9648,-1.30756 9.0059,-3.75391 2.6411,-4.28426 2.5907,-11.01514 2.1308,-15.88477 -0.1995,-1.8798 -0.2815,-3.73501 -0.2849,-5.625 v -1.13281 c 0,-2.78567 0.03,-5.56858 0.097,-8.35351 0.1834,-7.50395 0.2771,-14.98881 0.1172,-22.49415 -0.1179,-5.40401 -0.189,-10.80175 -0.1776,-16.20703 V 81.5763 c 0.01,-3.04197 0.011,-6.08502 0.03,-9.12695 0.01,-1.15508 0.011,-2.30976 0.015,-3.46485 0,-0.54367 0,-1.08719 0.01,-1.63086 0.019,-2.4671 0.1285,-4.92718 -0.3769,-7.35547 -0.2256,-0.88168 -0.3012,-1.30724 -0.1893,-2.23437 0.2317,-1.09016 0.2506,-2.10717 0.2596,-3.21875 v -0.85156 c 0,-2.04165 -0.084,-4.001 -0.3925,-6.01953 -0.2223,-1.42703 -0.3134,-2.69229 -0.1777,-4.13086 0.1402,-1.26893 0.2468,-2.51988 0.2755,-3.79688 -0.057,-3.37169 -1.547,-5.37646 -3.8555,-7.79101 -2.9865,-2.66902 -7.3079,-2.65013 -11.0976,-2.57227 -0.8839,0.0193 -1.7683,0.0337 -2.6523,0.0449 l -0.6583,0.006 c -1.6168,0.0185 -3.2118,-0.017 -4.8261,-0.13086 -12.6688,-0.95585 -25.5268,-1.26976 -38.207,-0.4043 z m 53.5527,6.48438 c 0.8786,-0.008 1.467,0.63237 0.9414,1.64648 -0.2555,1.2994 0.038,4.29855 -0.2498,7.13281 -0.489,4.82058 0.3789,10.13282 0.3789,10.13282 l 0.06,7.96289 0.061,8.07226 0.4746,13.6543 0.3809,10.90625 0.6426,33.63476 c 0,0 -0.183,1.85892 0.1485,6.9004 0.2785,3.06275 0.8017,6.35131 0.8574,11.80859 0.023,0.87682 -0.6776,1.60345 -1.5547,1.61328 0,0 -4.0127,-0.32749 -8.3398,-0.32421 -2.7838,0.002 -5.085,0.6108 -8.5762,0.37501 -5.1917,-0.35063 -9.525,0.27182 -13.4765,0.3789 -3.748,0.1016 -6.6509,0.1406 -7.6914,-0.0136 -3.1431,0.55465 -8.1101,0.0735 -12.6797,0.13867 0,0 -8.8204,0.22329 -13.2305,0.14453 -6.064,-0.39377 -19.1355,0.91515 -25.9082,0.28516 0,0 -3.5436,-0.22915 -7.875,0.086 l -6.4023,0.0703 c -0.8769,0.009 -1.5922,-0.70123 -1.5899,-1.57813 l 0.01,-2.2539 0.039,-14.25587 0.043,-15.74804 0.047,-17.24805 0.053,-19.13672 0.088,-33.10156 0.011,-4.53906 0.011,-4.20899 c 0.1694,-1.55783 0.3353,-2.06337 2.3106,-1.70898 l 7.6152,0.0684 11.498,0.23828 5.2911,-0.41211 45.8574,-0.35351 25.1172,-0.21094 c 2.8957,-0.27844 4.9961,-0.043 4.9961,-0.043 0.2237,-0.0744 0.4417,-0.11136 0.6445,-0.11328 z m -4.1465,2.82422 c -1.189,-0.013 -2.699,0.24607 -5.3945,0.17773 -22.048,0.0545 -12.0971,-0.0212 -45.6191,0.0644 -4.741,0.0121 -13.967,0.40871 -20.2403,0.19337 -5.2948,-0.18172 -10.1274,0.4005 -16.2109,0.5625 -2.2352,0.0595 -5.021,-0.84134 -7.7285,-0.12891 0,0 -1.3223,0.40556 -1.5586,2.45313 0,0 0.1874,5.86964 0.1874,9.72851 -0.079,3.1501 0.7435,8.34823 0.586,12.44336 -0.4725,2.04757 0.2664,4.96262 0.03,8.42774 -0.1202,0.79374 -0.1251,8.77832 -0.1818,18.5039 -0.043,7.37736 -0.081,16.08642 -0.1115,24.41602 -0.023,6.51518 -0.042,12.79791 -0.057,18.0332 -0.01,3.44619 0.1308,7.06878 0.1327,9.37305 0,1.78464 -0.4709,2.48111 -0.4844,3.93359 0.8245,1.30811 2.344,0.30282 6.2266,0.77149 2.556,-0.50118 6.0043,-0.45951 15.3085,-0.56055 5.1813,-0.0563 11.2631,-0.14907 17.7188,-0.19336 3.4746,-0.0238 6.7117,-0.26899 9.961,0.0566 3.2299,0.32376 5.2704,0.52989 9.4081,0.0449 1.8078,-0.21188 3.3331,-0.18214 5.1797,-0.13085 3.0878,0.0858 7.6651,-0.32674 11.836,-0.37304 3.6064,-0.04 7.0939,-0.0415 8.9844,-0.16013 4.259,-0.26737 7.5652,-0.12911 10.4179,-0.10156 2.1666,0.0208 5.5376,-0.0625 5.5977,-1.80469 0.056,-1.6149 -0.217,-4.27344 -0.217,-4.27344 l 0.059,-7.24023 0.1074,-12.14063 -0.5547,-23.10546 -0.2578,-9.08399 -0.2128,-7.40234 c 0,0 -0.062,-4.11929 -0.01,-6.17969 -0.1111,-2.95138 -0.4668,-10.35938 -0.4668,-10.35938 l -0.1036,-5.73437 -0.1523,-8.4668 -0.2245,-6.0664 c 0,0 0.6906,-4.33949 0.023,-5.23047 -0.6676,-0.3338 -1.2659,-0.43906 -1.9785,-0.44727 z m -30.3398,4.58203 c 1.685,0.14047 1.4096,1.10495 2.5176,2.38086 0.9713,1.80387 1.5127,3.31602 0.9433,5.34961 -0.3345,0.76723 -0.3337,0.76795 -0.6289,1.25976 h -0.6309 l -0.2479,0.57227 c -0.4033,0.72827 -0.774,1.08175 -1.4238,1.59179 -0.7509,0.61391 -1.2798,1.13472 -1.8887,1.90821 -1.9449,2.45535 -5.195,3.97464 -7.9863,5.27148 l -0.6445,0.30664 c -1.5795,0.73711 -1.5803,0.73632 -2.2871,0.73632 l -0.3145,0.94532 c -0.6197,0.37009 -0.6193,0.36877 -1.416,0.72656 -1.6066,0.76517 -3.1915,1.58971 -4.5645,2.73437 l -0.3145,0.94532 0.668,0.25587 c 2.3984,0.99064 5.0589,2.18846 7.043,3.875 1.0466,0.78491 2.1536,1.10568 3.3945,1.49609 0.9695,0.40114 1.6147,0.95604 2.4297,1.61133 0.6197,0.29088 1.2502,0.55987 1.8887,0.80664 1.7632,0.68593 1.7627,0.68621 2.584,1.21875 1.5963,0.89651 3.3878,1.33755 5.1308,1.87696 l 0.8731,0.2793 0.7949,0.24609 c 0.7375,0.31521 1.1257,0.6228 1.6328,1.23828 0.3538,0.95776 0.4563,1.82176 0.3145,2.83399 -1.0488,1.5145 -2.7292,2.20312 -4.4063,2.83203 l -1.0625,0.53125 c -1.7094,0.6189 -3.0906,0.75196 -4.8105,0.0918 -1.2921,-0.62892 -2.4227,-1.33655 -3.5703,-2.19726 l -0.9239,-0.43165 c -1.0657,-0.56553 -1.697,-1.22542 -2.5371,-2.08593 -0.3952,-0.28861 -0.7966,-0.57031 -1.2011,-0.84571 l -1.004,-0.72851 v -0.62891 l -0.6894,-0.10155 c -0.9544,-0.22995 -1.5902,-0.57536 -2.418,-1.09766 l -0.8223,-0.51172 -0.791,-0.49218 c -0.7308,-0.42635 -1.4665,-0.84341 -2.2031,-1.25977 v -0.6289 l -0.6953,-0.25002 c -0.8956,-0.38705 -1.573,-0.84003 -2.3535,-1.42188 -2.196,-1.5704 -4.5624,-2.66021 -7.0527,-3.68164 -0.6756,-0.35089 -1.0759,-0.65512 -1.545,-1.25586 -0.4803,-1.53641 -0.5329,-3.0402 0.217,-4.48633 0.9888,-1.38159 2.3682,-1.95916 3.8945,-2.62109 0.9621,-0.4657 1.6861,-1.01932 2.5,-1.70703 1.4502,-0.94428 2.5176,-1.88867 2.5176,-1.88867 0.6014,-0.22156 1.2023,-0.44057 1.8086,-0.64844 1.8419,-0.76746 3.315,-2.25267 4.8008,-3.55273 1.0753,-0.88631 2.2167,-1.68447 3.3515,-2.49219 0.7524,-0.52539 0.7506,-0.52573 1.3692,-1.17578 1.4979,-0.2476 1.9367,-1.36625 2.9512,-2.32032 0.7282,-0.70101 1.3323,-1.3658 1.8691,-2.22265 l 0.5312,-0.80664 h 0.629 l 0.2774,-0.5918 c 0.5609,-1.05942 2.2825,-1.67175 3.5019,-1.78906 z m -37.7637,2.04296 c 1.4558,-0.0688 2.9613,0.28918 4.082,0.9668 1.382,1.95044 1.4226,4.05159 1.3575,6.35352 -0.01,0.54357 -0.01,0.54505 -0.015,1.09961 -0.015,0.8668 -0.03,1.73295 -0.051,2.59961 -0.034,1.53824 -0.057,3.07679 -0.08,4.61523 -0.026,1.86521 -0.059,3.72859 -0.09,5.59375 -0.01,0.36163 -0.011,0.72509 -0.019,1.09766 -0.064,3.7095 -0.1462,7.41646 -0.3107,11.12304 -0.011,0.27822 -0.023,0.55515 -0.039,0.8418 -0.2982,6.24772 -0.2978,6.24881 -2.0137,8.22461 -0.1383,0.17405 -0.2774,0.34802 -0.4199,0.52735 -0.525,0.41681 -0.5233,0.41659 -1.2265,0.4375 -1.955,-0.39159 -3.4036,-0.92521 -4.6485,-2.53907 -1.0429,-1.91988 -0.9917,-3.57346 -0.6289,-5.66601 0.3545,-2.34089 0.4171,-4.67855 0.4902,-7.04297 0.015,-0.39763 0.027,-0.79539 0.043,-1.20508 0.099,-3.0381 0.1512,-6.04981 -0.043,-9.08399 -0.03,-0.46271 -0.057,-0.92399 -0.086,-1.38671 -0.015,-0.23418 -0.03,-0.46968 -0.045,-0.71094 -0.045,-0.71663 -0.086,-1.43345 -0.1251,-2.15039 -0.1429,-2.74023 -0.1429,-2.73876 -0.4121,-5.46875 -0.2721,-2.26808 -0.3825,-4.48796 0.4922,-6.63086 0.9252,-1.03199 2.3313,-1.52691 3.7871,-1.59571 z m 47.3008,45.23829 c 5.0235,-0.0431 5.0237,-0.0422 6.789,1.60547 0.5017,1.00337 0.6319,1.78897 0.67,2.91211 -0.5491,1.64721 -1.301,3.63192 -2.918,4.45507 -0.9489,0.29379 -1.7147,0.34194 -2.707,0.33789 -0.5356,-9.4e-4 -0.5357,-9.9e-4 -1.0821,-0.002 -0.3707,-0.004 -0.7409,-0.008 -1.123,-0.0117 -0.3587,-2e-4 -0.7184,3.2e-4 -1.0879,0 -1.8327,-0.009 -3.6456,-0.072 -5.4727,-0.21679 -2.9323,-0.20073 -5.8587,-0.20304 -8.7968,-0.19922 -0.5823,-2.1e-4 -1.1638,3.1e-4 -1.7461,0 -1.21,-6.3e-4 -2.421,6.1e-4 -3.6309,0.002 -1.5491,0.002 -3.0974,-1e-5 -4.6465,-0.002 -1.1978,-10e-4 -2.3959,-6.7e-4 -3.5937,0 -0.5715,2.1e-4 -1.1433,5.8e-4 -1.7149,0 -0.7959,-6.3e-4 -1.5907,7e-5 -2.3867,0.002 -0.3511,-9.4e-4 -0.3526,-9.9e-4 -0.7109,-0.002 -1.1748,0.005 -2.2505,0.0945 -3.3945,0.35743 -0.7129,0.046 -1.4267,0.0777 -2.1407,0.0996 -0.3122,0.01 -0.3122,0.009 -0.6308,0.0196 -2.1467,0.0661 -4.2943,0.11403 -6.4414,0.16014 -0.9777,0.0212 -1.9543,0.0474 -2.9317,0.0781 -1.1448,0.0359 -2.2884,0.0631 -3.4336,0.082 -0.6358,0.0128 -1.2727,0.0344 -1.9082,0.0566 -2.5363,0.0287 -4.2535,-0.27344 -6.1211,-2.07031 -0.8501,-1.04346 -1.2795,-1.79278 -1.2402,-3.1582 0.13,-0.69577 0.2952,-1.24423 0.6113,-1.87891 1.9746,-0.99628 3.7053,-1.06804 5.8867,-1.02539 0.4723,0.003 0.4734,0.003 0.9551,0.006 0.9985,0.008 1.9957,0.0227 2.9942,0.037 1.0029,0.011 2.0068,0.0193 3.0097,0.0272 0.6222,0.005 1.2431,0.014 1.8653,0.0234 0.4224,0.005 0.4224,0.003 0.8535,0.008 0.3703,0.005 0.3703,0.006 0.748,0.0117 0.6901,-0.0317 1.2793,-0.1646 1.9434,-0.34764 0.4519,-0.0446 0.9058,-0.0771 1.3593,-0.0996 0.3953,-0.0197 0.3957,-0.0189 0.7989,-0.0391 0.2816,-0.0125 0.5616,-0.0246 0.8515,-0.037 0.293,-0.014 0.587,-0.0287 0.8887,-0.043 1.9429,-0.0842 3.8761,-0.0997 5.8203,-0.0762 1.7265,0.0181 3.3647,-0.0494 5.0762,-0.31445 2.0741,-0.31601 4.1247,-0.4348 6.2207,-0.50781 0.3662,-0.0129 0.7319,-0.0257 1.1094,-0.0391 4.4938,-0.1457 8.9884,-0.1722 13.4843,-0.17775 v 0.002 c 1.2279,-0.002 2.4558,-0.011 3.6836,-0.0197 0.9603,-0.006 1.9206,-0.008 2.8809,-0.008 0.4533,-9.5e-4 0.9062,-0.004 1.3594,-0.008 z m -6.2676,14.10156 c 2.4872,0.0151 4.6789,0.73087 6.5059,2.47461 0.2033,0.18989 0.4077,0.37857 0.6172,0.57422 0.2056,0.19313 0.4111,0.38695 0.623,0.58594 0.4454,0.37447 0.8913,0.74803 1.3379,1.12109 2.1199,1.87519 3.2067,4.08984 3.4511,6.91406 0.011,0.89317 -0.023,1.77395 -0.068,2.66602 -0.026,0.61349 -0.026,0.61435 -0.051,1.24023 -0.1765,3.76763 -0.5211,6.37351 -2.7812,9.46289 -0.2143,0.33759 -0.4297,0.67563 -0.6504,1.02344 -1.7311,2.45701 -3.6057,3.3834 -6.5215,3.91602 -4.721,0.68982 -8.9582,0.93884 -12.9864,-1.93946 -0.8069,-0.63132 -1.5036,-1.29648 -2.1914,-2.05664 -0.1818,-0.19151 -0.3636,-0.38276 -0.5507,-0.58008 -2.6627,-2.88463 -2.9665,-5.59299 -2.9688,-9.4121 0,-0.32946 -0.01,-0.66056 -0.011,-1.00001 -0.01,-4.34593 1.0875,-7.30747 4.1622,-10.41015 1.6874,-1.59498 3.1642,-2.45227 5.4531,-2.89649 0.8964,-0.21505 0.8957,-0.21592 1.6973,-0.89843 1.4032,-0.83362 2.5199,-0.79823 4.1211,-0.76954 0.2679,-0.005 0.5363,-0.0106 0.8125,-0.0155 z m -31.9453,0.0136 c 2.0412,0.0496 4.0972,0.58167 6.0508,1.42383 v 0 c 1.7365,0.91065 3.0491,2.34813 4.3652,3.77148 0.3005,0.29337 0.3005,0.29254 0.6075,0.5918 2.93,3.01743 2.8799,7.29991 2.8457,11.24219 -0.1297,2.76962 -0.7921,4.86715 -2.5078,7.05078 -0.084,0.24669 -0.1686,0.49388 -0.2559,0.74805 -1.3316,2.9436 -4.7134,4.11762 -7.5234,5.26757 -3.2789,1.12477 -7.6807,1.01559 -10.8809,-0.33789 -0.647,-0.38132 -1.216,-0.79836 -1.8008,-1.26953 -0.229,-0.17121 -0.4575,-0.34311 -0.6933,-0.51953 -2.1101,-1.70095 -3.3392,-3.76464 -4.6563,-6.0918 -0.1768,-0.23656 -0.3549,-0.47307 -0.5371,-0.7168 -0.6204,-1.30257 -0.5473,-2.54028 -0.5254,-3.96484 0,-0.43886 0,-0.439 0.01,-0.88672 0.07,-3.31305 0.3039,-6.47948 2.3144,-9.22461 0.1523,-0.21343 0.3043,-0.42659 0.461,-0.64648 1.6123,-1.99302 3.6191,-3.14911 5.8339,-4.39063 0.3096,-0.19071 0.6186,-0.38164 0.9376,-0.57812 1.8896,-1.08636 3.9158,-1.51839 5.957,-1.46875 z m 30.0332,5.94336 c -1.9759,0.1093 -3.6258,1.07638 -5.4512,2.39844 -0.6635,0.82845 -0.6626,0.82855 -0.9433,1.88867 -0.086,0.24952 -0.1728,0.50072 -0.262,0.75781 -1.1044,3.49904 -1.0549,6.73657 0.6192,10.01562 1.0238,1.77632 2.0306,2.57615 4.0098,3.13672 1.5394,0.34144 2.884,0.4554 4.4062,-0.041 1.7523,-1.15649 3.2804,-2.67842 4.4453,-4.42578 0.5801,-3.01622 0.9969,-6.73377 -0.6289,-9.44336 -0.2007,-0.35361 -0.2011,-0.35213 -0.4062,-0.71289 -1.0182,-1.68513 -1.8516,-2.63289 -3.6856,-3.3789 -0.7496,-0.17288 -1.4449,-0.23176 -2.1035,-0.19533 z m -30.2266,0.0723 c -1.3574,-0.037 -2.6975,0.28857 -3.8672,1.06836 -0.266,0.16229 -0.5323,0.32496 -0.8066,0.49219 -2.1719,2.17194 -3.2461,5.60239 -3.2851,8.63476 0.2536,2.3034 0.7465,4.5239 2.4199,6.19727 1.774,1.32721 3.8027,2.46852 6.0781,2.30273 1.603,-0.37311 3.02,-0.89951 4.0332,-2.24414 0.2385,-0.40132 0.4665,-0.80751 0.6875,-1.21875 0.1463,-0.23414 0.2929,-0.46777 0.4433,-0.70898 1.4004,-2.42335 1.4904,-4.56898 0.9004,-7.27735 -0.7695,-2.7281 -1.7311,-5.19832 -4.1757,-6.80664 -0.7923,-0.26407 -1.6133,-0.41722 -2.4278,-0.43945 z"
         sodipodi:nodetypes="cccccccccccccccccccccccccccccccccccccccccccccscccccccccccccsccccccccccccccccccsccccccccccccssccccccccccccccccccccccsscssscccccscccccsssssssccccccccccccccsscccccccccccccccccccccccccccccccccccccccccccccccccccccccccccsccccccccccccccccccccccsccccccccccsccscccccccscccccccccccccscccccscccccccccccccccccccccccccccscccccccccccccccccccssccccccccccssccccccccccsccccccc" />
    </g>
  </g>
</svg>
